<svg xmlns="http://www.w3.org/2000/svg" xmlns:xlink="http://www.w3.org/1999/xlink" width="1920" zoomAndPan="magnify" viewBox="0 0 1440 809.999993" height="1080" preserveAspectRatio="xMidYMid meet" version="1.0"><defs><clipPath id="aaf5c4d9b6"><path d="M 504 71.625 L 853 71.625 L 853 540 L 504 540 Z M 504 71.625 " clip-rule="nonzero"/></clipPath><clipPath id="0436b7a4f0"><path d="M 635.101562 75.226562 C 655.574219 85.726562 666 91.199219 674.625 97.726562 C 684.148438 104.925781 695.101562 113.625 702.523438 123.601562 C 709.875 133.574219 714.074219 146.773438 719.023438 157.648438 C 723.449219 167.324219 727.273438 175.875 731.023438 185.550781 C 735 195.824219 739.800781 206.773438 742.199219 217.648438 C 744.523438 228.375 744.601562 239.476562 745.273438 250.351562 C 745.949219 261.148438 747.074219 272.175781 746.101562 282.824219 C 745.125 293.324219 742.050781 303.375 739.574219 313.648438 C 737.101562 324.148438 735.074219 335.175781 731.175781 345.148438 C 727.351562 354.976562 722.699219 364.875 716.625 373.273438 C 710.625 381.523438 703.273438 389.398438 694.949219 395.25 C 686.476562 401.175781 676.273438 405 666.148438 408.300781 C 655.726562 411.75 644.398438 413.550781 633.148438 415.273438 C 621.523438 417.074219 609.148438 419.324219 597.449219 418.875 C 586.050781 418.425781 573.523438 417.226562 563.773438 412.648438 C 554.550781 408.300781 546.976562 400.800781 540.148438 392.925781 C 532.875 384.523438 527.25 373.949219 522 363.148438 C 516.375 351.523438 510.601562 337.425781 507.824219 325.273438 C 505.425781 314.699219 503.699219 304.800781 505.125 294.75 C 506.625 284.175781 511.050781 272.476562 517.199219 263.398438 C 523.351562 254.25 533.324219 246.824219 542.101562 240.148438 C 550.5 233.773438 559.199219 228.824219 568.648438 223.949219 C 578.699219 218.773438 589.949219 213.523438 600.824219 210.074219 C 611.324219 206.773438 622.273438 205.351562 632.773438 203.476562 C 642.976562 201.675781 652.800781 199.5 663 198.898438 C 673.273438 198.300781 683.851562 198.300781 694.199219 199.949219 C 704.773438 201.601562 716.023438 204.449219 725.773438 209.101562 C 735.523438 213.824219 743.625 220.949219 752.699219 228.074219 C 762.75 236.023438 774.226562 245.175781 783.074219 254.851562 C 791.476562 264 797.625 272.699219 804.675781 284.398438 C 813.75 299.550781 824.101562 322.949219 831.300781 339.148438 C 836.925781 351.75 841.726562 361.726562 845.101562 373.273438 C 848.398438 384.523438 850.351562 396.300781 851.398438 407.550781 C 852.449219 418.273438 852.523438 428.625 851.625 439.125 C 850.726562 449.625 848.550781 460.050781 846.074219 470.476562 C 843.523438 481.199219 839.324219 495.523438 836.550781 502.726562 C 835.125 506.550781 834.148438 508.125 832.574219 511.199219 C 830.699219 514.949219 828.75 519.75 825.898438 523.351562 C 823.050781 526.949219 819.449219 530.25 815.625 532.726562 C 811.800781 535.199219 807.300781 537.148438 802.875 538.273438 C 798.449219 539.398438 793.648438 539.851562 789.074219 539.550781 C 784.5 539.25 779.699219 538.050781 775.5 536.25 C 771.300781 534.449219 767.175781 531.898438 763.800781 528.898438 C 760.351562 525.898438 757.351562 522.074219 755.023438 518.101562 C 752.773438 514.125 750.976562 509.625 750.074219 505.125 C 749.175781 500.625 749.023438 495.75 749.625 491.25 C 750.226562 486.675781 751.574219 482.023438 753.601562 477.898438 C 755.625 473.773438 758.398438 469.800781 761.625 466.574219 C 764.851562 463.351562 768.75 460.425781 772.800781 458.398438 C 776.851562 456.300781 781.574219 454.875 786.074219 454.199219 C 790.574219 453.523438 795.449219 453.675781 799.949219 454.5 C 804.449219 455.324219 809.101562 456.898438 813.074219 459.148438 C 817.050781 461.324219 820.875 464.398438 823.949219 467.773438 C 827.023438 471.148438 829.648438 475.273438 831.523438 479.476562 C 833.324219 483.675781 834.601562 488.324219 834.976562 492.898438 C 835.351562 497.476562 834.976562 502.351562 833.925781 506.773438 C 832.875 511.199219 830.925781 515.699219 828.523438 519.601562 C 826.125 523.425781 822.898438 527.101562 819.375 529.949219 C 815.851562 532.875 811.574219 535.273438 807.300781 536.925781 C 803.023438 538.5 798.226562 539.476562 793.648438 539.625 C 789.074219 539.773438 784.273438 539.101562 779.925781 537.824219 C 775.574219 536.550781 771.148438 534.375 767.398438 531.75 C 763.648438 529.125 760.199219 525.675781 757.5 522 C 754.800781 518.324219 752.625 513.976562 751.273438 509.625 C 749.925781 505.273438 749.175781 500.476562 749.25 495.898438 C 749.324219 491.324219 750.300781 487.5 751.800781 482.175781 C 753.976562 474.375 760.273438 464.25 762.675781 454.199219 C 765.300781 443.25 766.949219 430.125 766.199219 418.648438 C 765.523438 407.625 762.898438 398.550781 758.773438 386.476562 C 753.074219 369.675781 741.675781 343.574219 732.226562 328.199219 C 725.175781 316.800781 718.648438 308.175781 710.101562 300.675781 C 701.851562 293.476562 692.101562 286.199219 681.976562 283.800781 C 671.773438 281.398438 659.851562 284.550781 649.125 286.199219 C 638.625 287.851562 628.125 289.800781 618.226562 293.550781 C 608.25 297.300781 592.125 301.273438 589.574219 308.699219 C 587.023438 316.199219 594.898438 333.375 603 338.324219 C 612.148438 343.949219 634.5 342.226562 644.398438 336.449219 C 653.023438 331.425781 657.148438 319.273438 661.273438 309.601562 C 665.476562 299.699219 667.574219 288.148438 669 277.5 C 670.351562 267.300781 670.425781 257.175781 669.824219 247.050781 C 669.148438 236.773438 667.648438 226.273438 665.101562 216.226562 C 662.625 206.25 658.425781 196.648438 654.75 186.976562 C 651.074219 177.300781 649.125 166.5 643.199219 158.324219 C 637.199219 149.925781 626.550781 143.101562 618.675781 137.398438 C 612.148438 132.675781 603.976562 129.375 599.851562 125.925781 C 597.449219 123.898438 596.324219 122.324219 594.898438 120.300781 C 593.476562 118.273438 592.351562 115.949219 591.449219 113.625 C 590.550781 111.300781 589.949219 108.824219 589.648438 106.351562 C 589.351562 103.875 589.425781 101.324219 589.726562 98.851562 C 590.023438 96.375 590.625 93.898438 591.523438 91.574219 C 592.425781 89.25 593.625 87 595.050781 84.976562 C 596.476562 82.949219 598.125 81 600 79.351562 C 601.875 77.699219 604.050781 76.273438 606.226562 75.148438 C 608.398438 74.023438 610.800781 73.125 613.199219 72.523438 C 615.601562 71.925781 618.226562 71.625 620.699219 71.625 C 623.175781 71.625 625.726562 71.925781 628.125 72.523438 C 630.523438 73.125 635.101562 75.226562 635.101562 75.226562 " clip-rule="nonzero"/></clipPath><clipPath id="620753c2a1"><path d="M 406 24 L 657.675781 24 L 657.675781 136 L 406 136 Z M 406 24 " clip-rule="nonzero"/></clipPath><clipPath id="1f3865cb8f"><path d="M 609 130.726562 C 586.273438 118.125 574.351562 114.226562 563.851562 111.375 C 553.199219 108.449219 542.25 106.5 531.148438 104.773438 C 519.75 102.976562 507.898438 101.773438 496.199219 100.800781 C 484.5 99.824219 470.773438 99.226562 461.101562 99.074219 C 454.273438 98.925781 448.875 99.675781 443.625 99.300781 C 439.273438 98.925781 435.449219 98.550781 431.699219 97.273438 C 427.949219 96 424.125 93.976562 420.976562 91.574219 C 417.824219 89.175781 414.898438 86.101562 412.726562 82.800781 C 410.476562 79.5 408.75 75.601562 407.699219 71.773438 C 406.648438 67.949219 406.199219 63.675781 406.425781 59.699219 C 406.648438 55.726562 407.550781 51.601562 409.050781 47.925781 C 410.550781 44.25 412.726562 40.574219 415.351562 37.574219 C 417.898438 34.574219 421.125 31.800781 424.574219 29.773438 C 428.023438 27.75 432 26.175781 435.898438 25.351562 C 439.800781 24.523438 444 24.300781 447.976562 24.75 C 451.949219 25.199219 456 26.398438 459.601562 28.050781 C 463.199219 29.773438 466.726562 32.101562 469.574219 34.875 C 472.425781 37.648438 474.976562 41.023438 476.851562 44.550781 C 478.726562 48.074219 480.074219 52.125 480.675781 56.023438 C 481.273438 59.925781 481.273438 64.199219 480.601562 68.101562 C 479.925781 72 478.574219 76.050781 476.699219 79.574219 C 474.824219 83.101562 472.273438 86.476562 469.351562 89.175781 C 466.425781 91.875 462.898438 94.273438 459.300781 95.925781 C 455.699219 97.574219 451.648438 98.625 447.675781 99.074219 C 443.699219 99.523438 439.5 99.300781 435.601562 98.398438 C 431.699219 97.5 427.800781 95.925781 424.351562 93.824219 C 420.976562 91.800781 417.675781 89.023438 415.125 86.023438 C 412.574219 82.949219 410.398438 79.273438 408.976562 75.601562 C 407.550781 71.851562 406.648438 67.726562 406.425781 63.75 C 406.199219 59.773438 406.726562 55.574219 407.773438 51.75 C 408.824219 47.925781 410.625 44.101562 412.875 40.800781 C 415.125 37.5 418.050781 34.425781 421.273438 32.023438 C 424.425781 29.625 428.25 27.675781 432 26.398438 C 435.75 25.125 439.050781 24.824219 443.925781 24.523438 C 451.425781 24 463.050781 24.601562 472.726562 25.273438 C 482.699219 26.023438 492.375 27.300781 502.875 28.875 C 514.425781 30.601562 527.550781 32.925781 539.101562 35.25 C 549.75 37.425781 559.726562 39.226562 569.699219 42.375 C 579.675781 45.523438 589.273438 49.800781 598.949219 54 C 608.851562 58.273438 619.800781 62.925781 628.5 68.023438 C 636 72.449219 644.398438 78.148438 648.523438 82.199219 C 650.851562 84.449219 651.824219 86.101562 653.101562 88.273438 C 654.375 90.449219 655.425781 92.851562 656.101562 95.25 C 656.773438 97.648438 657.226562 100.273438 657.300781 102.75 C 657.375 105.300781 657.226562 107.851562 656.699219 110.324219 C 656.175781 112.800781 655.351562 115.273438 654.300781 117.523438 C 653.25 119.773438 651.824219 122.023438 650.25 123.976562 C 648.675781 125.925781 646.800781 127.726562 644.773438 129.226562 C 642.75 130.726562 640.5 132.074219 638.175781 133.050781 C 635.851562 134.023438 633.375 134.773438 630.898438 135.148438 C 628.425781 135.523438 625.800781 135.675781 623.324219 135.449219 C 620.851562 135.226562 618.300781 134.773438 615.898438 133.949219 C 613.5 133.125 609 130.648438 609 130.648438 " clip-rule="nonzero"/></clipPath></defs><g clip-path="url(#aaf5c4d9b6)"><g clip-path="url(#0436b7a4f0)"><path fill="#6cd4d5" d="M 502.125 68.625 L 854.625 68.625 L 854.625 542.625 L 502.125 542.625 Z M 502.125 68.625 " fill-opacity="1" fill-rule="nonzero"/></g></g><g clip-path="url(#620753c2a1)"><g clip-path="url(#1f3865cb8f)"><path fill="#6cd4d5" d="M 403.425781 21.523438 L 660.675781 21.523438 L 660.675781 138.523438 L 403.425781 138.523438 Z M 403.425781 21.523438 " fill-opacity="1" fill-rule="nonzero"/></g></g></svg>