<svg xmlns="http://www.w3.org/2000/svg" xmlns:xlink="http://www.w3.org/1999/xlink" width="300" zoomAndPan="magnify"
    viewBox="0 0 224.87999 225" height="300" preserveAspectRatio="xMidYMid meet" version="1.0">
    <defs>
        <clipPath id="41c0938f99">
            <path d="M 9.8125 2 L 59 2 L 59 79 L 9.8125 79 Z M 9.8125 2 " clip-rule="nonzero" />
        </clipPath>
    </defs>
    <path fill="#f79745"
        d="M 89.003906 186.402344 C 80.296875 186.402344 73.238281 179.347656 73.238281 170.644531 C 73.238281 161.945312 80.296875 154.886719 89.003906 154.886719 C 97.714844 154.886719 104.769531 161.945312 104.769531 170.644531 C 104.769531 179.347656 97.714844 186.402344 89.003906 186.402344 Z M 212.582031 91.863281 C 208.691406 40.507812 165.703125 0.046875 111.976562 7.046875 C 61.640625 13.605469 28.574219 59.957031 28.574219 108.007812 C 28.574219 170.855469 77.910156 224.917969 112.363281 208.574219 C 139.726562 195.601562 100.488281 174.527344 125.992188 161.113281 C 140.78125 153.332031 152.09375 174.726562 165.703125 172.785156 C 187.503906 169.671875 215.105469 125.125 212.582031 91.863281 "
        fill-opacity="1" fill-rule="nonzero" />
    <path fill="#0f0a0a"
        d="M 89.003906 186.402344 L 89.003906 185.066406 C 85.015625 185.066406 81.414062 183.457031 78.800781 180.84375 C 76.183594 178.226562 74.574219 174.632812 74.570312 170.644531 C 74.574219 166.65625 76.183594 163.058594 78.800781 160.445312 C 81.414062 157.832031 85.015625 156.222656 89.003906 156.222656 C 92.992188 156.222656 96.59375 157.832031 99.207031 160.445312 C 101.824219 163.058594 103.433594 166.65625 103.433594 170.644531 C 103.433594 174.632812 101.824219 178.226562 99.207031 180.84375 C 96.59375 183.457031 92.992188 185.066406 89.003906 185.066406 L 89.003906 187.734375 C 98.449219 187.734375 106.105469 180.085938 106.105469 170.644531 C 106.105469 161.203125 98.449219 153.554688 89.003906 153.554688 C 79.558594 153.554688 71.902344 161.203125 71.902344 170.644531 C 71.902344 180.085938 79.558594 187.734375 89.003906 187.734375 Z M 212.582031 91.863281 L 213.914062 91.761719 C 212.089844 67.714844 201.8125 46.015625 185.886719 30.3125 C 169.964844 14.613281 148.375 4.917969 124.023438 4.921875 C 120.019531 4.921875 115.941406 5.183594 111.800781 5.722656 C 86.265625 9.050781 65.097656 22.484375 50.351562 41.140625 C 35.601562 59.800781 27.238281 83.675781 27.238281 108.007812 C 27.238281 135.886719 36.820312 162.007812 50.546875 181.21875 C 57.410156 190.824219 65.316406 198.710938 73.625 204.214844 C 81.929688 209.71875 90.652344 212.855469 99.132812 212.859375 C 103.875 212.859375 108.527344 211.871094 112.933594 209.78125 C 116.980469 207.859375 119.730469 205.722656 121.476562 203.34375 C 123.230469 200.96875 123.910156 198.375 123.902344 195.816406 C 123.894531 191.859375 122.398438 187.964844 120.988281 184.179688 C 119.566406 180.398438 118.230469 176.71875 118.242188 173.445312 C 118.246094 171.417969 118.710938 169.558594 119.953125 167.71875 C 121.195312 165.882812 123.277344 164.046875 126.613281 162.292969 C 128.726562 161.183594 130.703125 160.738281 132.636719 160.734375 C 135.136719 160.734375 137.609375 161.5 140.113281 162.710938 C 143.871094 164.527344 147.640625 167.347656 151.523438 169.769531 C 153.46875 170.976562 155.449219 172.085938 157.503906 172.902344 C 159.558594 173.71875 161.695312 174.246094 163.925781 174.246094 C 164.574219 174.246094 165.226562 174.199219 165.890625 174.105469 C 171.496094 173.296875 177.226562 170.023438 182.738281 165.15625 C 191.003906 157.839844 198.796875 146.855469 204.566406 134.574219 C 210.335938 122.292969 214.074219 108.722656 214.078125 96.207031 C 214.078125 94.707031 214.023438 93.226562 213.914062 91.761719 L 211.25 91.964844 C 211.355469 93.355469 211.40625 94.773438 211.40625 96.207031 C 211.417969 112.1875 204.960938 130.421875 195.914062 144.925781 C 191.394531 152.179688 186.234375 158.503906 180.96875 163.15625 C 175.707031 167.824219 170.339844 170.785156 165.511719 171.464844 C 164.980469 171.539062 164.453125 171.574219 163.925781 171.574219 C 161.523438 171.578125 159.117188 170.820312 156.652344 169.601562 C 152.957031 167.789062 149.203125 164.960938 145.28125 162.542969 C 143.320312 161.332031 141.308594 160.222656 139.207031 159.40625 C 137.113281 158.589844 134.921875 158.070312 132.636719 158.070312 C 130.28125 158.066406 127.835938 158.632812 125.371094 159.929688 C 121.765625 161.828125 119.300781 163.921875 117.742188 166.222656 C 116.175781 168.519531 115.566406 171 115.570312 173.445312 C 115.582031 177.417969 117.078125 181.324219 118.488281 185.113281 C 119.910156 188.894531 121.246094 192.5625 121.234375 195.816406 C 121.226562 197.929688 120.71875 199.855469 119.324219 201.765625 C 117.929688 203.671875 115.570312 205.578125 111.792969 207.371094 C 107.746094 209.285156 103.503906 210.191406 99.132812 210.191406 C 91.324219 210.195312 83.082031 207.28125 75.101562 201.992188 C 63.128906 194.066406 51.796875 180.796875 43.5 164.390625 C 35.191406 147.984375 29.90625 128.453125 29.90625 108.007812 C 29.90625 84.289062 38.074219 60.96875 52.445312 42.792969 C 66.820312 24.621094 87.351562 11.601562 112.148438 8.371094 C 116.171875 7.84375 120.136719 7.59375 124.023438 7.59375 C 147.65625 7.59375 168.546875 16.972656 184.007812 32.214844 C 199.46875 47.453125 209.476562 68.550781 211.25 91.964844 L 212.582031 91.863281 "
        fill-opacity="1" fill-rule="nonzero" />
    <path fill="#b26843"
        d="M 177.867188 138.171875 C 177.867188 148.644531 169.367188 157.136719 158.882812 157.136719 C 148.402344 157.136719 139.902344 148.644531 139.902344 138.171875 C 139.902344 127.695312 148.402344 119.203125 158.882812 119.203125 C 169.367188 119.203125 177.867188 127.695312 177.867188 138.171875 "
        fill-opacity="1" fill-rule="nonzero" />
    <path fill="#0f0a0a"
        d="M 177.867188 138.171875 L 176.53125 138.171875 C 176.53125 143.042969 174.558594 147.441406 171.363281 150.636719 C 168.164062 153.828125 163.761719 155.800781 158.882812 155.800781 C 154.007812 155.800781 149.605469 153.828125 146.40625 150.636719 C 143.214844 147.441406 141.238281 143.042969 141.238281 138.171875 C 141.238281 133.296875 143.214844 128.898438 146.40625 125.699219 C 149.605469 122.507812 154.007812 120.539062 158.882812 120.539062 C 163.761719 120.539062 168.164062 122.507812 171.363281 125.699219 C 174.558594 128.898438 176.53125 133.296875 176.53125 138.171875 L 179.199219 138.171875 C 179.199219 126.957031 170.105469 117.871094 158.882812 117.867188 C 147.664062 117.871094 138.570312 126.957031 138.570312 138.171875 C 138.570312 149.378906 147.664062 158.46875 158.882812 158.46875 C 170.105469 158.46875 179.199219 149.378906 179.199219 138.171875 L 177.867188 138.171875 "
        fill-opacity="1" fill-rule="nonzero" />
    <path fill="#b26843"
        d="M 196.84375 89.917969 C 196.84375 100.390625 188.347656 108.882812 177.867188 108.882812 C 167.382812 108.882812 158.882812 100.390625 158.882812 89.917969 C 158.882812 79.441406 167.382812 70.949219 177.867188 70.949219 C 188.347656 70.949219 196.84375 79.441406 196.84375 89.917969 "
        fill-opacity="1" fill-rule="nonzero" />
    <path fill="#0f0a0a"
        d="M 196.84375 89.917969 L 195.511719 89.917969 C 195.507812 94.789062 193.535156 99.1875 190.34375 102.382812 C 187.144531 105.578125 182.742188 107.546875 177.867188 107.546875 C 172.988281 107.546875 168.585938 105.578125 165.386719 102.382812 C 162.191406 99.1875 160.21875 94.789062 160.21875 89.917969 C 160.21875 85.042969 162.191406 80.644531 165.386719 77.449219 C 168.585938 74.253906 172.988281 72.285156 177.867188 72.28125 C 182.742188 72.285156 187.144531 74.253906 190.34375 77.449219 C 193.535156 80.644531 195.507812 85.042969 195.511719 89.917969 L 198.179688 89.917969 C 198.179688 78.707031 189.085938 69.617188 177.867188 69.617188 C 166.648438 69.617188 157.550781 78.707031 157.546875 89.917969 C 157.550781 101.128906 166.648438 110.214844 177.867188 110.21875 C 189.085938 110.214844 198.179688 101.128906 198.179688 89.917969 L 196.84375 89.917969 "
        fill-opacity="1" fill-rule="nonzero" />
    <path fill="#b26843"
        d="M 162.390625 48.484375 C 162.390625 58.957031 153.894531 67.449219 143.410156 67.449219 C 132.925781 67.449219 124.429688 58.957031 124.429688 48.484375 C 124.429688 38.011719 132.925781 29.515625 143.410156 29.515625 C 153.894531 29.515625 162.390625 38.011719 162.390625 48.484375 "
        fill-opacity="1" fill-rule="nonzero" />
    <path fill="#0f0a0a"
        d="M 162.390625 48.484375 L 161.054688 48.484375 C 161.054688 53.355469 159.082031 57.753906 155.886719 60.949219 C 152.6875 64.144531 148.285156 66.113281 143.410156 66.113281 C 138.535156 66.113281 134.132812 64.144531 130.933594 60.949219 C 127.738281 57.753906 125.765625 53.355469 125.765625 48.484375 C 125.765625 43.609375 127.738281 39.210938 130.933594 36.015625 C 134.132812 32.824219 138.535156 30.851562 143.410156 30.851562 C 148.285156 30.851562 152.6875 32.824219 155.886719 36.015625 C 159.082031 39.210938 161.054688 43.609375 161.054688 48.484375 L 163.722656 48.484375 C 163.722656 37.269531 154.632812 28.183594 143.410156 28.183594 C 132.1875 28.183594 123.097656 37.269531 123.097656 48.484375 C 123.097656 59.695312 132.1875 68.785156 143.410156 68.785156 C 154.632812 68.785156 163.722656 59.695312 163.722656 48.484375 L 162.390625 48.484375 "
        fill-opacity="1" fill-rule="nonzero" />
    <path fill="#b26843"
        d="M 112.753906 48.484375 C 112.753906 58.957031 104.25 67.449219 93.769531 67.449219 C 83.289062 67.449219 74.792969 58.957031 74.792969 48.484375 C 74.792969 38.011719 83.289062 29.515625 93.769531 29.515625 C 104.25 29.515625 112.753906 38.011719 112.753906 48.484375 "
        fill-opacity="1" fill-rule="nonzero" />
    <path fill="#0f0a0a"
        d="M 112.753906 48.484375 L 111.417969 48.484375 C 111.417969 53.355469 109.441406 57.753906 106.25 60.949219 C 103.050781 64.144531 98.648438 66.113281 93.769531 66.113281 C 88.894531 66.113281 84.492188 64.144531 81.296875 60.949219 C 78.097656 57.753906 76.128906 53.355469 76.128906 48.484375 C 76.128906 43.609375 78.097656 39.210938 81.296875 36.015625 C 84.492188 32.824219 88.894531 30.851562 93.769531 30.851562 C 98.648438 30.851562 103.050781 32.824219 106.25 36.015625 C 109.441406 39.210938 111.417969 43.609375 111.417969 48.484375 L 114.085938 48.484375 C 114.085938 37.269531 104.988281 28.183594 93.769531 28.183594 C 82.550781 28.183594 73.457031 37.269531 73.457031 48.484375 C 73.457031 59.695312 82.550781 68.785156 93.769531 68.785156 C 104.988281 68.785156 114.085938 59.695312 114.085938 48.484375 L 112.753906 48.484375 "
        fill-opacity="1" fill-rule="nonzero" />
    <path fill="#64c9a1"
        d="M 180.394531 134.761719 C 180.394531 145.234375 171.898438 153.726562 161.417969 153.726562 C 150.933594 153.726562 142.433594 145.234375 142.433594 134.761719 C 142.433594 124.285156 150.933594 115.792969 161.417969 115.792969 C 171.898438 115.792969 180.394531 124.285156 180.394531 134.761719 "
        fill-opacity="1" fill-rule="nonzero" />
    <path fill="#000000"
        d="M 180.394531 134.761719 L 179.058594 134.761719 C 179.058594 139.632812 177.085938 144.03125 173.890625 147.226562 C 170.695312 150.421875 166.292969 152.390625 161.417969 152.390625 C 156.539062 152.390625 152.136719 150.421875 148.9375 147.226562 C 145.746094 144.03125 143.769531 139.632812 143.769531 134.761719 C 143.769531 129.886719 145.746094 125.488281 148.9375 122.289062 C 152.136719 119.097656 156.539062 117.128906 161.417969 117.128906 C 166.292969 117.128906 170.695312 119.097656 173.890625 122.289062 C 177.085938 125.488281 179.058594 129.886719 179.058594 134.761719 L 181.730469 134.761719 C 181.726562 123.550781 172.632812 114.457031 161.417969 114.457031 C 150.195312 114.457031 141.101562 123.550781 141.101562 134.761719 C 141.101562 145.972656 150.195312 155.058594 161.417969 155.0625 C 172.632812 155.058594 181.726562 145.972656 181.730469 134.761719 L 180.394531 134.761719 "
        fill-opacity="1" fill-rule="nonzero" />
    <path fill="#ee2a28"
        d="M 199.375 86.507812 C 199.375 96.984375 190.875 105.472656 180.394531 105.472656 C 169.910156 105.472656 161.417969 96.984375 161.417969 86.507812 C 161.417969 76.03125 169.910156 67.539062 180.394531 67.539062 C 190.875 67.539062 199.375 76.03125 199.375 86.507812 "
        fill-opacity="1" fill-rule="nonzero" />
    <path fill="#0f0a0a"
        d="M 199.375 86.507812 L 198.042969 86.507812 C 198.039062 91.378906 196.066406 95.78125 192.871094 98.976562 C 189.671875 102.167969 185.269531 104.140625 180.394531 104.140625 C 175.519531 104.140625 171.117188 102.167969 167.921875 98.976562 C 164.722656 95.78125 162.753906 91.382812 162.753906 86.507812 C 162.753906 81.632812 164.722656 77.234375 167.921875 74.039062 C 171.117188 70.847656 175.519531 68.875 180.394531 68.875 C 185.269531 68.875 189.671875 70.847656 192.871094 74.039062 C 196.066406 77.234375 198.039062 81.632812 198.042969 86.507812 L 200.710938 86.507812 C 200.710938 75.296875 191.613281 66.207031 180.394531 66.207031 C 169.175781 66.207031 160.082031 75.296875 160.082031 86.507812 C 160.082031 97.71875 169.175781 106.808594 180.394531 106.808594 C 191.613281 106.808594 200.710938 97.71875 200.710938 86.507812 L 199.375 86.507812 "
        fill-opacity="1" fill-rule="nonzero" />
    <path fill="#fbbf09"
        d="M 164.917969 45.074219 C 164.917969 55.550781 156.421875 64.039062 145.941406 64.039062 C 135.460938 64.039062 126.960938 55.550781 126.960938 45.074219 C 126.960938 34.601562 135.460938 26.109375 145.941406 26.109375 C 156.421875 26.109375 164.917969 34.601562 164.917969 45.074219 "
        fill-opacity="1" fill-rule="nonzero" />
    <path fill="#0f0a0a"
        d="M 164.917969 45.074219 L 163.582031 45.074219 C 163.582031 49.945312 161.613281 54.34375 158.414062 57.539062 C 155.21875 60.734375 150.816406 62.703125 145.941406 62.703125 C 141.0625 62.703125 136.660156 60.734375 133.460938 57.539062 C 130.269531 54.34375 128.296875 49.945312 128.292969 45.074219 C 128.296875 40.199219 130.269531 35.800781 133.460938 32.605469 C 136.660156 29.414062 141.0625 27.441406 145.941406 27.441406 C 150.816406 27.441406 155.21875 29.414062 158.414062 32.605469 C 161.613281 35.800781 163.582031 40.199219 163.582031 45.074219 L 166.253906 45.074219 C 166.253906 33.863281 157.160156 24.773438 145.941406 24.773438 C 134.722656 24.773438 125.625 33.863281 125.625 45.074219 C 125.625 56.289062 134.722656 65.371094 145.941406 65.375 C 157.160156 65.371094 166.253906 56.285156 166.253906 45.074219 L 164.917969 45.074219 "
        fill-opacity="1" fill-rule="nonzero" />
    <path fill="#42a3ab"
        d="M 115.28125 45.074219 C 115.28125 55.550781 106.785156 64.039062 96.300781 64.039062 C 85.820312 64.039062 77.324219 55.550781 77.324219 45.074219 C 77.324219 34.601562 85.820312 26.109375 96.300781 26.109375 C 106.785156 26.109375 115.28125 34.601562 115.28125 45.074219 "
        fill-opacity="1" fill-rule="nonzero" />
    <path fill="#0f0a0a"
        d="M 115.28125 45.074219 L 113.945312 45.074219 C 113.945312 49.945312 111.972656 54.34375 108.777344 57.539062 C 105.582031 60.734375 101.179688 62.703125 96.300781 62.703125 C 91.425781 62.703125 87.023438 60.734375 83.824219 57.539062 C 80.632812 54.34375 78.65625 49.945312 78.65625 45.074219 C 78.65625 40.199219 80.632812 35.800781 83.824219 32.605469 C 87.023438 29.414062 91.425781 27.441406 96.300781 27.441406 C 101.179688 27.441406 105.582031 29.414062 108.777344 32.605469 C 111.972656 35.800781 113.945312 40.199219 113.945312 45.074219 L 116.617188 45.074219 C 116.617188 33.863281 107.523438 24.773438 96.300781 24.773438 C 85.078125 24.773438 75.988281 33.863281 75.988281 45.074219 C 75.988281 56.285156 85.078125 65.371094 96.300781 65.375 C 107.523438 65.371094 116.617188 56.285156 116.617188 45.074219 L 115.28125 45.074219 "
        fill-opacity="1" fill-rule="nonzero" />
    <path fill="#b26843"
        d="M 74.792969 86.507812 C 74.792969 96.984375 66.292969 105.472656 55.816406 105.472656 C 45.332031 105.472656 36.832031 96.984375 36.832031 86.507812 C 36.832031 76.03125 45.332031 67.539062 55.816406 67.539062 C 66.292969 67.539062 74.792969 76.03125 74.792969 86.507812 "
        fill-opacity="1" fill-rule="nonzero" />
    <path fill="#0f0a0a"
        d="M 74.792969 86.507812 L 73.457031 86.507812 C 73.457031 91.378906 71.484375 95.78125 68.289062 98.976562 C 65.09375 102.167969 60.691406 104.140625 55.816406 104.140625 C 50.9375 104.140625 46.535156 102.167969 43.335938 98.976562 C 40.140625 95.78125 38.167969 91.378906 38.167969 86.507812 C 38.167969 81.632812 40.140625 77.234375 43.335938 74.039062 C 46.535156 70.847656 50.9375 68.875 55.816406 68.875 C 60.691406 68.875 65.09375 70.847656 68.289062 74.039062 C 71.484375 77.234375 73.457031 81.632812 73.457031 86.507812 L 76.128906 86.507812 C 76.128906 75.296875 67.035156 66.207031 55.816406 66.207031 C 44.59375 66.207031 35.496094 75.296875 35.496094 86.507812 C 35.496094 97.71875 44.59375 106.808594 55.816406 106.808594 C 67.035156 106.808594 76.128906 97.71875 76.128906 86.507812 L 74.792969 86.507812 "
        fill-opacity="1" fill-rule="nonzero" />
    <path fill="#9841a6"
        d="M 77.324219 83.097656 C 77.324219 93.574219 68.824219 102.0625 58.34375 102.0625 C 47.859375 102.0625 39.363281 93.574219 39.363281 83.097656 C 39.363281 72.625 47.859375 64.132812 58.34375 64.132812 C 68.824219 64.132812 77.324219 72.625 77.324219 83.097656 "
        fill-opacity="1" fill-rule="nonzero" />
    <path fill="#0f0a0a"
        d="M 77.324219 83.097656 L 75.988281 83.097656 C 75.988281 87.972656 74.015625 92.371094 70.820312 95.566406 C 67.621094 98.757812 63.21875 100.730469 58.34375 100.730469 C 53.464844 100.726562 49.0625 98.757812 45.867188 95.566406 C 42.671875 92.371094 40.699219 87.972656 40.699219 83.097656 C 40.699219 78.222656 42.671875 73.824219 45.867188 70.628906 C 49.0625 67.4375 53.464844 65.46875 58.34375 65.464844 C 63.21875 65.46875 67.621094 67.4375 70.820312 70.628906 C 74.015625 73.824219 75.988281 78.222656 75.988281 83.097656 L 78.65625 83.097656 C 78.65625 71.886719 69.5625 62.796875 58.34375 62.796875 C 47.121094 62.796875 38.03125 71.886719 38.03125 83.097656 C 38.03125 94.308594 47.121094 103.398438 58.34375 103.398438 C 69.5625 103.398438 78.65625 94.308594 78.65625 83.097656 L 77.324219 83.097656 "
        fill-opacity="1" fill-rule="nonzero" />
    <path fill="#ffffff"
        d="M 56.882812 51.457031 C 58.054688 63.519531 50.734375 74.695312 38.765625 76.65625 C 26.804688 78.617188 17.421875 70.035156 13.550781 58.550781 C 10 48.023438 10.621094 34.253906 15.503906 22.234375 C 15.503906 22.234375 16.695312 29.488281 18.808594 34.5 C 18.59375 18.65625 26.929688 4.484375 26.929688 4.484375 C 26.929688 4.484375 42.007812 24.910156 46.140625 39.851562 C 48.519531 33.371094 41.957031 20.816406 41.957031 20.816406 C 41.957031 20.816406 54.925781 31.261719 56.882812 51.457031 "
        fill-opacity="1" fill-rule="nonzero" />
    <g clip-path="url(#41c0938f99)">
        <path fill="#0f0a0a"
            d="M 56.882812 51.457031 L 55.554688 51.585938 C 55.628906 52.386719 55.671875 53.183594 55.671875 53.972656 C 55.671875 59.222656 53.984375 64.148438 51.007812 67.960938 C 48.027344 71.773438 43.78125 74.480469 38.550781 75.339844 C 37.46875 75.515625 36.414062 75.601562 35.382812 75.601562 C 30.566406 75.597656 26.316406 73.753906 22.785156 70.636719 C 19.261719 67.523438 16.5 63.125 14.816406 58.128906 C 13.363281 53.828125 12.625 48.921875 12.625 43.808594 C 12.625 36.84375 13.992188 29.496094 16.742188 22.738281 L 15.503906 22.234375 L 14.1875 22.453125 C 14.1875 22.472656 14.488281 24.308594 15.058594 26.789062 C 15.632812 29.269531 16.46875 32.386719 17.574219 35.015625 L 20.230469 41.320312 L 20.140625 34.480469 C 20.136719 34.289062 20.136719 34.09375 20.136719 33.90625 C 20.132812 26.335938 22.117188 19.117188 24.113281 13.8125 C 25.113281 11.160156 26.109375 8.984375 26.855469 7.480469 C 27.230469 6.726562 27.539062 6.140625 27.75 5.746094 C 27.859375 5.546875 27.945312 5.402344 27.996094 5.300781 L 28.058594 5.191406 L 28.078125 5.160156 L 26.929688 4.484375 L 25.851562 5.277344 C 25.851562 5.277344 25.910156 5.351562 26.015625 5.503906 C 26.839844 6.632812 30.613281 11.886719 34.648438 18.582031 C 38.683594 25.269531 42.984375 33.425781 44.851562 40.207031 L 45.957031 44.210938 L 47.394531 40.308594 C 47.828125 39.121094 47.992188 37.832031 47.996094 36.503906 C 47.992188 34.675781 47.675781 32.765625 47.21875 30.910156 C 45.84375 25.355469 43.160156 20.25 43.136719 20.199219 L 41.957031 20.816406 L 41.117188 21.855469 L 41.699219 21.132812 L 41.117188 21.851562 L 41.117188 21.855469 L 41.699219 21.132812 L 41.117188 21.851562 L 41.148438 21.878906 C 41.496094 22.171875 44.652344 24.863281 47.9375 29.847656 C 51.21875 34.832031 54.632812 42.09375 55.554688 51.585938 L 58.210938 51.328125 C 57.207031 40.96875 53.371094 33.09375 49.789062 27.8125 C 46.203125 22.53125 42.867188 19.835938 42.792969 19.777344 L 37.804688 15.757812 L 40.769531 21.433594 L 40.78125 21.453125 C 40.902344 21.6875 42.054688 23.945312 43.167969 26.910156 C 43.71875 28.390625 44.265625 30.050781 44.667969 31.707031 C 45.070312 33.371094 45.324219 35.035156 45.324219 36.503906 C 45.324219 37.605469 45.179688 38.589844 44.886719 39.390625 L 46.140625 39.851562 L 47.425781 39.496094 C 46.359375 35.632812 44.609375 31.492188 42.589844 27.429688 C 36.535156 15.242188 28.027344 3.726562 28.003906 3.691406 L 26.804688 2.066406 L 25.777344 3.808594 C 25.75 3.855469 23.683594 7.371094 21.613281 12.875 C 19.546875 18.378906 17.46875 25.871094 17.464844 33.90625 C 17.464844 34.109375 17.46875 34.3125 17.472656 34.519531 L 18.808594 34.5 L 20.035156 33.980469 C 19.03125 31.601562 18.214844 28.585938 17.664062 26.191406 C 17.390625 24.992188 17.175781 23.941406 17.035156 23.199219 C 16.964844 22.824219 16.910156 22.53125 16.871094 22.328125 C 16.855469 22.226562 16.839844 22.148438 16.832031 22.097656 L 16.820312 22.019531 L 16.050781 17.335938 L 14.265625 21.738281 C 11.382812 28.828125 9.957031 36.5 9.953125 43.808594 C 9.957031 49.179688 10.730469 54.355469 12.285156 58.980469 C 14.101562 64.359375 17.085938 69.152344 21.015625 72.632812 C 24.945312 76.117188 29.863281 78.273438 35.382812 78.269531 C 36.5625 78.269531 37.761719 78.171875 38.984375 77.976562 C 44.882812 77.011719 49.757812 73.90625 53.113281 69.601562 C 56.472656 65.296875 58.339844 59.789062 58.339844 53.972656 C 58.339844 53.097656 58.296875 52.214844 58.210938 51.328125 L 56.882812 51.457031 "
            fill-opacity="1" fill-rule="nonzero" />
    </g>
    <path fill="#f79745"
        d="M 68.316406 207.332031 C 68.972656 218.589844 57.363281 220.488281 54.390625 209.617188 C 50.894531 194.292969 35.1875 133.753906 31.703125 110.105469 C 28.222656 86.457031 51.332031 81.46875 56.035156 105.855469 C 60.933594 131.257812 67.066406 192.453125 68.316406 207.332031 "
        fill-opacity="1" fill-rule="nonzero" />
    <path fill="#0f0a0a"
        d="M 68.316406 207.332031 L 66.984375 207.414062 C 67 207.695312 67.003906 207.96875 67.003906 208.238281 C 67.003906 210.78125 66.289062 212.609375 65.316406 213.78125 C 64.332031 214.953125 63.09375 215.507812 61.804688 215.515625 C 60.683594 215.511719 59.492188 215.082031 58.394531 214.089844 C 57.296875 213.097656 56.296875 211.527344 55.675781 209.265625 L 54.390625 209.617188 L 55.691406 209.316406 C 53.933594 201.621094 49.136719 182.671875 44.339844 162.671875 C 41.945312 152.675781 39.546875 142.417969 37.535156 133.191406 C 35.519531 123.96875 33.890625 115.765625 33.027344 109.910156 C 32.792969 108.328125 32.683594 106.835938 32.683594 105.445312 C 32.683594 100.660156 33.960938 97.046875 35.808594 94.675781 C 37.667969 92.304688 40.050781 91.140625 42.515625 91.136719 C 44.851562 91.136719 47.332031 92.1875 49.558594 94.59375 C 51.777344 96.996094 53.699219 100.777344 54.726562 106.109375 C 57.160156 118.726562 59.917969 140.371094 62.21875 160.6875 C 64.515625 181.007812 66.363281 200.027344 66.984375 207.445312 L 68.316406 207.332031 L 66.984375 207.414062 L 68.316406 207.332031 L 69.644531 207.222656 C 69.019531 199.761719 67.175781 180.738281 64.871094 160.390625 C 62.570312 140.039062 59.8125 118.382812 57.351562 105.601562 C 56.25 99.898438 54.160156 95.652344 51.523438 92.785156 C 48.894531 89.925781 45.679688 88.460938 42.515625 88.46875 C 39.175781 88.460938 35.976562 90.101562 33.703125 93.039062 C 31.417969 95.980469 30.015625 100.191406 30.015625 105.445312 C 30.015625 106.976562 30.132812 108.59375 30.382812 110.300781 C 31.265625 116.269531 32.90625 124.503906 34.925781 133.757812 C 37.953125 147.644531 41.839844 163.8125 45.296875 177.949219 C 48.753906 192.082031 51.785156 204.195312 53.089844 209.914062 L 53.09375 209.9375 L 53.101562 209.96875 C 53.828125 212.632812 55.0625 214.675781 56.601562 216.066406 C 58.136719 217.457031 59.980469 218.183594 61.804688 218.183594 C 63.898438 218.1875 65.925781 217.226562 67.367188 215.488281 C 68.816406 213.75 69.675781 211.277344 69.675781 208.238281 C 69.675781 207.917969 69.667969 207.589844 69.648438 207.257812 L 69.644531 207.242188 L 69.644531 207.222656 L 68.316406 207.332031 "
        fill-opacity="1" fill-rule="nonzero" />
    <path fill="#bdbcbc"
        d="M 53.660156 95.921875 L 30.8125 99.664062 L 26.882812 75.691406 L 49.726562 71.953125 L 53.660156 95.921875 "
        fill-opacity="1" fill-rule="nonzero" />
    <path fill="#0f0a0a"
        d="M 53.660156 95.921875 L 53.445312 94.605469 L 31.914062 98.132812 L 28.414062 76.792969 L 48.625 73.480469 L 52.34375 96.136719 L 53.660156 95.921875 L 53.445312 94.605469 L 53.660156 95.921875 L 54.976562 95.707031 L 50.828125 70.417969 L 25.347656 74.589844 L 29.710938 101.195312 L 55.195312 97.023438 L 54.976562 95.707031 L 53.660156 95.921875 "
        fill-opacity="1" fill-rule="nonzero" />
    <path fill="#0f0a0a" d="M 38.046875 73.863281 L 32.851562 33.953125 L 40.683594 73.429688 Z M 38.046875 73.863281 "
        fill-opacity="1" fill-rule="nonzero" />
    <path fill="#0f0a0a"
        d="M 27.210938 76.269531 C 27.210938 76.269531 26.910156 75.835938 26.382812 75.078125 C 26.125 74.691406 25.792969 74.261719 25.445312 73.6875 C 25.101562 73.113281 24.710938 72.457031 24.292969 71.75 C 23.863281 71.042969 23.511719 70.246094 23.082031 69.425781 C 22.640625 68.613281 22.289062 67.703125 21.875 66.785156 C 21.449219 65.875 21.125 64.890625 20.738281 63.914062 C 20.359375 62.929688 20.054688 61.910156 19.707031 60.90625 C 19.398438 59.886719 19.097656 58.867188 18.816406 57.859375 C 18.5625 56.847656 18.277344 55.859375 18.070312 54.886719 C 17.609375 52.953125 17.269531 51.132812 16.996094 49.570312 C 16.460938 46.445312 16.28125 44.34375 16.28125 44.34375 C 16.28125 44.34375 16.628906 46.425781 17.40625 49.488281 C 17.800781 51.015625 18.28125 52.792969 18.886719 54.664062 C 19.164062 55.605469 19.523438 56.558594 19.855469 57.539062 C 20.207031 58.503906 20.582031 59.480469 20.960938 60.453125 C 21.382812 61.414062 21.757812 62.382812 22.203125 63.3125 C 22.65625 64.230469 23.042969 65.164062 23.527344 66.007812 C 23.996094 66.859375 24.402344 67.707031 24.886719 68.453125 C 25.355469 69.203125 25.765625 69.945312 26.207031 70.5625 C 26.640625 71.179688 27.039062 71.746094 27.390625 72.25 C 27.75 72.746094 28.140625 73.179688 28.421875 73.535156 C 29.007812 74.25 29.34375 74.660156 29.34375 74.660156 L 27.210938 76.269531 "
        fill-opacity="1" fill-rule="nonzero" />
    <path fill="#0f0a0a"
        d="M 33.949219 75.171875 C 33.949219 75.171875 33.828125 75.007812 33.605469 74.699219 C 33.382812 74.378906 33.050781 73.964844 32.644531 73.335938 C 32.246094 72.699219 31.71875 71.933594 31.246094 71.039062 C 30.730469 70.152344 30.230469 69.121094 29.695312 67.992188 C 29.445312 67.417969 29.1875 66.824219 28.917969 66.207031 C 28.679688 65.582031 28.429688 64.9375 28.171875 64.273438 C 27.945312 63.601562 27.707031 62.910156 27.464844 62.207031 C 27.25 61.496094 27.03125 60.769531 26.808594 60.027344 C 26.398438 58.539062 26 57 25.664062 55.421875 C 25.324219 53.84375 25.011719 52.238281 24.757812 50.621094 C 23.695312 44.167969 23.335938 37.648438 23.261719 32.773438 C 23.183594 27.894531 23.394531 24.652344 23.394531 24.652344 C 23.394531 24.652344 23.351562 27.902344 23.675781 32.753906 C 24 37.605469 24.699219 44.066406 26.070312 50.375 C 26.398438 51.953125 26.789062 53.519531 27.203125 55.046875 C 27.613281 56.578125 28.078125 58.0625 28.550781 59.484375 C 28.804688 60.191406 29.050781 60.886719 29.296875 61.566406 C 29.566406 62.234375 29.828125 62.886719 30.082031 63.523438 C 30.359375 64.148438 30.632812 64.753906 30.894531 65.34375 C 31.179688 65.917969 31.453125 66.472656 31.71875 67.003906 C 32.285156 68.046875 32.804688 69 33.328125 69.800781 C 33.824219 70.632812 34.316406 71.261719 34.695312 71.816406 C 35.089844 72.363281 35.476562 72.800781 35.703125 73.097656 C 35.941406 73.394531 36.070312 73.550781 36.070312 73.550781 L 33.949219 75.171875 "
        fill-opacity="1" fill-rule="nonzero" />
    <path fill="#0f0a0a"
        d="M 46.261719 71.785156 C 46.261719 71.785156 46.496094 71.300781 46.902344 70.453125 C 47.09375 70.03125 47.375 69.511719 47.617188 68.933594 C 47.839844 68.347656 48.09375 67.695312 48.371094 66.980469 C 48.667969 66.269531 48.875 65.429688 49.15625 64.574219 C 49.445312 63.71875 49.636719 62.785156 49.882812 61.824219 C 50.140625 60.867188 50.289062 59.851562 50.496094 58.828125 C 50.703125 57.808594 50.808594 56.75 50.96875 55.699219 C 51.097656 54.644531 51.195312 53.582031 51.292969 52.539062 C 51.351562 51.492188 51.449219 50.460938 51.464844 49.457031 C 51.550781 47.457031 51.539062 45.585938 51.496094 43.980469 C 51.410156 40.765625 51.148438 38.628906 51.148438 38.628906 C 51.148438 38.628906 51.574219 40.738281 51.914062 43.953125 C 52.078125 45.554688 52.242188 47.4375 52.3125 49.457031 C 52.371094 50.472656 52.355469 51.515625 52.378906 52.582031 C 52.363281 53.644531 52.347656 54.726562 52.300781 55.8125 C 52.21875 56.890625 52.195312 57.980469 52.066406 59.046875 C 51.9375 60.109375 51.863281 61.164062 51.671875 62.167969 C 51.5 63.179688 51.375 64.164062 51.144531 65.078125 C 50.917969 66 50.773438 66.871094 50.511719 67.675781 C 50.269531 68.484375 50.046875 69.222656 49.847656 69.878906 C 49.632812 70.519531 49.410156 71.03125 49.246094 71.476562 C 48.90625 72.351562 48.710938 72.851562 48.710938 72.851562 L 46.261719 71.785156 "
        fill-opacity="1" fill-rule="nonzero" />
    <path fill="#0f0a0a"
        d="M 41.730469 72.628906 C 41.730469 72.628906 41.800781 72.441406 41.925781 72.089844 C 42.042969 71.746094 42.265625 71.210938 42.457031 70.578125 C 42.625 69.945312 42.886719 69.214844 43.0625 68.285156 C 43.285156 67.375 43.445312 66.324219 43.613281 65.175781 C 43.671875 64.597656 43.734375 63.996094 43.800781 63.371094 C 43.832031 62.742188 43.867188 62.089844 43.90625 61.421875 C 43.914062 60.75 43.917969 60.058594 43.925781 59.355469 C 43.90625 58.648438 43.878906 57.925781 43.855469 57.191406 C 43.769531 55.71875 43.644531 54.199219 43.445312 52.660156 C 43.25 51.117188 43.011719 49.550781 42.707031 48 C 41.542969 41.765625 39.605469 35.675781 37.949219 31.191406 C 36.292969 26.707031 34.921875 23.820312 34.921875 23.820312 C 34.921875 23.820312 36.441406 26.632812 38.335938 31.039062 C 40.226562 35.445312 42.496094 41.457031 44.011719 47.714844 C 44.402344 49.277344 44.726562 50.855469 45.011719 52.421875 C 45.296875 53.984375 45.507812 55.535156 45.675781 57.046875 C 45.738281 57.808594 45.804688 58.550781 45.867188 59.28125 C 45.894531 60.019531 45.925781 60.734375 45.957031 61.433594 C 45.957031 62.136719 45.953125 62.816406 45.953125 63.480469 C 45.917969 64.140625 45.882812 64.78125 45.851562 65.398438 C 45.742188 66.625 45.628906 67.757812 45.441406 68.75 C 45.304688 69.742188 45.050781 70.628906 44.890625 71.355469 C 44.714844 72.066406 44.535156 72.5625 44.433594 72.929688 C 44.320312 73.285156 44.261719 73.476562 44.261719 73.476562 L 41.730469 72.628906 "
        fill-opacity="1" fill-rule="nonzero" />
</svg>