<svg xmlns="http://www.w3.org/2000/svg" xmlns:xlink="http://www.w3.org/1999/xlink" width="1920" zoomAndPan="magnify" viewBox="0 0 1440 809.999993" height="1080" preserveAspectRatio="xMidYMid meet" version="1.0"><defs><clipPath id="b7ee8ac68c"><path d="M 94.773438 114.054688 L 1345.226562 114.054688 L 1345.226562 639.972656 L 94.773438 639.972656 Z M 94.773438 114.054688 " clip-rule="nonzero"/></clipPath><clipPath id="3e7e0c6fa6"><path d="M 581.144531 255.511719 L 858.855469 255.511719 L 858.855469 498.511719 L 581.144531 498.511719 Z M 581.144531 255.511719 " clip-rule="nonzero"/></clipPath><clipPath id="3284ab6921"><path d="M 720 255.511719 L 858.855469 498.511719 L 581.144531 498.511719 L 720 255.511719 " clip-rule="nonzero"/></clipPath><clipPath id="c76f97fe0d"><path d="M 951.855469 255.511719 L 1194.855469 255.511719 L 1194.855469 498.511719 L 951.855469 498.511719 Z M 951.855469 255.511719 " clip-rule="nonzero"/></clipPath><clipPath id="f0021c3a66"><path d="M 1073.355469 255.511719 L 1194.855469 348.332031 L 1148.449219 498.511719 L 998.265625 498.511719 L 951.855469 348.332031 L 1073.355469 255.511719 " clip-rule="nonzero"/></clipPath><clipPath id="0a8c963fc5"><path d="M 233.191406 255.511719 L 488.144531 255.511719 L 488.144531 498.511719 L 233.191406 498.511719 Z M 233.191406 255.511719 " clip-rule="nonzero"/></clipPath><clipPath id="ddf45bb0ae"><path d="M 360.667969 255.511719 L 390.761719 348.332031 L 488.144531 348.332031 L 409.359375 405.695312 L 439.453125 498.511719 L 360.667969 441.148438 L 281.882812 498.511719 L 311.976562 405.695312 L 233.191406 348.332031 L 330.574219 348.332031 L 360.667969 255.511719 " clip-rule="nonzero"/></clipPath></defs><g clip-path="url(#b7ee8ac68c)"><path fill="#c2c2c2" d="M 94.773438 114.054688 L 1345.210938 114.054688 L 1345.210938 639.921875 L 94.773438 639.921875 Z M 94.773438 114.054688 " fill-opacity="1" fill-rule="nonzero"/></g><g clip-path="url(#3e7e0c6fa6)"><g clip-path="url(#3284ab6921)"><path fill="#000000" d="M 581.144531 255.511719 L 858.855469 255.511719 L 858.855469 498.511719 L 581.144531 498.511719 Z M 581.144531 255.511719 " fill-opacity="1" fill-rule="nonzero"/></g></g><g clip-path="url(#c76f97fe0d)"><g clip-path="url(#f0021c3a66)"><path fill="#000000" d="M 951.855469 255.511719 L 1194.855469 255.511719 L 1194.855469 498.511719 L 951.855469 498.511719 Z M 951.855469 255.511719 " fill-opacity="1" fill-rule="nonzero"/></g></g><g clip-path="url(#0a8c963fc5)"><g clip-path="url(#ddf45bb0ae)"><path fill="#222222" d="M 233.191406 255.511719 L 488.144531 255.511719 L 488.144531 498.511719 L 233.191406 498.511719 Z M 233.191406 255.511719 " fill-opacity="1" fill-rule="nonzero"/></g></g></svg>