<svg xmlns="http://www.w3.org/2000/svg" xmlns:xlink="http://www.w3.org/1999/xlink" width="1920" zoomAndPan="magnify" viewBox="0 0 1440 809.999993" height="1080" preserveAspectRatio="xMidYMid meet" version="1.0"><defs><clipPath id="5edc059ee7"><path d="M 94.773438 114.054688 L 1345.226562 114.054688 L 1345.226562 639.972656 L 94.773438 639.972656 Z M 94.773438 114.054688 " clip-rule="nonzero"/></clipPath><clipPath id="c235d7bfa7"><path d="M 245.203125 255.511719 L 488.203125 255.511719 L 488.203125 498.511719 L 245.203125 498.511719 Z M 245.203125 255.511719 " clip-rule="nonzero"/></clipPath><clipPath id="c6f01c6180"><path d="M 581.144531 255.511719 L 858.855469 255.511719 L 858.855469 498.511719 L 581.144531 498.511719 Z M 581.144531 255.511719 " clip-rule="nonzero"/></clipPath><clipPath id="ae591e9c59"><path d="M 720 255.511719 L 858.855469 498.511719 L 581.144531 498.511719 L 720 255.511719 " clip-rule="nonzero"/></clipPath><clipPath id="8bcd8d80cf"><path d="M 951.855469 255.511719 L 1194.855469 255.511719 L 1194.855469 498.511719 L 951.855469 498.511719 Z M 951.855469 255.511719 " clip-rule="nonzero"/></clipPath><clipPath id="ff9e872411"><path d="M 1073.355469 255.511719 L 1194.855469 348.332031 L 1148.449219 498.511719 L 998.265625 498.511719 L 951.855469 348.332031 L 1073.355469 255.511719 " clip-rule="nonzero"/></clipPath></defs><g clip-path="url(#5edc059ee7)"><path fill="#c2c2c2" d="M 94.773438 114.054688 L 1345.210938 114.054688 L 1345.210938 639.921875 L 94.773438 639.921875 Z M 94.773438 114.054688 " fill-opacity="1" fill-rule="nonzero"/></g><g clip-path="url(#c235d7bfa7)"><path fill="#000000" d="M 245.203125 255.511719 L 488.203125 255.511719 L 488.203125 498.511719 L 245.203125 498.511719 Z M 245.203125 255.511719 " fill-opacity="1" fill-rule="nonzero"/></g><g clip-path="url(#c6f01c6180)"><g clip-path="url(#ae591e9c59)"><path fill="#000000" d="M 581.144531 255.511719 L 858.855469 255.511719 L 858.855469 498.511719 L 581.144531 498.511719 Z M 581.144531 255.511719 " fill-opacity="1" fill-rule="nonzero"/></g></g><g clip-path="url(#8bcd8d80cf)"><g clip-path="url(#ff9e872411)"><path fill="#000000" d="M 951.855469 255.511719 L 1194.855469 255.511719 L 1194.855469 498.511719 L 951.855469 498.511719 Z M 951.855469 255.511719 " fill-opacity="1" fill-rule="nonzero"/></g></g></svg>