<svg xmlns="http://www.w3.org/2000/svg" xmlns:xlink="http://www.w3.org/1999/xlink" width="1920" zoomAndPan="magnify" viewBox="0 0 1440 809.999993" height="1080" preserveAspectRatio="xMidYMid meet" version="1.0"><defs><g/><clipPath id="e140dd7afd"><path d="M 542 351 L 667 351 L 667 462.691406 L 542 462.691406 Z M 542 351 " clip-rule="nonzero"/></clipPath><clipPath id="8cc2e7e5f1"><path d="M 542 351 L 659 351 L 659 455.941406 L 542 455.941406 Z M 542 351 " clip-rule="nonzero"/></clipPath></defs><g fill="#faff00" fill-opacity="1"><g transform="translate(385.610406, 465.907965)"><g><path d="M 73.464844 -110.976562 L 24.226562 -110.976562 C 10.316406 -110.976562 -0.46875 -99.566406 -0.46875 -85.8125 C -0.46875 -72.527344 10.316406 -61.117188 24.226562 -61.117188 L 24.226562 -23.601562 C 24.226562 -9.691406 35.480469 1.71875 48.925781 1.71875 C 62.679688 1.71875 74.089844 -9.691406 74.089844 -23.601562 L 73.933594 -61.117188 C 87.84375 -61.117188 98.628906 -72.527344 98.628906 -85.8125 C 98.628906 -99.566406 87.375 -110.976562 73.464844 -110.976562 Z M 73.464844 -110.976562 "/></g></g></g><g fill="#faff00" fill-opacity="1"><g transform="translate(486.583213, 465.907965)"><g><path d="M 24.695312 0 C 38.921875 0 49.863281 -11.410156 49.863281 -25.007812 L 49.863281 -86.4375 C 49.863281 -100.035156 38.921875 -110.976562 24.695312 -110.976562 C 10.941406 -110.976562 0 -100.035156 0 -86.4375 L 0 -25.007812 C 0 -11.410156 10.941406 0 24.695312 0 Z M 24.695312 0 "/></g></g></g><g fill="#5f51c5" fill-opacity="1"><g transform="translate(378.702438, 458.999997)"><g><path d="M 73.464844 -110.976562 L 24.226562 -110.976562 C 10.316406 -110.976562 -0.46875 -99.566406 -0.46875 -85.8125 C -0.46875 -72.527344 10.316406 -61.117188 24.226562 -61.117188 L 24.226562 -23.601562 C 24.226562 -9.691406 35.480469 1.71875 48.925781 1.71875 C 62.679688 1.71875 74.089844 -9.691406 74.089844 -23.601562 L 73.933594 -61.117188 C 87.84375 -61.117188 98.628906 -72.527344 98.628906 -85.8125 C 98.628906 -99.566406 87.375 -110.976562 73.464844 -110.976562 Z M 73.464844 -110.976562 "/></g></g></g><g fill="#5f51c5" fill-opacity="1"><g transform="translate(479.675246, 458.999997)"><g><path d="M 24.695312 0 C 38.921875 0 49.863281 -11.410156 49.863281 -25.007812 L 49.863281 -86.4375 C 49.863281 -100.035156 38.921875 -110.976562 24.695312 -110.976562 C 10.941406 -110.976562 0 -100.035156 0 -86.4375 L 0 -25.007812 C 0 -11.410156 10.941406 0 24.695312 0 Z M 24.695312 0 "/></g></g></g><g fill="#faff00" fill-opacity="1"><g transform="translate(541.434616, 465.907965)"><g/></g></g><g fill="#faff00" fill-opacity="1"><g transform="translate(581.917517, 465.907965)"><g/></g></g><g fill="#faff00" fill-opacity="1"><g transform="translate(622.400417, 465.907965)"><g/></g></g><g fill="#faff00" fill-opacity="1"><g transform="translate(662.883317, 465.907965)"><g/></g></g><g fill="#faff00" fill-opacity="1"><g transform="translate(703.364296, 465.907965)"><g><path d="M 75.652344 -110.976562 L 24.226562 -110.976562 C 10.472656 -110.976562 -0.78125 -99.722656 -0.78125 -86.125 C -0.78125 -74.089844 7.503906 -64.398438 18.601562 -61.742188 L 31.417969 -70.808594 C 32.355469 -71.433594 33.605469 -70.027344 32.667969 -69.089844 L 7.816406 -43.765625 C 2.8125 -38.765625 -1.09375 -32.667969 -1.09375 -24.851562 C -1.09375 -11.097656 10.472656 0 24.226562 0 L 76.121094 0 C 89.71875 0 100.976562 -12.503906 100.976562 -24.851562 C 100.976562 -37.828125 92.847656 -46.734375 81.59375 -49.394531 L 67.835938 -40.328125 C 66.585938 -39.546875 65.804688 -40.796875 66.585938 -41.578125 C 75.652344 -50.644531 84.71875 -59.554688 93.160156 -68.148438 C 107.851562 -82.84375 100.035156 -110.976562 75.652344 -110.976562 Z M 75.652344 -110.976562 "/></g></g></g><g fill="#faff00" fill-opacity="1"><g transform="translate(808.869936, 465.907965)"><g><path d="M 68.304688 -34.074219 C 69.089844 -35.011719 70.339844 -34.074219 69.871094 -32.824219 L 60.335938 -18.289062 C 62.992188 -7.816406 71.589844 0 84.40625 0 C 96.910156 0 109.101562 -10.941406 109.101562 -24.539062 L 109.101562 -86.125 C 109.101562 -95.503906 104.257812 -103.632812 96.597656 -107.539062 C 92.847656 -109.882812 88.46875 -110.976562 84.25 -110.976562 C 77.214844 -110.976562 70.339844 -108.007812 65.492188 -102.382812 L 5.628906 -41.734375 C 0.9375 -36.886719 -1.5625 -30.636719 -1.5625 -24.382812 C -1.5625 -18.132812 0.9375 -12.035156 5.628906 -7.191406 C 10.472656 -2.34375 16.882812 0 23.289062 0 C 29.542969 0 35.949219 -2.34375 40.796875 -7.191406 Z M 68.304688 -34.074219 "/></g></g></g><g fill="#faff00" fill-opacity="1"><g transform="translate(922.659726, 465.907965)"><g><path d="M 75.652344 -110.976562 L 24.226562 -110.976562 C 10.472656 -110.976562 -0.78125 -99.722656 -0.78125 -86.125 C -0.78125 -74.089844 7.503906 -64.398438 18.601562 -61.742188 L 31.417969 -70.808594 C 32.355469 -71.433594 33.605469 -70.027344 32.667969 -69.089844 L 7.816406 -43.765625 C 2.8125 -38.765625 -1.09375 -32.667969 -1.09375 -24.851562 C -1.09375 -11.097656 10.472656 0 24.226562 0 L 76.121094 0 C 89.71875 0 100.976562 -12.503906 100.976562 -24.851562 C 100.976562 -37.828125 92.847656 -46.734375 81.59375 -49.394531 L 67.835938 -40.328125 C 66.585938 -39.546875 65.804688 -40.796875 66.585938 -41.578125 C 75.652344 -50.644531 84.71875 -59.554688 93.160156 -68.148438 C 107.851562 -82.84375 100.035156 -110.976562 75.652344 -110.976562 Z M 75.652344 -110.976562 "/></g></g></g><g fill="#faff00" fill-opacity="1"><g transform="translate(1028.165366, 465.907965)"><g><path d="M 68.304688 -34.074219 C 69.089844 -35.011719 70.339844 -34.074219 69.871094 -32.824219 L 60.335938 -18.289062 C 62.992188 -7.816406 71.589844 0 84.40625 0 C 96.910156 0 109.101562 -10.941406 109.101562 -24.539062 L 109.101562 -86.125 C 109.101562 -95.503906 104.257812 -103.632812 96.597656 -107.539062 C 92.847656 -109.882812 88.46875 -110.976562 84.25 -110.976562 C 77.214844 -110.976562 70.339844 -108.007812 65.492188 -102.382812 L 5.628906 -41.734375 C 0.9375 -36.886719 -1.5625 -30.636719 -1.5625 -24.382812 C -1.5625 -18.132812 0.9375 -12.035156 5.628906 -7.191406 C 10.472656 -2.34375 16.882812 0 23.289062 0 C 29.542969 0 35.949219 -2.34375 40.796875 -7.191406 Z M 68.304688 -34.074219 "/></g></g></g><g fill="#5f51c5" fill-opacity="1"><g transform="translate(696.456328, 458.999997)"><g><path d="M 75.652344 -110.976562 L 24.226562 -110.976562 C 10.472656 -110.976562 -0.78125 -99.722656 -0.78125 -86.125 C -0.78125 -74.089844 7.503906 -64.398438 18.601562 -61.742188 L 31.417969 -70.808594 C 32.355469 -71.433594 33.605469 -70.027344 32.667969 -69.089844 L 7.816406 -43.765625 C 2.8125 -38.765625 -1.09375 -32.667969 -1.09375 -24.851562 C -1.09375 -11.097656 10.472656 0 24.226562 0 L 76.121094 0 C 89.71875 0 100.976562 -12.503906 100.976562 -24.851562 C 100.976562 -37.828125 92.847656 -46.734375 81.59375 -49.394531 L 67.835938 -40.328125 C 66.585938 -39.546875 65.804688 -40.796875 66.585938 -41.578125 C 75.652344 -50.644531 84.71875 -59.554688 93.160156 -68.148438 C 107.851562 -82.84375 100.035156 -110.976562 75.652344 -110.976562 Z M 75.652344 -110.976562 "/></g></g></g><g fill="#5f51c5" fill-opacity="1"><g transform="translate(801.961968, 458.999997)"><g><path d="M 68.304688 -34.074219 C 69.089844 -35.011719 70.339844 -34.074219 69.871094 -32.824219 L 60.335938 -18.289062 C 62.992188 -7.816406 71.589844 0 84.40625 0 C 96.910156 0 109.101562 -10.941406 109.101562 -24.539062 L 109.101562 -86.125 C 109.101562 -95.503906 104.257812 -103.632812 96.597656 -107.539062 C 92.847656 -109.882812 88.46875 -110.976562 84.25 -110.976562 C 77.214844 -110.976562 70.339844 -108.007812 65.492188 -102.382812 L 5.628906 -41.734375 C 0.9375 -36.886719 -1.5625 -30.636719 -1.5625 -24.382812 C -1.5625 -18.132812 0.9375 -12.035156 5.628906 -7.191406 C 10.472656 -2.34375 16.882812 0 23.289062 0 C 29.542969 0 35.949219 -2.34375 40.796875 -7.191406 Z M 68.304688 -34.074219 "/></g></g></g><g fill="#5f51c5" fill-opacity="1"><g transform="translate(915.751758, 458.999997)"><g><path d="M 75.652344 -110.976562 L 24.226562 -110.976562 C 10.472656 -110.976562 -0.78125 -99.722656 -0.78125 -86.125 C -0.78125 -74.089844 7.503906 -64.398438 18.601562 -61.742188 L 31.417969 -70.808594 C 32.355469 -71.433594 33.605469 -70.027344 32.667969 -69.089844 L 7.816406 -43.765625 C 2.8125 -38.765625 -1.09375 -32.667969 -1.09375 -24.851562 C -1.09375 -11.097656 10.472656 0 24.226562 0 L 76.121094 0 C 89.71875 0 100.976562 -12.503906 100.976562 -24.851562 C 100.976562 -37.828125 92.847656 -46.734375 81.59375 -49.394531 L 67.835938 -40.328125 C 66.585938 -39.546875 65.804688 -40.796875 66.585938 -41.578125 C 75.652344 -50.644531 84.71875 -59.554688 93.160156 -68.148438 C 107.851562 -82.84375 100.035156 -110.976562 75.652344 -110.976562 Z M 75.652344 -110.976562 "/></g></g></g><g fill="#5f51c5" fill-opacity="1"><g transform="translate(1021.257398, 458.999997)"><g><path d="M 68.304688 -34.074219 C 69.089844 -35.011719 70.339844 -34.074219 69.871094 -32.824219 L 60.335938 -18.289062 C 62.992188 -7.816406 71.589844 0 84.40625 0 C 96.910156 0 109.101562 -10.941406 109.101562 -24.539062 L 109.101562 -86.125 C 109.101562 -95.503906 104.257812 -103.632812 96.597656 -107.539062 C 92.847656 -109.882812 88.46875 -110.976562 84.25 -110.976562 C 77.214844 -110.976562 70.339844 -108.007812 65.492188 -102.382812 L 5.628906 -41.734375 C 0.9375 -36.886719 -1.5625 -30.636719 -1.5625 -24.382812 C -1.5625 -18.132812 0.9375 -12.035156 5.628906 -7.191406 C 10.472656 -2.34375 16.882812 0 23.289062 0 C 29.542969 0 35.949219 -2.34375 40.796875 -7.191406 Z M 68.304688 -34.074219 "/></g></g></g><g clip-path="url(#e140dd7afd)"><path fill="#ffde59" d="M 651.085938 462.617188 L 557.179688 462.617188 C 556.523438 462.617188 555.867188 462.574219 555.214844 462.488281 C 554.566406 462.402344 553.921875 462.273438 553.289062 462.105469 C 552.652344 461.933594 552.03125 461.722656 551.425781 461.472656 C 550.816406 461.21875 550.230469 460.929688 549.660156 460.601562 C 549.089844 460.269531 548.546875 459.90625 548.023438 459.507812 C 547.503906 459.105469 547.011719 458.671875 546.546875 458.207031 C 546.082031 457.742188 545.648438 457.25 545.246094 456.726562 C 544.847656 456.203125 544.484375 455.660156 544.15625 455.089844 C 543.824219 454.519531 543.535156 453.929688 543.285156 453.320312 C 543.03125 452.714844 542.820312 452.09375 542.648438 451.457031 C 542.480469 450.820312 542.351562 450.175781 542.265625 449.523438 C 542.179688 448.871094 542.136719 448.21875 542.136719 447.558594 C 542.136719 446.902344 542.175781 446.246094 542.261719 445.59375 C 542.347656 444.941406 542.476562 444.296875 542.644531 443.660156 C 542.8125 443.023438 543.023438 442.402344 543.273438 441.792969 C 543.527344 441.1875 543.816406 440.597656 544.144531 440.027344 L 591.066406 358.546875 C 591.394531 357.976562 591.761719 357.433594 592.160156 356.910156 C 592.5625 356.386719 592.992188 355.894531 593.457031 355.425781 C 593.925781 354.960938 594.417969 354.527344 594.9375 354.128906 C 595.460938 353.726562 596.007812 353.363281 596.578125 353.03125 C 597.144531 352.703125 597.734375 352.414062 598.34375 352.160156 C 598.949219 351.910156 599.570312 351.699219 600.207031 351.527344 C 600.839844 351.359375 601.484375 351.230469 602.136719 351.144531 C 602.789062 351.058594 603.445312 351.015625 604.101562 351.015625 C 604.757812 351.015625 605.414062 351.058594 606.066406 351.144531 C 606.71875 351.230469 607.363281 351.359375 607.996094 351.527344 C 608.632812 351.699219 609.253906 351.910156 609.859375 352.160156 C 610.46875 352.414062 611.058594 352.703125 611.625 353.03125 C 612.195312 353.363281 612.742188 353.726562 613.265625 354.128906 C 613.785156 354.527344 614.28125 354.960938 614.746094 355.425781 C 615.210938 355.894531 615.640625 356.386719 616.042969 356.910156 C 616.445312 357.433594 616.808594 357.976562 617.136719 358.546875 L 663.398438 438.859375 C 664.3125 440.125 665.003906 441.496094 665.476562 442.984375 C 665.945312 444.472656 666.171875 445.992188 666.148438 447.554688 C 666.148438 448.535156 666.054688 449.503906 665.863281 450.46875 C 665.675781 451.429688 665.394531 452.363281 665.023438 453.273438 C 664.652344 454.179688 664.195312 455.042969 663.65625 455.859375 C 663.113281 456.679688 662.5 457.4375 661.8125 458.132812 C 661.125 458.832031 660.375 459.457031 659.566406 460.007812 C 658.753906 460.558594 657.898438 461.027344 657 461.410156 C 656.097656 461.792969 655.167969 462.085938 654.210938 462.289062 C 653.25 462.488281 652.28125 462.597656 651.304688 462.609375 Z M 651.085938 462.617188 " fill-opacity="1" fill-rule="nonzero"/></g><g clip-path="url(#8cc2e7e5f1)"><path fill="#5f51c5" d="M 644.558594 455.871094 L 556.179688 455.871094 C 555.558594 455.871094 554.945312 455.832031 554.332031 455.75 C 553.71875 455.671875 553.113281 455.550781 552.515625 455.390625 C 551.917969 455.230469 551.332031 455.03125 550.761719 454.796875 C 550.191406 454.558594 549.636719 454.285156 549.101562 453.976562 C 548.566406 453.667969 548.054688 453.324219 547.5625 452.949219 C 547.070312 452.574219 546.609375 452.164062 546.171875 451.726562 C 545.734375 451.292969 545.324219 450.828125 544.949219 450.335938 C 544.574219 449.847656 544.230469 449.332031 543.921875 448.796875 C 543.609375 448.261719 543.335938 447.710938 543.101562 447.136719 C 542.863281 446.566406 542.664062 445.984375 542.503906 445.386719 C 542.34375 444.789062 542.222656 444.183594 542.140625 443.570312 C 542.0625 442.957031 542.019531 442.339844 542.019531 441.722656 C 542.019531 441.105469 542.058594 440.488281 542.140625 439.875 C 542.21875 439.261719 542.339844 438.65625 542.5 438.058594 C 542.660156 437.460938 542.855469 436.878906 543.09375 436.304688 C 543.328125 435.734375 543.601562 435.179688 543.910156 434.644531 L 588.070312 358.089844 C 588.378906 357.554688 588.722656 357.039062 589.101562 356.550781 C 589.476562 356.058594 589.882812 355.59375 590.320312 355.15625 C 590.761719 354.71875 591.222656 354.3125 591.714844 353.9375 C 592.207031 353.558594 592.71875 353.214844 593.257812 352.90625 C 593.792969 352.597656 594.347656 352.324219 594.917969 352.085938 C 595.488281 351.851562 596.074219 351.652344 596.671875 351.492188 C 597.269531 351.332031 597.875 351.210938 598.488281 351.132812 C 599.101562 351.050781 599.71875 351.011719 600.339844 351.011719 C 600.957031 351.011719 601.574219 351.050781 602.1875 351.132812 C 602.800781 351.210938 603.40625 351.332031 604.003906 351.492188 C 604.601562 351.652344 605.1875 351.851562 605.757812 352.085938 C 606.332031 352.324219 606.882812 352.597656 607.421875 352.90625 C 607.957031 353.214844 608.46875 353.558594 608.960938 353.9375 C 609.453125 354.3125 609.917969 354.71875 610.355469 355.15625 C 610.792969 355.59375 611.199219 356.058594 611.578125 356.550781 C 611.953125 357.039062 612.296875 357.554688 612.605469 358.089844 L 656.144531 433.550781 C 657.003906 434.738281 657.65625 436.027344 658.097656 437.425781 C 658.542969 438.820312 658.753906 440.253906 658.734375 441.71875 C 658.734375 442.640625 658.644531 443.550781 658.464844 444.457031 C 658.289062 445.359375 658.023438 446.238281 657.671875 447.089844 C 657.324219 447.945312 656.894531 448.753906 656.386719 449.523438 C 655.878906 450.292969 655.300781 451.003906 654.652344 451.660156 C 654.003906 452.316406 653.300781 452.902344 652.535156 453.417969 C 651.773438 453.9375 650.96875 454.375 650.121094 454.738281 C 649.273438 455.097656 648.398438 455.371094 647.496094 455.5625 C 646.59375 455.75 645.683594 455.851562 644.761719 455.863281 Z M 644.558594 455.871094 " fill-opacity="1" fill-rule="nonzero"/></g></svg>