<svg xmlns="http://www.w3.org/2000/svg" xmlns:xlink="http://www.w3.org/1999/xlink" width="1587" zoomAndPan="magnify"
    viewBox="0 0 1190.25 1683.749945" height="2245" preserveAspectRatio="xMidYMid meet" version="1.0">
    <defs>
        <clipPath id="9ec09399b5">
            <path d="M 176 0.40625 L 1014 0.40625 L 1014 1683.09375 L 176 1683.09375 Z M 176 0.40625 "
                clip-rule="nonzero" />
        </clipPath>
    </defs>
    <path fill="#ffffff"
        d="M 668.308594 1601.082031 L 713.246094 1563.257812 L 692.023438 1258.191406 L 670.46875 1568.261719 C 670.292969 1570.652344 669.519531 1572.828125 668.308594 1574.707031 Z M 622.722656 1670.542969 C 617.769531 1670.542969 613.101562 1667.804688 610.75 1663.222656 C 607.871094 1657.636719 609.238281 1650.789062 614.050781 1646.734375 L 627.882812 1635.109375 C 624.898438 1634.53125 622.195312 1632.96875 620.230469 1630.683594 L 618.085938 1634.144531 C 616.242188 1637.09375 613.347656 1639.234375 609.976562 1640.097656 L 493.03125 1670.121094 C 491.90625 1670.402344 490.785156 1670.542969 489.679688 1670.542969 C 484.726562 1670.542969 480.042969 1667.804688 477.6875 1663.222656 C 474.808594 1657.636719 476.179688 1650.789062 481.007812 1646.734375 L 581.398438 1562.242188 L 578.238281 990.703125 L 577.097656 990.71875 C 571.304688 990.71875 567.460938 989.894531 566.757812 989.71875 C 561.035156 988.367188 556.824219 983.46875 556.402344 977.605469 L 535.300781 695.664062 L 517.957031 720.667969 L 490.273438 772.394531 C 488.589844 775.554688 485.710938 777.90625 482.289062 778.945312 C 481.007812 779.332031 479.691406 779.523438 478.390625 779.523438 C 476.179688 779.523438 474.003906 778.980469 472.019531 777.925781 L 251.222656 659.667969 C 249.082031 660.019531 246.886719 660.195312 244.65625 660.195312 C 236.355469 660.195312 227.453125 657.859375 218.222656 653.257812 C 212.480469 650.394531 207.96875 647.21875 204.511719 643.566406 C 197.789062 639.019531 193.1875 633.101562 191.1875 626.339844 C 187.730469 614.644531 191.730469 597.683594 193.046875 592.75 C 197.488281 576.140625 204.316406 566.34375 213.359375 563.671875 C 215.097656 563.164062 216.886719 562.902344 218.695312 562.902344 C 232.195312 562.902344 242.128906 577.035156 247.816406 588.042969 C 248.308594 588.042969 248.800781 588.042969 249.257812 588.027344 C 250.046875 586.234375 250.996094 583.355469 251.519531 579.546875 C 252.117188 575.246094 254.75 571.503906 258.59375 569.484375 C 260.5625 568.433594 262.722656 567.921875 264.878906 567.921875 C 266.933594 567.921875 268.988281 568.398438 270.882812 569.328125 C 277.941406 572.855469 287.804688 580.742188 288.734375 597.542969 L 440.191406 666.742188 L 518.363281 452.984375 C 520.152344 448.082031 524.609375 444.640625 529.824219 444.1875 L 635.519531 434.738281 L 639.941406 403.117188 C 621.929688 409.242188 607.238281 412.230469 595.40625 412.230469 C 589.597656 412.230469 584.332031 411.472656 579.800781 410 C 554.101562 401.589844 529.789062 355.25 526.382812 333.355469 C 524.171875 319.078125 529.914062 284.613281 531.351562 276.445312 L 546.5 115.75 C 536.96875 107.445312 530.613281 98.664062 527.175781 89.042969 C 519.027344 66.269531 526.894531 46.566406 533.828125 29.203125 L 534.933594 26.390625 C 537.023438 21.140625 542.058594 17.875 547.464844 17.875 C 548.679688 17.875 549.890625 18.050781 551.101562 18.386719 C 557.753906 20.230469 561.914062 26.8125 560.753906 33.609375 C 560.683594 34.101562 560.421875 35.59375 562.457031 38.15625 C 564.898438 28.058594 570.972656 18.457031 580.066406 10.921875 L 597.25 31.695312 C 600.9375 28.65625 601.445312 24.390625 601.128906 22.898438 C 601.410156 24.25 603.289062 27.761719 604.378906 29.253906 C 606.992188 31.90625 612.382812 34.046875 617.140625 35.945312 C 632.640625 42.140625 649.15625 46.179688 666.660156 50.464844 C 702.75 59.316406 740.089844 68.464844 768.578125 97.117188 C 807.722656 136.503906 787.851562 191.777344 773.316406 232.144531 C 770.738281 239.363281 768.28125 246.175781 766.261719 252.550781 C 760.207031 271.511719 757.398438 291.039062 754.429688 311.722656 L 754.097656 314.023438 C 753.65625 317.007812 753.027344 320.238281 752.359375 323.558594 C 751.113281 329.773438 749.8125 336.199219 750.269531 340.730469 C 750.796875 345.945312 748.234375 351 743.722656 353.6875 C 743.546875 353.792969 740.492188 355.585938 735.332031 358.5 L 745.933594 434.335938 L 828.175781 439.636719 L 829.246094 439.707031 L 851.574219 441.148438 C 855.171875 441.375 858.507812 443.027344 860.878906 445.75 C 863.25 448.453125 864.425781 452 864.160156 455.597656 L 864.144531 455.703125 L 930.183594 636.3125 L 968.308594 722.703125 C 968.960938 724.195312 969.34375 725.777344 969.433594 727.390625 L 985.742188 1016.707031 C 990.902344 1023.976562 994.132812 1033.511719 995.167969 1044.679688 C 1002.433594 1082.308594 1001.277344 1103.519531 991.339844 1115.597656 C 985.898438 1122.199219 978.15625 1125.554688 968.34375 1125.554688 C 965.730469 1125.554688 963.308594 1125.324219 961.183594 1125.148438 C 959.832031 1125.027344 958.550781 1124.886719 957.390625 1124.886719 L 955.617188 1124.957031 C 938.625 1124.957031 935.746094 1106.117188 932.394531 1084.289062 C 931.339844 1077.441406 929.726562 1066.90625 927.898438 1061.21875 C 927.144531 1061.359375 926.074219 1061.675781 924.636719 1062.289062 C 922.933594 1063.027344 921.125 1063.394531 919.316406 1063.394531 C 916.894531 1063.394531 914.488281 1062.746094 912.382812 1061.464844 C 908.660156 1059.234375 906.238281 1055.355469 905.871094 1051.035156 C 905.042969 1041.042969 907.78125 1031.613281 913.699219 1023.574219 L 871.09375 731.519531 L 846.203125 695.644531 L 825.332031 974.582031 C 824.925781 980.148438 821.101562 984.910156 815.746094 986.488281 C 814.851562 986.769531 810.339844 988.015625 803.511719 988.210938 L 802.632812 1567.367188 C 802.632812 1569.40625 802.160156 1571.335938 801.351562 1573.058594 L 801.351562 1621.871094 C 801.351562 1629.316406 795.332031 1635.355469 787.871094 1635.355469 L 763.488281 1635.355469 C 759.539062 1635.355469 755.816406 1633.617188 753.269531 1630.683594 L 751.128906 1634.144531 C 749.304688 1637.09375 746.390625 1639.234375 743.019531 1640.097656 L 626.089844 1670.121094 C 624.96875 1670.402344 623.84375 1670.542969 622.722656 1670.542969 "
        fill-opacity="1" fill-rule="nonzero" />
    <g clip-path="url(#9ec09399b5)">
        <path fill="#040606"
            d="M 683.792969 1570.421875 L 683.914062 1569.210938 L 692.023438 1452.5 L 699.308594 1557.359375 Z M 571.480469 0.527344 C 568.25 3.195312 565.335938 6.078125 562.738281 9.132812 C 560.351562 7.480469 557.664062 6.199219 554.734375 5.390625 C 552.3125 4.726562 549.871094 4.390625 547.464844 4.390625 C 536.652344 4.390625 526.558594 10.941406 522.398438 21.441406 L 521.292969 24.199219 C 513.867188 42.828125 504.617188 66.023438 514.484375 93.589844 C 518.046875 103.527344 523.960938 112.605469 532.457031 121.085938 L 526.945312 179.539062 L 520.207031 250.953125 L 517.976562 274.65625 C 515.554688 288.578125 510.671875 319.976562 513.0625 335.425781 C 516.78125 359.359375 542.21875 411.894531 575.605469 422.816406 C 579.574219 424.117188 583.875 424.976562 588.472656 425.414062 L 579.027344 426.242188 L 528.613281 430.753906 C 518.222656 431.683594 509.285156 438.53125 505.707031 448.347656 L 432.539062 648.429688 L 300.988281 588.308594 C 296.6875 568.941406 282.59375 560.109375 276.886719 557.265625 C 273.113281 555.386719 268.988281 554.4375 264.878906 554.4375 C 260.5625 554.4375 256.242188 555.472656 252.3125 557.546875 C 249.976562 558.773438 247.871094 560.320312 246.042969 562.109375 C 238.882812 554.789062 229.84375 549.414062 218.695312 549.414062 L 218.675781 549.414062 C 215.589844 549.414062 212.5 549.855469 209.53125 550.75 C 195.679688 554.839844 185.746094 567.816406 180.023438 589.273438 C 178.039062 596.683594 173.914062 615.507812 178.25 630.167969 C 181.042969 639.5625 187.0625 647.710938 195.785156 653.925781 C 200.15625 658.261719 205.582031 662.019531 212.21875 665.320312 C 223.328125 670.871094 234.230469 673.679688 244.65625 673.679688 C 245.957031 673.679688 247.273438 673.625 248.570312 673.539062 L 465.664062 789.8125 C 469.613281 791.9375 473.984375 793.007812 478.390625 793.007812 C 481.007812 793.007812 483.640625 792.621094 486.203125 791.847656 C 493.03125 789.777344 498.789062 785.070312 502.160156 778.769531 L 524.820312 736.382812 L 542.957031 978.605469 C 543.832031 990.351562 552.207031 1000.167969 563.6875 1002.851562 C 563.96875 1002.921875 564.355469 1003.011719 564.828125 1003.097656 L 567.882812 1555.988281 L 472.335938 1636.425781 C 462.699219 1644.519531 459.960938 1658.21875 465.699219 1669.402344 C 470.421875 1678.53125 479.777344 1684.027344 489.679688 1684.027344 C 491.890625 1684.027344 494.15625 1683.746094 496.382812 1683.1875 L 595.777344 1657.671875 C 595.863281 1661.660156 596.847656 1665.660156 598.761719 1669.402344 C 603.464844 1678.550781 612.820312 1684.027344 622.722656 1684.027344 C 624.949219 1684.027344 627.214844 1683.746094 629.445312 1683.1875 L 746.371094 1653.160156 C 750.183594 1652.195312 753.675781 1650.402344 756.675781 1647.960938 C 758.871094 1648.542969 761.152344 1648.839844 763.488281 1648.839844 L 787.871094 1648.839844 C 802.773438 1648.839844 814.832031 1636.761719 814.832031 1621.871094 L 814.832031 1575.550781 C 815.660156 1572.96875 816.117188 1570.230469 816.117188 1567.386719 L 816.976562 1000.097656 C 818.203125 999.816406 819.082031 999.570312 819.589844 999.410156 C 830.316406 996.234375 837.953125 986.753906 838.796875 975.585938 L 856.804688 734.554688 L 858.226562 736.59375 L 899.621094 1020.378906 C 893.984375 1029.894531 891.476562 1040.726562 892.441406 1052.160156 C 893.160156 1060.796875 897.988281 1068.574219 905.429688 1073.035156 C 909.167969 1075.265625 913.3125 1076.546875 917.542969 1076.828125 C 918.121094 1080.199219 918.648438 1083.625 919.070312 1086.328125 C 920.371094 1094.773438 921.582031 1102.761719 923.527344 1109.734375 C 930.742188 1135.652344 948.367188 1138.441406 955.617188 1138.441406 C 956.269531 1138.441406 956.917969 1138.425781 957.566406 1138.371094 C 958.074219 1138.40625 959.164062 1138.496094 959.972656 1138.566406 C 962.269531 1138.777344 965.132812 1139.039062 968.34375 1139.039062 C 985.828125 1139.039062 996.152344 1130.945312 1001.734375 1124.167969 C 1014.441406 1108.75 1016.496094 1084.359375 1008.527344 1042.746094 C 1007.191406 1029.472656 1003.347656 1019.570312 999.011719 1012.386719 L 982.898438 726.636719 C 982.722656 723.40625 981.949219 720.226562 980.648438 717.261719 L 942.699219 631.273438 L 877.644531 453.367188 C 877.378906 447.3125 875.0625 441.5 871.042969 436.898438 C 866.320312 431.457031 859.613281 428.136719 852.453125 427.679688 L 829.824219 426.222656 L 829.402344 426.207031 L 757.746094 421.570312 L 749.9375 365.664062 L 750.585938 365.292969 C 759.625 359.9375 764.734375 349.808594 763.679688 339.359375 C 763.417969 336.867188 764.714844 330.457031 765.578125 326.207031 C 766.242188 322.890625 766.929688 319.449219 767.4375 315.9375 L 767.769531 313.636719 C 770.667969 293.53125 773.40625 274.53125 779.09375 256.65625 C 781.058594 250.511719 783.464844 243.804688 786.011719 236.710938 C 800.859375 195.429688 823.296875 133.042969 778.144531 87.601562 C 746.988281 56.257812 706.015625 46.214844 669.871094 37.367188 C 652.84375 33.203125 636.765625 29.273438 622.300781 23.496094 C 619.929688 22.546875 616.402344 21.140625 614.558594 20.089844 C 614.3125 19.632812 614.101562 19.175781 613.980469 18.894531 L 614.3125 19.949219 L 613.734375 19.542969 L 614.050781 19.859375 L 614.367188 20.210938 C 615.472656 25.214844 614.15625 35.207031 605.851562 42.089844 L 588.667969 21.300781 Z M 588.667969 21.300781 C 585.171875 24.199219 592.335938 36.085938 594.265625 38.191406 C 598.953125 43.230469 606.0625 46.039062 612.3125 48.550781 C 660.726562 67.867188 720.21875 67.585938 759.027344 106.617188 C 798.191406 146.019531 767.070312 205.542969 753.410156 248.457031 C 746.792969 269.210938 743.84375 290.582031 740.753906 312.089844 C 739.421875 321.292969 735.910156 332.722656 736.859375 342.082031 C 736.859375 342.082031 730.644531 345.75 720.691406 351.210938 L 734.101562 447.082031 L 827.839844 453.125 L 827.839844 453.105469 L 827.929688 453.125 L 850.714844 454.597656 L 850.484375 457.617188 L 917.667969 641.351562 L 955.96875 728.144531 L 972.503906 1021.308594 L 972.117188 1021.34375 C 977.191406 1026.503906 980.808594 1034.84375 981.808594 1046.558594 C 993.21875 1105.152344 980.878906 1112.070312 968.34375 1112.070312 C 964.484375 1112.070312 960.601562 1111.402344 957.390625 1111.402344 C 956.882812 1111.402344 956.371094 1111.417969 955.882812 1111.453125 L 955.617188 1111.472656 C 945.558594 1111.472656 946.664062 1062.625 937.363281 1050 C 934.816406 1048.4375 932.09375 1047.59375 929.042969 1047.59375 C 926.164062 1047.59375 922.96875 1048.347656 919.316406 1049.910156 C 918.386719 1038.847656 923.898438 1030.542969 931.269531 1024.785156 L 927.550781 1025.082031 L 883.980469 726.425781 L 835.601562 656.71875 L 811.902344 973.566406 C 811.902344 973.566406 807.96875 974.742188 801.722656 974.742188 C 798.402344 974.742188 794.4375 974.40625 790.046875 973.40625 L 789.152344 1567.332031 L 787.871094 1567.332031 L 787.871094 1621.871094 L 763.488281 1621.871094 L 753.132812 1605.296875 L 739.667969 1627.03125 L 622.738281 1657.058594 L 729.328125 1567.332031 L 727.046875 1567.332031 L 692.023438 1063.886719 L 657.003906 1567.332031 L 654.828125 1567.332031 L 654.828125 1621.871094 L 630.425781 1621.871094 L 620.070312 1605.296875 L 606.625 1627.03125 L 489.679688 1657.058594 L 596.285156 1567.332031 L 594.914062 1567.332031 L 591.632812 975.164062 C 585.894531 976.796875 580.871094 977.234375 577.097656 977.234375 C 572.570312 977.234375 569.832031 976.585938 569.832031 976.585938 L 545.921875 656.71875 L 506.441406 713.609375 L 478.390625 766.039062 L 255.820312 646.832031 L 257.875 642.984375 C 254.3125 645.375 249.871094 646.707031 244.65625 646.707031 C 238.757812 646.707031 231.914062 645.003906 224.242188 641.175781 C 219.097656 638.613281 215.605469 635.960938 213.339844 633.207031 C 209.039062 630.605469 205.441406 627.007812 204.109375 622.511719 C 200.71875 611.046875 208.390625 579.210938 217.183594 576.597656 C 217.695312 576.457031 218.1875 576.386719 218.695312 576.386719 C 225.945312 576.386719 234.6875 590.519531 239.164062 601.441406 C 241.636719 601.496094 244.132812 601.53125 246.625 601.53125 C 249.589844 601.53125 252.539062 601.460938 255.367188 601.214844 C 260.527344 598.578125 263.738281 589.519531 264.878906 581.40625 C 277.238281 587.570312 276.695312 601.792969 273.078125 614.609375 L 277.117188 607.042969 L 447.847656 685.074219 L 531.019531 457.617188 L 581.417969 453.105469 L 581.417969 453.125 L 647.386719 447.222656 L 656.425781 382.429688 C 634.148438 391.632812 611.664062 398.742188 595.40625 398.742188 C 591.125 398.742188 587.296875 398.253906 583.996094 397.179688 C 565.125 391 542.761719 350.894531 539.707031 331.28125 C 537.671875 318.132812 544.710938 278.253906 544.710938 278.253906 L 547.046875 253.496094 L 553.785156 182.066406 L 560.597656 109.832031 C 551.417969 102.914062 543.550781 94.800781 539.867188 84.496094 C 533.074219 65.496094 540.65625 48.550781 547.464844 31.363281 C 544.816406 47.058594 564.476562 59.28125 577.292969 59.875 C 576.535156 58.242188 575.957031 56.574219 575.535156 54.925781 C 572.429688 42.476562 578.503906 29.710938 588.667969 21.300781 "
            fill-opacity="1" fill-rule="nonzero" />
    </g>
    <path fill="#ffffff"
        d="M 224.242188 641.175781 C 204.039062 631.117188 209.074219 619.40625 214.9375 607.640625 C 219.554688 598.351562 239.621094 602.617188 255.367188 601.214844 C 260.527344 598.578125 263.738281 589.519531 264.878906 581.40625 C 285.085938 591.46875 270.832031 623.109375 264.96875 634.890625 C 259.105469 646.636719 244.445312 651.273438 224.242188 641.175781 "
        fill-opacity="1" fill-rule="nonzero" />
    <path fill="#040606"
        d="M 224.242188 641.175781 L 226.242188 637.15625 C 221.152344 634.628906 218.117188 632.117188 216.449219 629.921875 C 214.78125 627.710938 214.269531 625.832031 214.238281 623.601562 C 214.183594 619.859375 216.253906 614.945312 218.957031 609.640625 C 219.257812 609.046875 219.644531 608.605469 220.363281 608.132812 C 221.433594 607.414062 223.363281 606.746094 225.925781 606.394531 C 228.492188 606.023438 231.632812 605.902344 235.054688 605.902344 C 238.6875 605.902344 242.640625 606.023438 246.640625 606.023438 C 249.679688 606.023438 252.75 605.953125 255.75 605.691406 C 256.3125 605.640625 256.894531 605.480469 257.402344 605.21875 C 259.457031 604.164062 261.070312 602.617188 262.421875 600.898438 C 266.355469 595.71875 268.355469 588.640625 269.320312 582.023438 L 264.878906 581.40625 L 262.859375 585.429688 C 265.96875 586.992188 267.757812 588.941406 269.023438 591.363281 C 270.25 593.804688 270.847656 596.839844 270.832031 600.300781 C 270.847656 605.8125 269.304688 612.257812 267.25 618.140625 C 265.214844 624.023438 262.703125 629.359375 260.949219 632.890625 L 260.949219 632.871094 C 259.472656 635.820312 257.417969 638.085938 254.769531 639.683594 C 252.101562 641.265625 248.800781 642.214844 244.691406 642.230469 C 239.65625 642.230469 233.441406 640.757812 226.242188 637.15625 L 224.242188 641.175781 L 222.222656 645.199219 C 230.386719 649.273438 237.917969 651.222656 244.691406 651.222656 C 250.203125 651.222656 255.207031 649.90625 259.386719 647.394531 C 263.5625 644.898438 266.828125 641.246094 268.988281 636.894531 L 269.003906 636.894531 C 270.832031 633.1875 273.5 627.535156 275.746094 621.089844 C 277.976562 614.644531 279.820312 607.414062 279.835938 600.300781 C 279.820312 595.839844 279.082031 591.382812 277.046875 587.308594 C 275.007812 583.25 271.585938 579.703125 266.882812 577.386719 C 265.582031 576.738281 264.054688 576.753906 262.773438 577.421875 C 261.507812 578.105469 260.613281 579.351562 260.421875 580.777344 C 259.914062 584.480469 258.894531 588.449219 257.523438 591.554688 C 256.839844 593.101562 256.066406 594.417969 255.3125 595.382812 C 254.574219 596.367188 253.855469 596.945312 253.3125 597.210938 L 255.367188 601.214844 L 254.960938 596.738281 C 252.347656 596.964844 249.539062 597.035156 246.640625 597.035156 C 242.832031 597.035156 238.882812 596.910156 235.054688 596.910156 C 230.246094 596.910156 225.613281 597.085938 221.414062 598.125 C 219.308594 598.648438 217.289062 599.40625 215.449219 600.597656 C 213.605469 601.792969 211.953125 603.515625 210.917969 605.640625 C 208.234375 611.097656 205.300781 616.929688 205.25 623.601562 C 205.214844 627.550781 206.476562 631.730469 209.304688 635.402344 C 212.148438 639.070312 216.359375 642.265625 222.222656 645.199219 L 224.242188 641.175781 "
        fill-opacity="1" fill-rule="nonzero" />
    <path fill="#ffffff"
        d="M 654.828125 1567.332031 L 654.828125 1621.871094 L 630.425781 1621.871094 L 620.070312 1605.296875 L 606.625 1627.03125 L 489.679688 1657.058594 L 596.285156 1567.332031 L 654.828125 1567.332031 "
        fill-opacity="1" fill-rule="nonzero" />
    <path fill="#040606"
        d="M 654.828125 1567.332031 L 650.332031 1567.332031 L 650.332031 1617.375 L 632.921875 1617.375 L 623.878906 1602.925781 C 623.074219 1601.609375 621.617188 1600.800781 620.070312 1600.800781 C 618.527344 1600.800781 617.070312 1601.625 616.242188 1602.941406 L 603.746094 1623.132812 L 507.671875 1647.804688 L 597.933594 1571.828125 L 654.828125 1571.828125 L 654.828125 1567.332031 L 650.332031 1567.332031 L 654.828125 1567.332031 L 654.828125 1562.835938 L 596.285156 1562.835938 C 595.230469 1562.835938 594.195312 1563.207031 593.386719 1563.890625 L 486.78125 1653.617188 C 485.183594 1654.96875 484.726562 1657.25 485.695312 1659.113281 C 486.640625 1660.972656 488.765625 1661.941406 490.800781 1661.414062 L 607.730469 1631.386719 C 608.871094 1631.105469 609.820312 1630.386719 610.433594 1629.402344 L 620.089844 1613.8125 L 626.617188 1624.257812 C 627.441406 1625.558594 628.882812 1626.367188 630.425781 1626.367188 L 654.828125 1626.367188 C 656.023438 1626.367188 657.144531 1625.890625 658.003906 1625.046875 C 658.847656 1624.1875 659.320312 1623.066406 659.320312 1621.871094 L 659.320312 1567.332031 C 659.320312 1566.15625 658.832031 1564.996094 658.003906 1564.15625 C 657.164062 1563.328125 656.003906 1562.835938 654.828125 1562.835938 L 654.828125 1567.332031 "
        fill-opacity="1" fill-rule="nonzero" />
    <path fill="#ffffff"
        d="M 787.871094 1567.332031 L 787.871094 1621.871094 L 763.488281 1621.871094 L 753.132812 1605.296875 L 739.667969 1627.03125 L 622.738281 1657.058594 L 729.328125 1567.332031 L 787.871094 1567.332031 "
        fill-opacity="1" fill-rule="nonzero" />
    <path fill="#040606"
        d="M 787.871094 1567.332031 L 783.375 1567.332031 L 783.375 1617.375 L 765.964844 1617.375 L 756.941406 1602.925781 C 756.113281 1601.609375 754.675781 1600.800781 753.132812 1600.800781 C 751.585938 1600.800781 750.128906 1601.625 749.320312 1602.941406 L 736.804688 1623.132812 L 640.714844 1647.804688 L 730.976562 1571.828125 L 787.871094 1571.828125 L 787.871094 1567.332031 L 783.375 1567.332031 L 787.871094 1567.332031 L 787.871094 1562.835938 L 729.328125 1562.835938 C 728.273438 1562.835938 727.238281 1563.207031 726.429688 1563.890625 L 619.84375 1653.617188 C 618.226562 1654.96875 617.769531 1657.25 618.738281 1659.113281 C 619.703125 1660.972656 621.808594 1661.941406 623.84375 1661.414062 L 740.789062 1631.386719 C 741.914062 1631.105469 742.878906 1630.386719 743.492188 1629.402344 L 753.148438 1613.8125 L 759.679688 1624.257812 C 760.484375 1625.558594 761.941406 1626.367188 763.488281 1626.367188 L 787.871094 1626.367188 C 789.082031 1626.367188 790.207031 1625.890625 791.046875 1625.046875 C 791.90625 1624.1875 792.363281 1623.066406 792.363281 1621.871094 L 792.363281 1567.332031 C 792.363281 1566.15625 791.890625 1564.996094 791.046875 1564.15625 C 790.222656 1563.328125 789.0625 1562.835938 787.871094 1562.835938 L 787.871094 1567.332031 "
        fill-opacity="1" fill-rule="nonzero" />
    <path fill="#ffffff"
        d="M 701.171875 932.425781 L 591.40625 932.425781 L 594.914062 1567.332031 L 657.003906 1567.332031 L 692.023438 1063.886719 L 727.046875 1567.332031 L 789.152344 1567.332031 L 790.117188 932.425781 L 701.171875 932.425781 "
        fill-opacity="1" fill-rule="nonzero" />
    <path fill="#040606"
        d="M 701.171875 932.425781 L 701.171875 927.929688 L 591.40625 927.929688 C 590.195312 927.929688 589.050781 928.402344 588.210938 929.246094 C 587.367188 930.105469 586.894531 931.25 586.910156 932.441406 L 590.421875 1567.367188 C 590.4375 1569.828125 592.441406 1571.828125 594.914062 1571.828125 L 657.003906 1571.828125 C 659.375 1571.828125 661.324219 1570 661.5 1567.648438 L 692.023438 1128.679688 L 722.550781 1567.648438 C 722.710938 1570 724.675781 1571.828125 727.046875 1571.828125 L 789.152344 1571.828125 C 791.628906 1571.828125 793.628906 1569.828125 793.644531 1567.351562 L 794.613281 932.425781 C 794.613281 931.230469 794.136719 930.089844 793.292969 929.246094 C 792.453125 928.402344 791.3125 927.929688 790.117188 927.929688 L 701.171875 927.929688 L 701.171875 936.921875 L 785.605469 936.921875 L 784.660156 1562.835938 L 731.242188 1562.835938 L 696.519531 1063.589844 C 696.34375 1061.21875 694.394531 1059.394531 692.023438 1059.394531 C 689.671875 1059.394531 687.707031 1061.21875 687.546875 1063.589844 L 652.808594 1562.835938 L 599.375 1562.835938 L 595.917969 936.921875 L 701.171875 936.921875 L 701.171875 932.425781 "
        fill-opacity="1" fill-rule="nonzero" />
    <path fill="#ffffff"
        d="M 776.882812 455.175781 L 690.742188 440.675781 L 604.621094 455.175781 L 540.742188 511.332031 L 591.40625 932.425781 L 790.117188 932.425781 L 840.761719 511.332031 L 776.882812 455.175781 "
        fill-opacity="1" fill-rule="nonzero" />
    <path fill="#040606"
        d="M 776.882812 455.175781 L 777.636719 450.753906 L 691.5 436.230469 C 691.007812 436.160156 690.496094 436.160156 690.007812 436.230469 L 603.886719 450.753906 C 603.0625 450.894531 602.289062 451.261719 601.65625 451.804688 L 537.777344 507.941406 C 536.652344 508.941406 536.109375 510.382812 536.285156 511.855469 L 586.945312 932.96875 C 587.210938 935.21875 589.121094 936.921875 591.40625 936.921875 L 790.117188 936.921875 C 792.382812 936.921875 794.296875 935.21875 794.578125 932.96875 L 845.21875 511.855469 C 845.394531 510.382812 844.832031 508.941406 843.726562 507.941406 L 779.847656 451.804688 C 779.234375 451.261719 778.445312 450.894531 777.636719 450.753906 L 776.882812 455.175781 L 773.914062 458.566406 L 836.003906 513.140625 L 786.132812 927.929688 L 595.390625 927.929688 L 545.484375 513.140625 L 606.625 459.410156 L 690.742188 445.238281 L 776.144531 459.621094 L 776.882812 455.175781 L 773.914062 458.566406 L 776.882812 455.175781 "
        fill-opacity="1" fill-rule="nonzero" />
    <path fill="#ffffff"
        d="M 719.9375 345.714844 L 661.570312 345.714844 L 646.558594 453.105469 L 734.945312 453.105469 L 719.9375 345.714844 "
        fill-opacity="1" fill-rule="nonzero" />
    <path fill="#040606"
        d="M 719.9375 345.714844 L 719.9375 341.222656 L 661.570312 341.222656 C 659.320312 341.222656 657.425781 342.890625 657.109375 345.101562 L 642.117188 452.492188 C 641.925781 453.773438 642.3125 455.070312 643.171875 456.054688 C 644.03125 457.039062 645.261719 457.601562 646.558594 457.601562 L 734.945312 457.601562 C 736.242188 457.601562 737.472656 457.039062 738.332031 456.054688 C 739.191406 455.070312 739.5625 453.773438 739.386719 452.492188 L 724.378906 345.101562 C 724.0625 342.890625 722.164062 341.222656 719.9375 341.222656 L 719.9375 345.714844 L 715.476562 346.347656 L 729.765625 448.609375 L 651.722656 448.609375 L 665.464844 350.210938 L 719.9375 350.210938 L 719.9375 345.714844 L 715.476562 346.347656 L 719.9375 345.714844 "
        fill-opacity="1" fill-rule="nonzero" />
    <path fill="#ffffff"
        d="M 644.453125 918.625 C 616.578125 987.628906 569.832031 976.585938 569.832031 976.585938 L 531.019531 457.617188 L 653.003906 446.714844 L 644.453125 918.625 "
        fill-opacity="1" fill-rule="nonzero" />
    <path fill="#040606"
        d="M 644.453125 918.625 L 640.277344 916.9375 C 629.972656 942.417969 617.296875 956.21875 605.746094 963.765625 C 594.195312 971.316406 583.609375 972.738281 577.132812 972.738281 C 575.0625 972.738281 573.429688 972.597656 572.339844 972.460938 C 571.796875 972.390625 571.410156 972.320312 571.148438 972.265625 L 570.882812 972.214844 L 570.847656 972.214844 L 570.460938 973.933594 L 570.867188 972.214844 L 570.847656 972.214844 L 570.460938 973.933594 L 570.867188 972.214844 L 569.832031 976.585938 L 574.308594 976.25 L 535.828125 461.691406 L 648.402344 451.648438 L 639.960938 918.535156 L 644.453125 918.625 L 640.277344 916.9375 L 644.453125 918.625 L 648.945312 918.695312 L 657.496094 446.800781 C 657.511719 445.539062 656.988281 444.292969 656.054688 443.429688 C 655.125 442.570312 653.863281 442.132812 652.597656 442.238281 L 530.613281 453.140625 C 528.175781 453.351562 526.347656 455.492188 526.542969 457.953125 L 565.355469 976.917969 C 565.496094 978.886719 566.898438 980.519531 568.796875 980.976562 C 569.074219 981.027344 572.148438 981.730469 577.132812 981.730469 C 584.910156 981.746094 597.410156 979.992188 610.679688 971.300781 C 623.949219 962.625 637.800781 947.105469 648.613281 920.308594 C 648.824219 919.78125 648.929688 919.273438 648.945312 918.695312 L 644.453125 918.625 "
        fill-opacity="1" fill-rule="nonzero" />
    <path fill="#ffffff"
        d="M 737.070312 918.625 C 764.945312 987.628906 811.902344 973.566406 811.902344 973.566406 L 850.714844 454.597656 L 728.519531 446.714844 L 737.070312 918.625 "
        fill-opacity="1" fill-rule="nonzero" />
    <path fill="#040606"
        d="M 737.070312 918.625 L 732.890625 920.308594 C 743.054688 945.453125 755.90625 960.324219 768.527344 968.808594 C 781.128906 977.289062 793.328125 979.253906 801.6875 979.238281 C 808.515625 979.238281 812.867188 977.972656 813.183594 977.886719 C 814.957031 977.339844 816.238281 975.761719 816.378906 973.898438 L 855.191406 454.933594 C 855.277344 453.738281 854.890625 452.5625 854.101562 451.648438 C 853.3125 450.734375 852.1875 450.191406 850.996094 450.101562 L 728.800781 442.238281 C 727.554688 442.148438 726.308594 442.605469 725.414062 443.464844 C 724.5 444.34375 723.992188 445.554688 724.027344 446.800781 L 732.574219 918.695312 C 732.574219 919.238281 732.699219 919.800781 732.890625 920.308594 L 737.070312 918.625 L 741.5625 918.535156 L 733.101562 451.523438 L 845.886719 458.792969 L 807.410156 973.230469 L 811.902344 973.566406 L 810.601562 969.261719 L 810.917969 970.316406 L 810.621094 969.261719 L 810.601562 969.261719 L 810.917969 970.316406 L 810.621094 969.261719 C 810.480469 969.296875 807.039062 970.265625 801.6875 970.246094 C 794.683594 970.246094 784.449219 968.667969 773.546875 961.34375 C 762.644531 954.003906 750.882812 940.816406 741.230469 916.9375 L 737.070312 918.625 L 741.5625 918.535156 L 737.070312 918.625 "
        fill-opacity="1" fill-rule="nonzero" />
    <path fill="#ffffff"
        d="M 550.679688 649.851562 L 489.625 737.839844 L 428.554688 737.839844 L 531.019531 457.617188 L 581.417969 453.105469 "
        fill-opacity="1" fill-rule="nonzero" />
    <path fill="#040606"
        d="M 546.992188 647.289062 L 487.273438 733.34375 L 434.980469 733.34375 L 534.265625 461.832031 L 581.820312 457.582031 C 584.296875 457.371094 586.121094 455.175781 585.894531 452.71875 C 585.664062 450.242188 583.488281 448.417969 581.011719 448.644531 L 530.613281 453.140625 C 528.894531 453.296875 527.402344 454.441406 526.804688 456.074219 L 424.324219 736.292969 C 423.816406 737.679688 424.027344 739.207031 424.867188 740.417969 C 425.710938 741.632812 427.082031 742.332031 428.554688 742.332031 L 489.625 742.332031 C 491.082031 742.332031 492.46875 741.613281 493.3125 740.402344 L 554.382812 652.414062 C 555.789062 650.378906 555.277344 647.570312 553.242188 646.164062 C 551.207031 644.742188 548.398438 645.25 546.992188 647.289062 "
        fill-opacity="1" fill-rule="nonzero" />
    <path fill="#ffffff"
        d="M 507.199219 712.183594 L 478.390625 766.039062 L 255.820312 646.832031 L 277.117188 607.042969 L 459.785156 690.519531 "
        fill-opacity="1" fill-rule="nonzero" />
    <path fill="#040606"
        d="M 503.246094 710.0625 L 476.546875 759.945312 L 261.894531 644.988281 L 279.082031 612.890625 L 457.921875 694.609375 C 460.171875 695.644531 462.839844 694.644531 463.875 692.398438 C 464.910156 690.132812 463.910156 687.460938 461.660156 686.425781 L 278.976562 602.96875 C 276.816406 601.96875 274.273438 602.828125 273.148438 604.917969 L 251.855469 644.722656 C 250.679688 646.902344 251.503906 649.625 253.699219 650.800781 L 476.265625 770.007812 C 477.320312 770.566406 478.53125 770.691406 479.691406 770.339844 C 480.832031 769.988281 481.777344 769.214844 482.339844 768.164062 L 511.164062 714.308594 C 512.324219 712.113281 511.5 709.394531 509.320312 708.21875 C 507.128906 707.039062 504.40625 707.882812 503.246094 710.0625 "
        fill-opacity="1" fill-rule="nonzero" />
    <path fill="#ffffff"
        d="M 981.808594 1046.558594 C 997.308594 1126.167969 968.960938 1110.367188 955.882812 1111.453125 C 945.542969 1112.332031 946.753906 1062.730469 937.363281 1050 C 932.410156 1046.945312 926.847656 1046.679688 919.316406 1049.910156 C 917.421875 1027.402344 942.171875 1016.144531 955.25 1015.039062 C 968.363281 1013.933594 979.914062 1024.0625 981.808594 1046.558594 "
        fill-opacity="1" fill-rule="nonzero" />
    <path fill="#040606"
        d="M 981.808594 1046.558594 L 977.386719 1047.417969 C 980.546875 1063.570312 981.828125 1075.632812 981.828125 1084.484375 C 981.828125 1090.191406 981.28125 1094.546875 980.421875 1097.757812 C 979.125 1102.605469 977.351562 1104.675781 975.542969 1105.886719 C 973.714844 1107.101562 971.3125 1107.574219 968.34375 1107.554688 C 964.957031 1107.574219 961.183594 1106.925781 957.375 1106.90625 C 956.757812 1106.90625 956.128906 1106.925781 955.476562 1106.976562 L 955.511719 1106.976562 L 955.617188 1108.207031 L 955.617188 1106.976562 L 955.511719 1106.976562 L 955.617188 1108.207031 L 955.617188 1106.976562 L 955.617188 1108.257812 L 956.335938 1107.171875 L 955.617188 1106.976562 L 955.617188 1108.257812 L 956.335938 1107.171875 L 956.214844 1107.328125 L 956.355469 1107.1875 L 956.335938 1107.171875 L 956.214844 1107.328125 L 956.355469 1107.1875 C 956.285156 1107.171875 955.617188 1106.363281 955.039062 1104.90625 C 953.949219 1102.359375 952.914062 1098.058594 952.019531 1093.089844 C 950.648438 1085.609375 949.507812 1076.53125 947.964844 1068.242188 C 947.191406 1064.097656 946.332031 1060.148438 945.242188 1056.617188 C 944.136719 1053.070312 942.890625 1049.945312 940.976562 1047.328125 C 940.644531 1046.890625 940.207031 1046.488281 939.730469 1046.171875 C 936.570312 1044.222656 932.921875 1043.082031 929.042969 1043.097656 C 925.371094 1043.097656 921.582031 1044.046875 917.527344 1045.785156 L 919.316406 1049.910156 L 923.792969 1049.523438 C 923.722656 1048.839844 923.703125 1048.15625 923.703125 1047.488281 C 923.703125 1043.117188 924.898438 1039.410156 926.898438 1036.09375 C 929.902344 1031.121094 934.921875 1027.066406 940.382812 1024.257812 C 945.789062 1021.414062 951.632812 1019.832031 955.636719 1019.515625 C 956.144531 1019.480469 956.652344 1019.445312 957.164062 1019.445312 C 962.058594 1019.5 966.324219 1021.34375 969.976562 1025.628906 C 973.59375 1029.929688 976.472656 1036.898438 977.332031 1046.945312 L 977.386719 1047.417969 L 981.808594 1046.558594 L 986.285156 1046.1875 C 985.320312 1034.828125 982.019531 1025.996094 976.859375 1019.832031 C 971.714844 1013.667969 964.554688 1010.421875 957.164062 1010.457031 C 956.390625 1010.457031 955.636719 1010.492188 954.863281 1010.5625 C 947.613281 1011.195312 938.117188 1014.265625 929.867188 1020.183594 C 925.757812 1023.152344 922 1026.855469 919.226562 1031.421875 C 916.453125 1035.96875 914.699219 1041.429688 914.71875 1047.488281 C 914.71875 1048.402344 914.753906 1049.347656 914.839844 1050.296875 C 914.960938 1051.738281 915.769531 1053.019531 917 1053.773438 C 918.246094 1054.511719 919.753906 1054.597656 921.089844 1054.039062 C 924.335938 1052.632812 926.933594 1052.089844 929.042969 1052.089844 C 931.269531 1052.105469 933.042969 1052.648438 935.007812 1053.828125 L 937.363281 1050 L 933.746094 1052.667969 C 934.5 1053.667969 935.378906 1055.460938 936.167969 1057.742188 C 937.554688 1061.746094 938.714844 1067.257812 939.714844 1073.160156 C 941.242188 1082.042969 942.453125 1091.824219 944.171875 1099.671875 C 945.050781 1103.605469 946.015625 1107.046875 947.457031 1109.945312 C 948.210938 1111.382812 949.070312 1112.71875 950.371094 1113.894531 C 951.632812 1115.054688 953.5625 1115.984375 955.617188 1115.96875 L 956.25 1115.949219 L 956.285156 1115.933594 C 956.582031 1115.914062 956.96875 1115.898438 957.375 1115.898438 C 960.007812 1115.878906 963.992188 1116.527344 968.34375 1116.546875 C 970.890625 1116.546875 973.628906 1116.316406 976.402344 1115.386719 C 978.457031 1114.683594 980.527344 1113.578125 982.371094 1111.964844 C 985.144531 1109.539062 987.285156 1106.082031 988.671875 1101.585938 C 990.078125 1097.089844 990.8125 1091.542969 990.8125 1084.484375 C 990.8125 1074.773438 989.425781 1062.21875 986.214844 1045.714844 L 981.808594 1046.558594 L 986.285156 1046.1875 L 981.808594 1046.558594 "
        fill-opacity="1" fill-rule="nonzero" />
    <path fill="#ffffff"
        d="M 736.859375 342.082031 C 736.859375 342.082031 622.597656 409.824219 583.996094 397.179688 C 565.125 391 542.761719 350.894531 539.707031 331.28125 C 537.671875 318.132812 544.710938 278.253906 544.710938 278.253906 L 547.046875 253.496094 L 553.785156 182.066406 L 560.597656 109.8125 L 722.269531 109.796875 L 736.859375 342.082031 "
        fill-opacity="1" fill-rule="nonzero" />
    <path fill="#040606"
        d="M 736.859375 342.082031 L 734.558594 338.21875 C 734.558594 338.21875 734.207031 338.429688 733.503906 338.832031 C 728.238281 341.90625 703.996094 355.863281 675.824219 369 C 661.726562 375.566406 646.664062 381.921875 632.570312 386.609375 C 618.472656 391.296875 605.308594 394.265625 595.40625 394.25 C 591.476562 394.25 588.085938 393.792969 585.382812 392.898438 C 581.785156 391.753906 577.257812 388.542969 572.761719 383.90625 C 566.003906 376.953125 559.261719 366.980469 554.066406 357.042969 C 548.851562 347.121094 545.132812 337.113281 544.148438 330.597656 C 543.9375 329.28125 543.832031 327.382812 543.832031 325.136719 C 543.816406 317.359375 545.148438 305.699219 546.484375 296.128906 C 547.132812 291.355469 547.816406 287.070312 548.308594 283.996094 C 548.800781 280.90625 549.132812 279.046875 549.132812 279.046875 L 549.1875 278.675781 L 551.523438 253.917969 L 558.261719 182.488281 L 564.6875 114.308594 L 718.058594 114.292969 L 732.363281 342.363281 L 736.859375 342.082031 L 734.558594 338.21875 L 736.859375 342.082031 L 741.335938 341.800781 L 726.765625 109.515625 C 726.605469 107.144531 724.640625 105.300781 722.269531 105.300781 L 560.597656 105.320312 C 558.28125 105.320312 556.347656 107.074219 556.121094 109.390625 L 549.308594 181.648438 L 542.570312 253.074219 L 540.234375 277.832031 L 544.710938 278.253906 L 540.285156 277.484375 C 540.285156 277.519531 538.933594 285.15625 537.566406 294.902344 C 536.214844 304.664062 534.84375 316.445312 534.84375 325.136719 C 534.84375 327.664062 534.949219 329.949219 535.265625 331.984375 C 536.125 337.464844 538.214844 343.890625 541.128906 350.753906 C 545.519531 361.027344 551.800781 372.160156 558.929688 381.519531 C 562.492188 386.1875 566.265625 390.421875 570.199219 393.863281 C 574.132812 397.304688 578.222656 400.007812 582.59375 401.449219 C 586.488281 402.730469 590.789062 403.238281 595.40625 403.238281 C 607.78125 403.222656 622.652344 399.535156 638.328125 394.144531 C 685.214844 377.953125 739 346.015625 739.140625 345.945312 C 740.597656 345.085938 741.441406 343.484375 741.335938 341.800781 L 736.859375 342.082031 "
        fill-opacity="1" fill-rule="nonzero" />
    <path fill="#ffffff"
        d="M 736.859375 342.082031 C 736.859375 342.082031 622.597656 409.824219 583.996094 397.179688 C 565.125 391 542.761719 350.894531 539.707031 331.28125 C 537.671875 318.132812 544.710938 278.253906 544.710938 278.253906 L 547.046875 253.496094 L 553.785156 182.066406 L 560.597656 109.8125 L 722.269531 109.796875 L 736.859375 342.082031 "
        fill-opacity="1" fill-rule="nonzero" />
    <path fill="#040606"
        d="M 736.859375 342.082031 L 734.558594 338.21875 C 734.558594 338.21875 734.207031 338.429688 733.503906 338.832031 C 728.238281 341.90625 703.996094 355.863281 675.824219 369 C 661.726562 375.566406 646.664062 381.921875 632.570312 386.609375 C 618.472656 391.296875 605.308594 394.265625 595.40625 394.25 C 591.476562 394.25 588.085938 393.792969 585.382812 392.898438 C 581.785156 391.753906 577.257812 388.542969 572.761719 383.90625 C 566.003906 376.953125 559.261719 366.980469 554.066406 357.042969 C 548.851562 347.121094 545.132812 337.113281 544.148438 330.597656 C 543.9375 329.28125 543.832031 327.382812 543.832031 325.136719 C 543.816406 317.359375 545.148438 305.699219 546.484375 296.128906 C 547.132812 291.355469 547.816406 287.070312 548.308594 283.996094 C 548.800781 280.90625 549.132812 279.046875 549.132812 279.046875 L 549.1875 278.675781 L 551.523438 253.917969 L 558.261719 182.488281 L 564.6875 114.308594 L 718.058594 114.292969 L 732.363281 342.363281 L 736.859375 342.082031 L 734.558594 338.21875 L 736.859375 342.082031 L 741.335938 341.800781 L 726.765625 109.515625 C 726.605469 107.144531 724.640625 105.300781 722.269531 105.300781 L 560.597656 105.320312 C 558.28125 105.320312 556.347656 107.074219 556.121094 109.390625 L 549.308594 181.648438 L 542.570312 253.074219 L 540.234375 277.832031 L 544.710938 278.253906 L 540.285156 277.484375 C 540.285156 277.519531 538.933594 285.15625 537.566406 294.902344 C 536.214844 304.664062 534.84375 316.445312 534.84375 325.136719 C 534.84375 327.664062 534.949219 329.949219 535.265625 331.984375 C 536.125 337.464844 538.214844 343.890625 541.128906 350.753906 C 545.519531 361.027344 551.800781 372.160156 558.929688 381.519531 C 562.492188 386.1875 566.265625 390.421875 570.199219 393.863281 C 574.132812 397.304688 578.222656 400.007812 582.59375 401.449219 C 586.488281 402.730469 590.789062 403.238281 595.40625 403.238281 C 607.78125 403.222656 622.652344 399.535156 638.328125 394.144531 C 685.214844 377.953125 739 346.015625 739.140625 345.945312 C 740.597656 345.085938 741.441406 343.484375 741.335938 341.800781 L 736.859375 342.082031 "
        fill-opacity="1" fill-rule="nonzero" />
    <path fill="#ffffff"
        d="M 575.535156 54.925781 C 575.957031 56.574219 576.535156 58.242188 577.292969 59.875 C 564.476562 59.28125 544.816406 47.058594 547.464844 31.363281 C 540.65625 48.550781 533.074219 65.496094 539.867188 84.496094 C 547.710938 106.425781 574.273438 118.433594 592.757812 130.023438 C 606.710938 138.75 622.597656 152.816406 638.273438 158.136719 C 640.34375 158.820312 680.773438 158.136719 680.773438 158.136719 L 690.742188 253.496094 L 698.714844 260.273438 L 728.519531 259.574219 L 736.859375 342.082031 C 735.910156 332.722656 739.421875 321.292969 740.753906 312.089844 C 743.84375 290.582031 746.792969 269.210938 753.410156 248.457031 C 767.070312 205.542969 798.191406 146.019531 759.027344 106.617188 C 720.21875 67.585938 660.726562 67.867188 612.3125 48.550781 C 606.0625 46.039062 598.953125 43.230469 594.265625 38.191406 C 592.335938 36.085938 585.171875 24.199219 588.667969 21.300781 C 578.503906 29.710938 572.429688 42.476562 575.535156 54.925781 "
        fill-opacity="1" fill-rule="nonzero" />
    <path fill="#040606"
        d="M 575.535156 54.925781 L 571.183594 55.996094 C 571.65625 57.945312 572.339844 59.875 573.21875 61.773438 L 577.292969 59.875 L 577.5 55.398438 C 572.691406 55.207031 565.742188 52.660156 560.457031 48.621094 C 557.804688 46.621094 555.558594 44.285156 554.050781 41.828125 C 552.523438 39.351562 551.714844 36.855469 551.714844 34.242188 C 551.714844 33.539062 551.765625 32.835938 551.890625 32.152344 C 552.292969 29.886719 550.90625 27.675781 548.695312 27.042969 C 546.484375 26.410156 544.148438 27.570312 543.289062 29.710938 C 538.445312 42.054688 532.738281 54.835938 532.703125 69.148438 C 532.703125 74.609375 533.5625 80.246094 535.636719 86.023438 C 540.058594 98.277344 549.433594 107.320312 559.683594 114.765625 C 569.972656 122.210938 581.347656 128.164062 590.367188 133.816406 C 597.09375 138.03125 604.535156 143.703125 612.328125 149.058594 C 620.140625 154.414062 628.304688 159.488281 636.835938 162.386719 L 636.851562 162.386719 C 637.625 162.628906 637.851562 162.628906 638.222656 162.683594 C 639.34375 162.804688 640.820312 162.839844 642.890625 162.875 C 644.925781 162.910156 647.4375 162.929688 650.210938 162.929688 C 662.867188 162.929688 680.824219 162.628906 680.84375 162.628906 L 680.773438 158.136719 L 676.296875 158.59375 L 686.285156 253.953125 C 686.390625 255.09375 686.953125 256.167969 687.828125 256.921875 L 695.800781 263.699219 C 696.640625 264.417969 697.695312 264.789062 698.820312 264.769531 L 724.464844 264.15625 L 732.382812 342.539062 C 732.503906 343.730469 733.085938 344.804688 734.015625 345.558594 C 734.945312 346.3125 736.121094 346.664062 737.316406 346.558594 C 738.507812 346.4375 739.578125 345.855469 740.335938 344.910156 C 741.089844 343.976562 741.441406 342.820312 741.316406 341.625 C 741.230469 340.710938 741.175781 339.746094 741.175781 338.746094 C 741.175781 334.917969 741.84375 330.527344 742.703125 326.066406 C 743.546875 321.589844 744.566406 317.042969 745.195312 312.722656 C 748.304688 291.214844 751.21875 270.089844 757.695312 249.828125 C 761.996094 236.289062 768.175781 220.804688 773.316406 204.667969 C 778.445312 188.496094 782.570312 171.65625 782.585938 155.152344 C 782.585938 145.914062 781.269531 136.765625 778.039062 128.023438 C 774.828125 119.277344 769.683594 110.972656 762.207031 103.457031 C 741.949219 83.089844 716.511719 73.167969 690.480469 65.863281 C 664.414062 58.578125 637.570312 53.820312 613.980469 44.355469 C 607.695312 41.914062 601.21875 39.15625 597.566406 35.136719 L 597.582031 35.136719 C 597.53125 35.117188 596.953125 34.363281 596.355469 33.433594 C 595.441406 32.011719 594.320312 30.007812 593.492188 28.113281 C 592.632812 26.234375 592.160156 24.335938 592.195312 23.8125 L 592.210938 23.707031 L 590.964844 23.53125 L 592.070312 24.074219 L 592.210938 23.707031 L 590.964844 23.53125 L 592.070312 24.074219 L 590.105469 23.089844 L 591.492188 24.792969 L 592.070312 24.074219 L 590.105469 23.089844 L 591.492188 24.792969 C 592.421875 24.039062 593.003906 22.949219 593.125 21.757812 C 593.246094 20.5625 592.898438 19.386719 592.140625 18.457031 C 591.371094 17.523438 590.296875 16.945312 589.085938 16.824219 C 587.894531 16.71875 586.71875 17.085938 585.804688 17.839844 C 576.625 25.445312 570.253906 36.382812 570.21875 48.253906 C 570.21875 50.816406 570.53125 53.433594 571.183594 56.015625 L 571.183594 55.996094 L 575.535156 54.925781 L 579.890625 53.820312 C 579.433594 51.976562 579.222656 50.113281 579.203125 48.253906 C 579.167969 39.753906 583.996094 30.976562 591.527344 24.777344 C 593.421875 23.195312 593.703125 20.371094 592.140625 18.457031 C 590.578125 16.542969 587.734375 16.261719 585.824219 17.804688 C 584.785156 18.648438 584.085938 19.773438 583.699219 20.84375 C 583.328125 21.898438 583.222656 22.898438 583.222656 23.8125 C 583.222656 25.761719 583.679688 27.5 584.261719 29.203125 C 585.15625 31.765625 586.402344 34.242188 587.613281 36.347656 C 588.226562 37.402344 588.824219 38.351562 589.367188 39.15625 C 589.929688 39.964844 590.386719 40.613281 590.964844 41.230469 L 590.964844 41.246094 C 596.6875 47.320312 604.414062 50.183594 610.644531 52.710938 C 635.449219 62.597656 662.570312 67.355469 688.058594 74.519531 C 713.5625 81.667969 737.28125 91.113281 755.835938 109.796875 C 762.433594 116.433594 766.824219 123.5625 769.613281 131.148438 C 772.40625 138.714844 773.597656 146.757812 773.597656 155.152344 C 773.597656 170.128906 769.773438 186.175781 764.75 201.925781 C 759.730469 217.695312 753.585938 233.113281 749.128906 247.089844 C 742.351562 268.335938 739.402344 289.96875 736.296875 311.441406 C 735.753906 315.25 734.75 319.710938 733.875 324.382812 C 732.980469 329.054688 732.207031 333.917969 732.1875 338.746094 C 732.207031 340.007812 732.257812 341.273438 732.382812 342.539062 C 732.628906 345.015625 734.839844 346.804688 737.316406 346.558594 C 739.773438 346.296875 741.582031 344.101562 741.316406 341.625 L 732.980469 259.117188 C 732.75 256.78125 730.75 255.023438 728.414062 255.078125 L 700.3125 255.746094 L 695.027344 251.230469 L 685.230469 157.660156 C 684.984375 155.34375 683.019531 153.589844 680.683594 153.640625 C 680.683594 153.640625 676.207031 153.710938 670.152344 153.78125 C 664.097656 153.867188 656.476562 153.9375 650.210938 153.9375 C 647.085938 153.9375 644.296875 153.921875 642.242188 153.886719 C 641.222656 153.851562 640.378906 153.832031 639.820312 153.78125 L 639.238281 153.746094 L 639.222656 153.746094 L 638.660156 156.976562 L 639.695312 153.867188 L 639.222656 153.746094 L 638.660156 156.976562 L 639.695312 153.867188 L 639.730469 153.867188 C 632.585938 151.464844 624.949219 146.84375 617.421875 141.648438 C 609.855469 136.46875 602.375 130.742188 595.144531 126.195312 C 585.683594 120.296875 574.535156 114.433594 564.96875 107.496094 C 555.347656 100.542969 547.535156 92.625 544.097656 82.984375 C 542.394531 78.207031 541.691406 73.679688 541.691406 69.148438 C 541.65625 57.367188 546.640625 45.546875 551.644531 33.03125 L 547.464844 31.363281 L 543.042969 30.589844 C 542.816406 31.835938 542.726562 33.066406 542.726562 34.242188 C 542.726562 38.769531 544.183594 42.96875 546.414062 46.566406 C 549.785156 51.976562 554.855469 56.1875 560.316406 59.226562 C 565.792969 62.246094 571.65625 64.109375 577.082031 64.371094 C 578.660156 64.441406 580.152344 63.6875 581.03125 62.386719 C 581.90625 61.070312 582.03125 59.421875 581.363281 57.980469 C 580.730469 56.609375 580.242188 55.222656 579.90625 53.835938 L 579.890625 53.820312 L 575.535156 54.925781 "
        fill-opacity="1" fill-rule="nonzero" />
    <path fill="#ffffff"
        d="M 707.386719 175.097656 L 706.664062 175.148438 L 706.664062 248.84375 L 707.386719 248.898438 C 723.726562 248.898438 736.980469 232.375 736.980469 211.988281 C 736.980469 191.601562 723.726562 175.097656 707.386719 175.097656 "
        fill-opacity="1" fill-rule="nonzero" />
    <path fill="#040606"
        d="M 707.386719 175.097656 L 707.050781 170.621094 L 706.332031 170.671875 C 703.996094 170.832031 702.171875 172.796875 702.171875 175.148438 L 702.171875 248.84375 C 702.171875 251.230469 704.015625 253.179688 706.382812 253.339844 L 707.105469 253.375 L 707.386719 253.390625 C 717.109375 253.390625 725.800781 248.441406 731.820312 240.90625 C 737.875 233.359375 741.476562 223.15625 741.476562 211.988281 C 741.476562 200.820312 737.875 190.636719 731.820312 183.085938 C 725.800781 175.554688 717.109375 170.601562 707.386719 170.601562 L 707.050781 170.621094 L 707.386719 175.097656 L 707.386719 179.59375 C 713.984375 179.59375 720.113281 182.894531 724.816406 188.707031 C 729.46875 194.515625 732.488281 202.769531 732.488281 211.988281 C 732.488281 221.207031 729.46875 229.476562 724.816406 235.269531 C 720.113281 241.101562 713.984375 244.382812 707.386719 244.402344 L 707.386719 248.898438 L 707.664062 244.402344 L 706.945312 244.367188 L 706.664062 248.84375 L 711.160156 248.84375 L 711.160156 175.148438 L 706.664062 175.148438 L 707 179.628906 L 707.71875 179.574219 L 707.386719 175.097656 L 707.386719 179.59375 L 707.386719 175.097656 "
        fill-opacity="1" fill-rule="nonzero" />
    <path fill="#ffffff"
        d="M 241.21875 607.132812 C 244.605469 618.578125 241.425781 634.820312 232.632812 637.472656 C 225.382812 639.648438 207.496094 633.945312 204.109375 622.511719 C 200.71875 611.046875 208.390625 579.210938 217.183594 576.597656 C 225.996094 573.996094 237.828125 595.664062 241.21875 607.132812 "
        fill-opacity="1" fill-rule="nonzero" />
    <path fill="#040606"
        d="M 241.21875 607.132812 L 236.898438 608.414062 C 237.652344 610.941406 238.058594 613.875 238.039062 616.839844 C 238.058594 620.96875 237.25 625.09375 235.914062 628.097656 C 235.25 629.605469 234.441406 630.800781 233.652344 631.644531 C 232.859375 632.46875 232.105469 632.941406 231.335938 633.171875 C 230.894531 633.3125 230.050781 633.433594 229 633.433594 C 225.769531 633.46875 220.765625 632.242188 216.660156 629.957031 C 214.585938 628.832031 212.710938 627.445312 211.304688 625.953125 C 209.867188 624.460938 208.898438 622.882812 208.425781 621.230469 C 208.039062 619.984375 207.777344 617.859375 207.777344 615.347656 C 207.757812 608.992188 209.339844 600.125 211.742188 592.945312 C 212.9375 589.34375 214.359375 586.167969 215.726562 583.972656 C 216.414062 582.882812 217.082031 582.058594 217.605469 581.546875 L 218.238281 581.039062 L 218.46875 580.914062 L 218.695312 580.878906 C 218.886719 580.878906 219.308594 580.949219 219.976562 581.285156 C 221.136719 581.847656 222.820312 583.234375 224.523438 585.21875 C 229.753906 591.136719 235.054688 602.023438 236.898438 608.394531 L 241.21875 607.132812 L 245.519531 605.847656 C 243.746094 599.898438 240.164062 592.011719 235.738281 585.234375 C 233.511719 581.847656 231.089844 578.757812 228.386719 576.316406 C 227.035156 575.105469 225.613281 574.050781 224.015625 573.242188 C 222.433594 572.453125 220.644531 571.890625 218.695312 571.890625 C 217.765625 571.890625 216.816406 572.011719 215.902344 572.292969 C 214.0625 572.855469 212.605469 573.890625 211.359375 575.085938 C 209.214844 577.175781 207.566406 579.863281 206.074219 582.933594 C 201.683594 592.171875 198.839844 605.234375 198.789062 615.347656 C 198.804688 618.421875 199.050781 621.230469 199.808594 623.792969 C 200.773438 627.042969 202.582031 629.851562 204.792969 632.171875 C 208.109375 635.628906 212.289062 638.105469 216.554688 639.808594 C 220.800781 641.492188 225.121094 642.40625 229 642.425781 C 230.703125 642.425781 232.335938 642.25 233.933594 641.773438 C 236.40625 641.039062 238.515625 639.597656 240.164062 637.839844 C 242.675781 635.191406 244.304688 631.871094 245.414062 628.273438 C 246.5 624.671875 247.027344 620.757812 247.027344 616.839844 C 247.027344 613.101562 246.554688 609.359375 245.519531 605.847656 L 241.21875 607.132812 "
        fill-opacity="1" fill-rule="nonzero" />
    <path fill="#ffffff"
        d="M 827.839844 453.105469 L 850.484375 457.617188 L 952.949219 737.839844 L 891.914062 737.839844 L 830.824219 649.851562 "
        fill-opacity="1" fill-rule="nonzero" />
    <path fill="#040606"
        d="M 826.964844 457.511719 L 847.132812 461.535156 L 946.507812 733.34375 L 894.265625 733.34375 L 834.511719 647.289062 C 833.109375 645.25 830.300781 644.742188 828.261719 646.164062 C 826.226562 647.570312 825.71875 650.378906 827.140625 652.414062 L 888.210938 740.402344 C 889.054688 741.613281 890.441406 742.332031 891.914062 742.332031 L 952.949219 742.332031 C 954.40625 742.332031 955.792969 741.632812 956.617188 740.417969 C 957.480469 739.207031 957.671875 737.679688 957.164062 736.3125 L 854.71875 456.074219 C 854.171875 454.597656 852.890625 453.507812 851.363281 453.210938 L 828.71875 448.699219 C 826.277344 448.222656 823.925781 449.804688 823.433594 452.246094 C 822.945312 454.667969 824.542969 457.039062 826.964844 457.511719 "
        fill-opacity="1" fill-rule="nonzero" />
    <path fill="#ffffff"
        d="M 883.980469 726.425781 L 927.550781 1025.082031 L 972.503906 1021.308594 L 955.96875 728.144531 L 917.667969 641.335938 "
        fill-opacity="1" fill-rule="nonzero" />
    <path fill="#040606"
        d="M 879.539062 727.074219 L 923.109375 1025.734375 C 923.441406 1028.085938 925.566406 1029.769531 927.933594 1029.558594 L 972.875 1025.785156 C 975.3125 1025.59375 977.121094 1023.503906 976.980469 1021.0625 L 960.464844 727.902344 C 960.429688 727.375 960.304688 726.828125 960.078125 726.335938 L 921.773438 639.527344 C 920.773438 637.261719 918.121094 636.226562 915.839844 637.226562 C 913.574219 638.226562 912.539062 640.878906 913.558594 643.160156 L 951.527344 729.21875 L 967.765625 1017.199219 L 931.394531 1020.253906 L 888.421875 725.777344 C 888.070312 723.316406 885.789062 721.632812 883.332031 721.984375 C 880.871094 722.335938 879.1875 724.617188 879.539062 727.074219 "
        fill-opacity="1" fill-rule="nonzero" />
</svg>