<svg xmlns="http://www.w3.org/2000/svg" xmlns:xlink="http://www.w3.org/1999/xlink" width="1587" zoomAndPan="magnify" viewBox="0 0 1190.25 1683.749945" height="2245" preserveAspectRatio="xMidYMid meet" version="1.0"><defs><clipPath id="73dc6019b1"><path d="M 537 220.550781 L 934 220.550781 L 934 596 L 537 596 Z M 537 220.550781 " clip-rule="nonzero"/></clipPath><clipPath id="b37a11752c"><path d="M 720 1195 L 1189.5 1195 L 1189.5 1418 L 720 1418 Z M 720 1195 " clip-rule="nonzero"/></clipPath></defs><path fill="#c83322" d="M 656.390625 736.148438 L 706.949219 688.292969 L 1052.8125 571.769531 L 1097.617188 702.140625 L 1084.976562 749.410156 L 656.390625 736.148438 " fill-opacity="1" fill-rule="nonzero"/><g clip-path="url(#73dc6019b1)"><path fill="#d6841a" d="M 537.320312 355.378906 L 588.128906 301.796875 L 706.945312 220.558594 L 933.871094 546.851562 L 920.664062 595.84375 L 537.320312 355.378906 " fill-opacity="1" fill-rule="nonzero"/></g><path fill="#a0b62e" d="M 1074.636719 904.453125 L 1018.90625 904.453125 L 720.734375 1026 L 762.679688 1130.882812 L 798.007812 1147.550781 L 1074.636719 904.453125 " fill-opacity="1" fill-rule="nonzero"/><path fill="#79d1b5" d="M 819.445312 1019.394531 L 775.75 1003.570312 L 706.949219 864.222656 L 790.832031 815.878906 L 906.882812 788.363281 L 819.445312 1019.394531 " fill-opacity="1" fill-rule="nonzero"/><g clip-path="url(#b37a11752c)"><path fill="#c83322" d="M 1110.265625 1417.125 L 1142.4375 1371.109375 L 1189.550781 1195.253906 L 771.292969 1219.394531 L 720.742188 1233.355469 L 1110.265625 1417.125 " fill-opacity="1" fill-rule="nonzero"/></g><path fill="#d6841a" d="M 938.480469 1233.359375 L 887.285156 1212.691406 L 880.457031 1071.121094 L 928.714844 1058.472656 L 1103.941406 1085.480469 L 938.480469 1233.359375 " fill-opacity="1" fill-rule="nonzero"/><path fill="#74cfb1" d="M 762.679688 1443.921875 L 968.929688 1373.417969 L 891.9375 1332.152344 L 748.886719 1362.351562 L 762.679688 1443.921875 " fill-opacity="1" fill-rule="nonzero"/><path fill="#9b4a35" d="M 605.792969 537.386719 C 605.792969 537.386719 603.683594 531.390625 603.019531 530.203125 C 602.355469 529.015625 594.15625 518.855469 590.957031 511.292969 C 587.757812 503.734375 587.179688 491.589844 589.730469 489.84375 C 592.289062 488.097656 598.269531 490.25 599.527344 495.257812 C 600.777344 500.277344 606.035156 508.34375 609.601562 508.679688 C 613.164062 509.019531 614.441406 505.917969 615.300781 498.566406 C 616.167969 491.21875 620.308594 465.148438 622.96875 461.371094 C 625.625 457.585938 634.050781 457.691406 634.105469 465.300781 C 634.167969 472.902344 631.429688 494.25 632.289062 497.351562 C 633.148438 500.457031 637.632812 498.71875 639.09375 495.402344 C 640.554688 492.085938 651.710938 468.515625 653.085938 465.511719 C 654.46875 462.503906 661.25 462.277344 663.976562 466.308594 C 666.707031 470.339844 660.503906 484.84375 658.304688 489.820312 C 656.109375 494.789062 653.875 503.21875 655.320312 503.757812 C 656.765625 504.304688 680.191406 480.855469 682.125 480.863281 C 684.050781 480.875 692.148438 484.757812 683.988281 494.371094 C 675.816406 504 667.820312 510.675781 669.132812 512.644531 C 670.445312 514.609375 691.945312 503.9375 694.832031 504.816406 C 697.710938 505.695312 702.664062 511.746094 693.628906 517.863281 C 684.578125 523.980469 674.761719 526.480469 673.023438 528.386719 C 671.296875 530.292969 666.355469 539.359375 655.152344 547 C 643.949219 554.632812 638.703125 555.289062 636.585938 557.632812 C 634.460938 559.960938 632.945312 562.0625 632.945312 562.0625 L 603.9375 541.125 L 605.792969 537.386719 " fill-opacity="1" fill-rule="nonzero"/><path fill="#f8a022" d="M 771.296875 702.136719 L 537.324219 355.363281 L 685.117188 259.628906 L 920.671875 595.835938 L 771.296875 702.136719 " fill-opacity="1" fill-rule="nonzero"/><path fill="#9b4a35" d="M 395.886719 738.792969 C 395.886719 738.792969 470.15625 702.566406 519.296875 656.984375 C 568.4375 611.402344 605.484375 529.164062 605.484375 529.164062 L 643.890625 546.691406 C 643.890625 546.691406 626.394531 633.378906 563.011719 706.226562 C 499.621094 779.074219 433.671875 815.445312 433.671875 815.445312 C 433.671875 815.445312 383.597656 773.800781 395.886719 738.792969 " fill-opacity="1" fill-rule="nonzero"/><path fill="#90d8b2" d="M 480.867188 679.886719 C 480.867188 679.886719 482.597656 707.039062 497.25 727.296875 C 511.902344 747.558594 510.605469 749.410156 510.605469 749.410156 C 510.605469 749.410156 452 774.277344 441.445312 776.003906 C 430.894531 777.734375 392.761719 783.46875 393.945312 762.496094 C 395.128906 741.523438 397.539062 727.828125 397.410156 723.898438 C 397.28125 719.972656 390.816406 715.65625 405.25 707.476562 C 419.6875 699.28125 480.867188 679.886719 480.867188 679.886719 " fill-opacity="1" fill-rule="nonzero"/><path fill="#b76349" d="M 428.285156 1109.058594 C 428.285156 1109.058594 407.214844 1232.886719 397.632812 1258.730469 C 388.046875 1284.558594 367.730469 1381.5625 371.070312 1404.308594 C 346.347656 1402.996094 324.5625 1394.015625 324.5625 1394.015625 C 324.5625 1394.015625 317.261719 1318.136719 318.167969 1285.753906 C 319.074219 1253.371094 324.574219 1243.613281 326.351562 1228.675781 C 328.132812 1213.75 326.675781 1140.066406 326.675781 1140.066406 L 428.285156 1109.058594 " fill-opacity="1" fill-rule="nonzero"/><path fill="#6fcb9b" d="M 319.066406 1440.144531 C 319.066406 1440.144531 319.984375 1446.378906 320.921875 1447.761719 C 321.855469 1449.152344 328.550781 1453.203125 336.382812 1453.789062 C 344.21875 1454.375 354.277344 1453 361.644531 1454.304688 C 369.007812 1455.605469 384.144531 1463.804688 403.722656 1460.988281 C 423.292969 1458.160156 426.089844 1453.765625 428.257812 1451.191406 C 430.417969 1448.621094 432.28125 1442.035156 428.59375 1437.222656 C 424.90625 1432.398438 319.066406 1440.144531 319.066406 1440.144531 " fill-opacity="1" fill-rule="nonzero"/><path fill="#90d8b2" d="M 312.671875 1378.421875 C 312.671875 1378.421875 316.597656 1397.953125 315.378906 1406.550781 C 314.15625 1415.160156 314.539062 1430.929688 319.066406 1440.144531 C 327.664062 1446.050781 333.683594 1447.816406 342.40625 1447.265625 C 351.132812 1446.714844 357.601562 1444.046875 361.25 1445.445312 C 364.898438 1446.855469 386.550781 1456.042969 409.949219 1452.902344 C 433.34375 1449.773438 430.039062 1438.242188 427.015625 1434.144531 C 423.984375 1430.042969 398.589844 1421.511719 386.253906 1407.339844 C 373.917969 1393.164062 385.453125 1353.414062 385.453125 1353.414062 C 385.453125 1353.414062 365.0625 1349.023438 349.535156 1351.832031 C 334.007812 1354.640625 331.980469 1367.785156 331.980469 1367.785156 C 331.980469 1367.785156 314.5625 1363.097656 312.671875 1378.421875 " fill-opacity="1" fill-rule="nonzero"/><path fill="#b3e4c9" d="M 380.800781 1379.640625 C 380.800781 1379.640625 368.882812 1381.84375 359.515625 1386.234375 C 350.152344 1390.621094 345.953125 1391.570312 345.769531 1393.867188 C 345.589844 1396.164062 351.015625 1414.953125 354.542969 1416.761719 C 358.070312 1418.570312 365.140625 1413.191406 370.039062 1410.167969 C 374.9375 1407.152344 383.664062 1407.25 385.667969 1404.371094 C 387.671875 1401.5 384.070312 1394.734375 383.609375 1389.945312 C 383.148438 1385.167969 383.140625 1379.609375 380.800781 1379.640625 " fill-opacity="1" fill-rule="nonzero"/><path fill="#b76349" d="M 537.320312 1090.328125 C 537.320312 1090.328125 516.25 1214.15625 506.671875 1239.988281 C 497.089844 1265.828125 476.773438 1362.824219 480.109375 1385.570312 C 455.386719 1384.257812 433.605469 1375.285156 433.605469 1375.285156 C 433.605469 1375.285156 426.304688 1299.398438 427.207031 1267.015625 C 428.113281 1234.632812 433.613281 1224.882812 435.394531 1209.945312 C 437.175781 1195.007812 435.714844 1121.332031 435.714844 1121.332031 L 537.320312 1090.328125 " fill-opacity="1" fill-rule="nonzero"/><path fill="#6fcb9b" d="M 428.109375 1421.410156 C 428.109375 1421.410156 429.023438 1427.636719 429.964844 1429.03125 C 430.902344 1430.414062 437.59375 1434.464844 445.425781 1435.046875 C 453.257812 1435.632812 463.316406 1434.269531 470.683594 1435.574219 C 478.050781 1436.875 493.1875 1445.078125 512.761719 1442.246094 C 532.335938 1439.429688 535.132812 1435.023438 537.292969 1432.453125 C 539.460938 1429.882812 541.324219 1423.296875 537.636719 1418.484375 C 533.949219 1413.671875 428.109375 1421.410156 428.109375 1421.410156 " fill-opacity="1" fill-rule="nonzero"/><path fill="#90d8b2" d="M 421.714844 1359.695312 C 421.714844 1359.695312 425.640625 1379.214844 424.421875 1387.820312 C 423.199219 1396.417969 423.578125 1412.1875 428.109375 1421.410156 C 436.707031 1427.3125 442.726562 1429.074219 451.449219 1428.523438 C 460.175781 1427.984375 466.644531 1425.308594 470.292969 1426.71875 C 473.9375 1428.121094 495.59375 1437.300781 518.988281 1434.171875 C 542.386719 1431.042969 539.082031 1419.5 536.054688 1415.410156 C 533.027344 1411.3125 507.628906 1402.777344 495.296875 1388.601562 C 482.957031 1374.425781 494.496094 1334.6875 494.496094 1334.6875 C 494.496094 1334.6875 474.105469 1330.28125 458.574219 1333.089844 C 443.046875 1335.910156 441.023438 1349.046875 441.023438 1349.046875 C 441.023438 1349.046875 423.601562 1344.367188 421.714844 1359.695312 " fill-opacity="1" fill-rule="nonzero"/><path fill="#b3e4c9" d="M 489.839844 1360.898438 C 489.839844 1360.898438 477.925781 1363.109375 468.558594 1367.503906 C 459.191406 1371.890625 454.992188 1372.832031 454.808594 1375.128906 C 454.628906 1377.421875 460.058594 1396.214844 463.585938 1398.023438 C 467.113281 1399.832031 474.183594 1394.460938 479.082031 1391.4375 C 483.980469 1388.414062 492.707031 1388.511719 494.707031 1385.640625 C 496.710938 1382.757812 493.113281 1376.003906 492.652344 1371.21875 C 492.191406 1366.433594 492.1875 1360.871094 489.839844 1360.898438 " fill-opacity="1" fill-rule="nonzero"/><path fill="#b76349" d="M 620.695312 608.796875 C 620.695312 608.796875 619.730469 602.519531 619.296875 601.234375 C 618.871094 599.9375 612.714844 588.433594 610.96875 580.414062 C 609.230469 572.378906 610.925781 560.34375 613.757812 559.101562 C 616.59375 557.859375 622.070312 561.085938 622.371094 566.246094 C 622.671875 571.40625 626.335938 580.316406 629.773438 581.304688 C 633.21875 582.308594 635.042969 579.492188 637.261719 572.433594 C 639.484375 565.378906 648.398438 540.53125 651.710938 537.3125 C 655.027344 534.097656 663.289062 535.761719 661.929688 543.25 C 660.566406 550.734375 653.910156 571.191406 654.175781 574.402344 C 654.441406 577.609375 659.164062 576.742188 661.21875 573.753906 C 663.277344 570.765625 678.625 549.6875 680.539062 546.996094 C 682.453125 544.289062 689.160156 545.335938 691.09375 549.800781 C 693.019531 554.269531 684.226562 567.363281 681.140625 571.847656 C 678.050781 576.328125 674.292969 584.1875 675.613281 584.988281 C 676.933594 585.792969 704.316406 567.117188 706.203125 567.488281 C 708.101562 567.859375 715.332031 573.167969 705.519531 581.101562 C 695.710938 589.046875 686.609375 594.105469 687.53125 596.289062 C 688.453125 598.460938 711.566406 591.988281 714.230469 593.390625 C 716.898438 594.78125 720.648438 601.660156 710.625 605.976562 C 700.601562 610.300781 690.480469 610.933594 688.425781 612.484375 C 686.371094 614.035156 679.824219 622.019531 667.398438 627.4375 C 654.964844 632.855469 649.695312 632.527344 647.175781 634.421875 C 644.660156 636.320312 642.769531 638.101562 642.769531 638.101562 L 618.179688 612.128906 L 620.695312 608.796875 " fill-opacity="1" fill-rule="nonzero"/><path fill="#b76349" d="M 466.980469 538.039062 C 466.980469 538.039062 474.453125 553.535156 482.351562 562.484375 C 490.253906 571.441406 516.417969 585.578125 513.171875 624.484375 C 509.921875 663.390625 476.703125 708.425781 417.40625 733.15625 C 358.105469 757.894531 314.644531 739.28125 296.882812 730.289062 C 279.113281 721.300781 270.304688 714.8125 270.304688 714.8125 C 270.304688 714.8125 267.984375 729.523438 255.925781 733.214844 C 243.859375 736.914062 217.414062 736.710938 198.6875 712.703125 C 179.960938 688.699219 195.347656 676.546875 199.234375 671.414062 C 203.125 666.289062 206.867188 665.136719 206.867188 665.136719 C 206.867188 665.136719 129.992188 631.976562 127.121094 545.371094 C 124.25 458.765625 220.039062 383.339844 320.648438 390.996094 C 421.257812 398.65625 445.324219 465.351562 450.09375 484.886719 C 454.863281 504.417969 461.824219 528.421875 466.980469 538.039062 " fill-opacity="1" fill-rule="nonzero"/><path fill="#9a4d39" d="M 215.742188 711.453125 C 215.742188 711.453125 205.9375 705.59375 210.550781 693.921875 C 215.164062 682.246094 240.3125 691.082031 247.050781 699.339844 C 253.792969 707.601562 251.652344 719.9375 237.722656 714.753906 C 223.792969 709.578125 221.40625 704.1875 220.355469 699.769531 C 219.308594 695.355469 219.953125 693.769531 219.953125 693.769531 C 219.953125 693.769531 214.257812 693.964844 213.375 700.46875 C 212.5 706.96875 215.742188 711.453125 215.742188 711.453125 " fill-opacity="1" fill-rule="nonzero"/><path fill="#322421" d="M 424.671875 524.851562 C 424.671875 524.851562 415.804688 529.085938 419.734375 542.898438 C 423.660156 556.71875 429.480469 571.769531 439.324219 570.722656 C 449.164062 569.679688 452.917969 556.699219 449.394531 545.183594 C 445.871094 533.675781 440.628906 522.996094 433.933594 522.925781 C 427.238281 522.855469 424.671875 524.851562 424.671875 524.851562 " fill-opacity="1" fill-rule="nonzero"/><path fill="#d34a45" d="M 321.621094 671.742188 C 317.859375 671.742188 315.230469 670.289062 315.042969 666.46875 C 314.5625 656.558594 338.355469 644.6875 338.355469 644.6875 C 341.332031 643.054688 348.828125 639.207031 354.328125 639.207031 C 357.089844 639.207031 359.347656 640.175781 360.277344 642.878906 C 363.066406 650.972656 353.480469 658.0625 342.984375 664.234375 C 336.53125 668.019531 327.628906 671.742188 321.621094 671.742188 " fill-opacity="1" fill-rule="nonzero"/><path fill="#d34a45" d="M 450.226562 592.875 C 446.714844 592.875 444.109375 591.359375 443.726562 587.328125 C 442.792969 577.554688 462.058594 567.160156 462.058594 567.160156 C 464.359375 565.777344 470.03125 562.609375 474.546875 562.609375 C 477.105469 562.609375 479.296875 563.632812 480.296875 566.554688 C 483.054688 574.65625 475.417969 581.113281 466.96875 586.617188 C 462.015625 589.835938 455.203125 592.875 450.226562 592.875 " fill-opacity="1" fill-rule="nonzero"/><path fill="#6d6362" d="M 429.984375 540.023438 C 425.621094 540.023438 422.054688 537.976562 421.550781 534.910156 C 420.964844 531.3125 424.828125 527.6875 430.195312 526.808594 C 430.992188 526.675781 431.777344 526.613281 432.539062 526.613281 C 436.894531 526.613281 440.46875 528.667969 440.96875 531.726562 C 441.558594 535.328125 437.6875 538.953125 432.328125 539.828125 C 431.53125 539.960938 430.746094 540.023438 429.984375 540.023438 " fill-opacity="1" fill-rule="nonzero"/><path fill="#ffffff" d="M 434.050781 537.464844 C 433.230469 534.777344 434.738281 531.941406 437.414062 531.117188 C 440.097656 530.292969 442.9375 531.800781 443.757812 534.484375 C 444.578125 537.164062 443.070312 540.007812 440.390625 540.832031 C 437.710938 541.648438 434.871094 540.140625 434.050781 537.464844 " fill-opacity="1" fill-rule="nonzero"/><path fill="#ffffff" d="M 438.753906 545.652344 C 438.515625 544.863281 438.957031 544.035156 439.742188 543.792969 C 440.527344 543.550781 441.363281 543.996094 441.601562 544.777344 C 441.84375 545.5625 441.398438 546.398438 440.613281 546.636719 C 439.828125 546.875 438.996094 546.433594 438.753906 545.652344 " fill-opacity="1" fill-rule="nonzero"/><path fill="#322421" d="M 301.382812 632.730469 C 301.382812 632.730469 290.589844 624.203125 290.761719 611.410156 C 290.9375 598.609375 309.847656 590.542969 323.769531 609.257812 C 337.6875 627.96875 334.640625 637.320312 327.789062 641.703125 C 320.941406 646.070312 308.664062 641.566406 301.382812 632.730469 " fill-opacity="1" fill-rule="nonzero"/><path fill="#6d6362" d="M 297.78125 617.410156 C 296.234375 617.410156 294.859375 616.921875 293.886719 615.914062 C 291.367188 613.28125 292.503906 608.097656 296.429688 604.335938 C 298.839844 602.035156 301.742188 600.789062 304.207031 600.789062 C 305.753906 600.789062 307.128906 601.277344 308.101562 602.296875 C 310.621094 604.933594 309.480469 610.109375 305.554688 613.867188 C 303.144531 616.179688 300.246094 617.410156 297.78125 617.410156 " fill-opacity="1" fill-rule="nonzero"/><path fill="#ffffff" d="M 310.042969 612.183594 C 308.4375 609.875 309.007812 606.710938 311.308594 605.109375 C 313.605469 603.503906 316.769531 604.070312 318.375 606.375 C 319.976562 608.671875 319.410156 611.847656 317.109375 613.441406 C 314.808594 615.046875 311.644531 614.476562 310.042969 612.183594 " fill-opacity="1" fill-rule="nonzero"/><path fill="#ffffff" d="M 317.03125 618.535156 C 316.558594 617.863281 316.726562 616.933594 317.402344 616.460938 C 318.074219 615.996094 319 616.160156 319.472656 616.835938 C 319.941406 617.507812 319.777344 618.441406 319.101562 618.910156 C 318.425781 619.382812 317.496094 619.210938 317.03125 618.535156 " fill-opacity="1" fill-rule="nonzero"/><path fill="#9a4d39" d="M 397.125 612.671875 C 397.125 612.671875 389.71875 608.035156 403.039062 599.175781 C 415.734375 590.738281 420.226562 591.980469 421.46875 594.550781 C 422.714844 597.128906 425.503906 596.695312 425.789062 595.84375 C 426.34375 594.199219 427.214844 593.929688 421.738281 589.046875 C 416.257812 584.164062 400.195312 590.261719 394.039062 598.75 C 387.882812 607.234375 389.863281 612.734375 393.589844 613.75 C 397.3125 614.769531 397.125 612.671875 397.125 612.671875 " fill-opacity="1" fill-rule="nonzero"/><path fill="#3f3029" d="M 220.5625 633.28125 L 197.367188 673.636719 L 214.394531 666.589844 L 230.386719 649.4375 L 220.5625 633.28125 " fill-opacity="1" fill-rule="nonzero"/><path fill="#431e18" d="M 387.535156 417.835938 C 387.535156 417.835938 409.855469 452.222656 385.90625 496.570312 C 361.953125 540.921875 298.378906 557.671875 298.378906 557.671875 C 298.378906 557.671875 338.019531 536.535156 348.730469 519.300781 C 359.441406 502.066406 362.324219 480.347656 362.324219 480.347656 C 362.324219 480.347656 331.117188 526.382812 312.453125 539.464844 C 293.789062 552.550781 265.953125 567.117188 265.953125 567.117188 C 265.953125 567.117188 262.953125 554.769531 272.832031 526.605469 C 282.710938 498.433594 305.125 474.109375 305.125 474.109375 C 305.125 474.109375 289.316406 486.671875 261.355469 533.226562 C 233.390625 579.78125 230.226562 618.316406 230.226562 618.316406 C 230.226562 618.316406 221.121094 591.066406 229.558594 558.234375 C 237.992188 525.390625 243.3125 516.417969 243.3125 516.417969 C 243.3125 516.417969 218.398438 545.460938 218.773438 590.597656 C 219.144531 635.742188 242.054688 677.664062 242.054688 677.664062 C 242.054688 677.664062 214.578125 676.957031 202.996094 639.023438 C 191.414062 601.089844 189.429688 569.179688 189.429688 569.179688 C 189.429688 569.179688 190.207031 609.78125 199.335938 637.332031 C 208.464844 664.882812 218.347656 672.363281 218.347656 672.363281 C 218.347656 672.363281 203.390625 672.445312 198.816406 674.976562 C 194.242188 677.511719 189.605469 690.570312 189.605469 690.570312 C 189.605469 690.570312 100.578125 625.671875 104.367188 551.113281 C 108.164062 476.546875 161.734375 442.347656 161.734375 442.347656 C 161.734375 442.347656 213 361.308594 334.449219 363.011719 C 484.621094 365.121094 454.753906 502.742188 454.753906 502.742188 L 434.6875 478.710938 C 434.6875 478.710938 434.617188 460.078125 423.0625 443.03125 C 411.503906 425.984375 397.6875 418.902344 397.6875 418.902344 C 397.6875 418.902344 410.945312 428.28125 422.636719 451.105469 C 434.328125 473.933594 415.085938 512.109375 415.085938 512.109375 C 415.085938 512.109375 423.789062 475.464844 415.484375 453.6875 C 407.183594 431.90625 387.535156 417.835938 387.535156 417.835938 " fill-opacity="1" fill-rule="nonzero"/><path fill="#301312" d="M 375.355469 398.035156 C 375.355469 398.035156 410.1875 430.761719 398.121094 471.875 C 386.050781 512.988281 353.28125 531.625 353.28125 531.625 C 353.28125 531.625 393.257812 488.851562 394.484375 458.988281 C 395.714844 429.121094 376.164062 403.335938 376.164062 403.335938 C 376.164062 403.335938 386.738281 425.222656 384.882812 449.40625 C 383.03125 473.597656 374.257812 485.125 374.257812 485.125 C 374.257812 485.125 386.875 462.417969 380.679688 433.085938 C 374.484375 403.761719 368.769531 395.402344 368.769531 395.402344 L 375.355469 398.035156 " fill-opacity="1" fill-rule="nonzero"/><path fill="#301312" d="M 265.953125 567.117188 C 265.953125 567.117188 258.035156 529.523438 302.398438 471.664062 C 346.761719 413.8125 357.246094 407.785156 357.246094 407.785156 C 357.246094 407.785156 336.910156 437.074219 321.265625 466.125 C 305.621094 495.171875 286.328125 541.808594 286.328125 541.808594 C 286.328125 541.808594 294.492188 508.519531 307.261719 482.070312 C 320.03125 455.628906 329.871094 443.933594 329.871094 443.933594 C 329.871094 443.933594 307.523438 467.011719 288.757812 502.140625 C 269.988281 537.277344 265.953125 567.117188 265.953125 567.117188 " fill-opacity="1" fill-rule="nonzero"/><path fill="#301312" d="M 243.3125 516.417969 C 243.3125 516.417969 263.136719 469.277344 293.308594 437.617188 C 323.480469 405.941406 344.140625 395.515625 344.140625 395.515625 C 344.140625 395.515625 281.050781 421.605469 238.574219 494.488281 C 196.09375 567.363281 210.390625 609.238281 216.265625 631.648438 C 222.140625 654.050781 242.054688 677.664062 242.054688 677.664062 C 242.054688 677.664062 200.621094 597.5 243.3125 516.417969 " fill-opacity="1" fill-rule="nonzero"/><path fill="#301312" d="M 390.832031 414.777344 C 390.832031 414.777344 419.808594 431.382812 426.28125 448.339844 C 432.753906 465.300781 434.6875 478.710938 434.6875 478.710938 L 443.375 474.234375 C 443.375 474.234375 448.496094 457.25 434.886719 427.039062 C 421.269531 396.828125 383.070312 386.378906 383.070312 386.378906 C 383.070312 386.378906 414.679688 400.6875 427.175781 422.039062 C 439.671875 443.402344 438.730469 471.164062 438.730469 471.164062 C 438.730469 471.164062 434.363281 431.488281 390.832031 414.777344 " fill-opacity="1" fill-rule="nonzero"/><path fill="#301312" d="M 189.429688 569.179688 C 189.429688 569.179688 185.65625 538.003906 193.988281 513.113281 C 202.320312 488.222656 211.511719 470.875 211.511719 470.875 C 211.511719 470.875 169.386719 518.210938 159 569.535156 C 148.617188 620.859375 187.664062 667.105469 187.664062 667.105469 C 187.664062 667.105469 168.027344 630.519531 164.984375 601.304688 C 161.9375 572.078125 180.183594 535.566406 180.183594 535.566406 C 180.183594 535.566406 174.074219 570.730469 184.921875 621.558594 C 195.769531 672.382812 211.078125 672.664062 211.078125 672.664062 L 218.347656 672.363281 C 218.347656 672.363281 192.777344 632.554688 189.429688 569.179688 " fill-opacity="1" fill-rule="nonzero"/><path fill="#301312" d="M 358.867188 381.148438 C 358.867188 381.148438 322.75 387.050781 288.769531 413.523438 C 254.796875 439.992188 227.597656 488.871094 227.597656 488.871094 C 227.597656 488.871094 253.722656 426.136719 289.023438 402.511719 C 324.328125 378.878906 350.269531 377.183594 350.269531 377.183594 C 350.269531 377.183594 330.0625 367.949219 287.066406 380.644531 C 244.074219 393.34375 213.847656 417.136719 213.847656 417.136719 C 213.847656 417.136719 238.832031 391.566406 285.675781 377.273438 C 332.515625 362.976562 349.863281 372.179688 349.863281 372.179688 C 349.863281 372.179688 333.105469 365.414062 323.492188 365.011719 C 313.878906 364.625 292.808594 368.25 292.808594 368.25 C 292.808594 368.25 310.808594 362.621094 330.6875 362.949219 C 350.5625 363.277344 363.261719 375.246094 363.261719 375.246094 C 363.261719 375.246094 367.03125 371.734375 380.917969 373.585938 C 394.800781 375.441406 413.398438 384.480469 425.839844 396.730469 C 438.285156 408.984375 444.542969 422.765625 444.542969 422.765625 C 444.542969 422.765625 430.246094 399.566406 409.957031 387.539062 C 389.664062 375.507812 366.054688 380.296875 366.054688 380.296875 C 366.054688 380.296875 379.109375 384.917969 392.421875 393.238281 C 405.734375 401.5625 410.820312 408.0625 410.820312 408.0625 C 410.820312 408.0625 392.535156 394.878906 384.425781 390.617188 C 376.316406 386.351562 363.042969 383.230469 363.042969 383.230469 C 363.042969 383.230469 367.660156 391.34375 369.613281 405.628906 C 371.570312 419.921875 357.882812 452.675781 357.882812 452.675781 C 357.882812 452.675781 368.332031 418.574219 367.15625 406.511719 C 365.976562 394.4375 358.867188 381.148438 358.867188 381.148438 " fill-opacity="1" fill-rule="nonzero"/><path fill="#301312" d="M 173.371094 595.199219 C 173.371094 595.199219 176.753906 622.074219 187.996094 646.742188 C 199.234375 671.414062 205.609375 673.210938 205.609375 673.210938 C 205.609375 673.210938 197.160156 676.132812 193.738281 681.316406 C 190.316406 686.492188 189.605469 690.570312 189.605469 690.570312 C 189.605469 690.570312 119.796875 638.046875 111.0625 577.316406 C 102.324219 516.589844 136.417969 474.109375 136.417969 474.109375 C 136.417969 474.109375 114.503906 511.90625 123.671875 570.96875 C 132.84375 630.035156 187.699219 672.65625 187.699219 672.65625 C 187.699219 672.65625 167.675781 610.585938 173.371094 595.199219 " fill-opacity="1" fill-rule="nonzero"/><path fill="#431e18" d="M 425.84375 396.730469 C 425.84375 396.730469 451.953125 373.414062 436.625 355.175781 C 421.300781 336.9375 395.933594 343.144531 395.933594 343.144531 C 395.933594 343.144531 405.394531 297.269531 384.050781 292.125 C 362.707031 286.992188 349.652344 300.351562 349.652344 300.351562 C 349.652344 300.351562 349.191406 274.070312 333.753906 272.714844 C 318.3125 271.351562 311.148438 286.085938 311.148438 286.085938 C 311.148438 286.085938 304.027344 235.875 258.398438 250.761719 C 212.765625 265.660156 221.871094 305.503906 221.871094 305.503906 C 221.871094 305.503906 204.746094 289.144531 188.492188 295.308594 C 172.234375 301.46875 174.960938 326.890625 174.960938 326.890625 C 174.960938 326.890625 152.589844 290.871094 112.933594 313.128906 C 73.273438 335.371094 89.972656 369.9375 89.972656 369.9375 C 89.972656 369.9375 54.304688 360.601562 45.019531 380.957031 C 35.738281 401.316406 57.144531 423.261719 57.144531 423.261719 C 57.144531 423.261719 19.3125 424.460938 16.984375 446.953125 C 14.65625 469.4375 38.566406 478.605469 38.566406 478.605469 C 38.566406 478.605469 0.417969 485.796875 3.96875 530.082031 C 7.523438 574.363281 51.941406 567.851562 51.941406 567.851562 C 51.941406 567.851562 39.03125 587.726562 51.304688 601.085938 C 63.578125 614.445312 84.0625 601.875 84.0625 601.875 C 84.0625 601.875 52.585938 642.550781 116.996094 663.421875 C 136.074219 669.609375 149.835938 653.675781 149.835938 653.675781 C 149.835938 653.675781 126.773438 509.648438 203.207031 448.9375 C 279.636719 388.230469 366.929688 365.9375 366.929688 365.9375 L 425.84375 396.730469 " fill-opacity="1" fill-rule="nonzero"/><path fill="#90d8b2" d="M 447.46875 424.230469 C 447.46875 424.230469 406.980469 333.441406 274.035156 415.214844 C 141.089844 496.988281 189.605469 690.570312 189.605469 690.570312 L 149.835938 653.6875 C 149.835938 653.6875 76.238281 533.667969 216.863281 411.027344 C 344.105469 300.058594 430.84375 382.28125 447.46875 424.230469 " fill-opacity="1" fill-rule="nonzero"/><path fill="#301312" d="M 89.992188 414.425781 C 89.992188 414.425781 66.742188 417.226562 61.726562 435.359375 C 56.707031 453.5 83.773438 461.476562 83.773438 461.476562 C 83.773438 461.476562 66.648438 474.988281 68.273438 488.796875 C 69.902344 502.617188 96.882812 498.46875 96.882812 498.46875 C 96.882812 498.46875 72.960938 512.28125 60.589844 492.316406 C 48.21875 472.351562 71.371094 464.449219 71.371094 464.449219 C 71.371094 464.449219 49.5625 457.105469 51.964844 436.355469 C 54.371094 415.601562 89.992188 414.425781 89.992188 414.425781 " fill-opacity="1" fill-rule="nonzero"/><path fill="#301312" d="M 91.652344 532.851562 C 91.652344 532.851562 79.539062 543.914062 79.980469 560.957031 C 80.425781 578 105.085938 568.308594 105.085938 568.308594 C 105.085938 568.308594 105.402344 577.550781 109.429688 588.050781 C 113.453125 598.550781 131.636719 594.230469 131.636719 594.230469 L 136.644531 622.828125 C 136.644531 622.828125 122.542969 632.003906 105.722656 613.011719 C 88.902344 594.027344 98.78125 578.859375 98.78125 578.859375 C 98.78125 578.859375 75.128906 587.824219 73.089844 568.152344 C 71.046875 548.484375 91.652344 532.851562 91.652344 532.851562 " fill-opacity="1" fill-rule="nonzero"/><path fill="#301312" d="M 210.09375 417.085938 C 209.597656 415.984375 211.417969 390.640625 189.726562 395.261719 C 168.03125 399.878906 168.953125 426.109375 168.953125 426.109375 C 168.953125 426.109375 156.226562 415.773438 143.691406 431.347656 C 131.15625 446.921875 147.839844 459.242188 147.839844 459.242188 C 147.839844 459.242188 125.304688 446.523438 138.273438 426.835938 C 151.246094 407.136719 164.816406 416.773438 164.816406 416.773438 C 164.816406 416.773438 169.570312 378.550781 201.609375 379.03125 C 233.652344 379.507812 231.152344 399.230469 231.152344 399.230469 L 210.09375 417.085938 " fill-opacity="1" fill-rule="nonzero"/><path fill="#301312" d="M 219.386719 331.703125 C 219.386719 331.703125 217.984375 312.992188 198.644531 322.128906 C 179.308594 331.257812 187.527344 349.796875 187.527344 349.796875 C 187.527344 349.796875 171.199219 330.488281 147.132812 341.53125 C 123.066406 352.578125 147.109375 379.542969 147.109375 379.542969 C 147.109375 379.542969 113.398438 355.625 144.15625 337.375 C 174.90625 319.117188 182.355469 337.722656 182.355469 337.722656 C 182.355469 337.722656 177.40625 316.347656 203.644531 312.015625 C 229.882812 307.679688 219.386719 331.703125 219.386719 331.703125 " fill-opacity="1" fill-rule="nonzero"/><path fill="#301312" d="M 266.332031 346.777344 C 266.332031 346.777344 257.957031 321.492188 289.25 315.242188 C 320.542969 308.992188 321.945312 336.925781 321.945312 336.925781 C 321.945312 336.925781 335.269531 321.84375 353.835938 330.441406 C 372.402344 339.042969 354.804688 356.300781 354.804688 356.300781 L 373.664062 360.289062 C 373.664062 360.289062 389.523438 331.347656 363.652344 319.105469 C 337.777344 306.871094 324.074219 329.945312 324.074219 329.945312 C 324.074219 329.945312 332.242188 293.328125 292.457031 303.601562 C 252.667969 313.875 263.894531 339.28125 266.332031 346.777344 " fill-opacity="1" fill-rule="nonzero"/><path fill="#b76349" d="M 447.332031 772.070312 C 447.332031 772.070312 434.875 765.828125 427.449219 750.359375 C 420.023438 734.898438 415.6875 719.308594 415.6875 719.308594 L 360.625 733.125 C 360.625 733.125 365.957031 754.09375 364.890625 760.234375 C 363.828125 766.390625 359.777344 777.0625 359.777344 777.0625 C 359.777344 777.0625 403.242188 819.59375 431.652344 815.609375 C 460.058594 811.632812 468.878906 797.371094 447.332031 772.070312 " fill-opacity="1" fill-rule="nonzero"/><path fill="#9a4d39" d="M 419.867188 732.109375 C 419.867188 732.109375 407.222656 738.359375 392.148438 741.285156 C 377.074219 744.21875 363.363281 745.414062 363.363281 745.414062 L 365.023438 757.789062 C 365.023438 757.789062 377.464844 767.042969 402.695312 766.707031 C 427.925781 766.367188 431.460938 757.277344 431.460938 757.277344 C 431.460938 757.277344 424.972656 746.824219 419.867188 732.109375 " fill-opacity="1" fill-rule="nonzero"/><path fill="#66121b" d="M 439.296875 638.078125 C 439.296875 638.078125 431.109375 648.207031 434.984375 658.765625 C 438.863281 669.324219 456.53125 652.300781 454.804688 649.714844 C 453.082031 647.125 450.257812 647.84375 447.46875 643.394531 C 444.679688 638.933594 443.171875 635.484375 439.296875 638.078125 " fill-opacity="1" fill-rule="nonzero"/><path fill="#652d21" d="M 277.496094 609.273438 C 277.496094 609.273438 287.839844 597.554688 294.515625 583.339844 C 301.195312 569.109375 299.6875 563.230469 297.53125 562.609375 C 295.378906 562 288.804688 567.605469 288.429688 569.542969 C 288.054688 571.484375 286.332031 583.761719 282.667969 591.09375 C 279.003906 598.425781 269.523438 613.699219 271.25 614.035156 C 272.972656 614.371094 277.496094 609.273438 277.496094 609.273438 " fill-opacity="1" fill-rule="nonzero"/><path fill="#652d21" d="M 435.644531 515.765625 C 435.644531 515.765625 422.03125 518.148438 408.402344 516.554688 C 394.769531 514.964844 391.234375 511.054688 391.84375 509.121094 C 392.457031 507.191406 399.765625 504.816406 401.359375 505.433594 C 402.957031 506.054688 412.742188 510.515625 419.871094 511.164062 C 427.003906 511.816406 442.777344 511.765625 442.175781 513.238281 C 441.574219 514.707031 435.644531 515.765625 435.644531 515.765625 " fill-opacity="1" fill-rule="nonzero"/><path fill="#90d8b2" d="M 362.398438 769.542969 C 362.398438 769.542969 350.03125 778.160156 344.140625 805.3125 C 338.25 832.472656 332.15625 905.3125 327.769531 956.175781 C 323.375 1007.039062 258.824219 1186.058594 258.824219 1186.058594 C 258.824219 1186.058594 308.796875 1236.636719 431.460938 1233.1875 C 554.128906 1229.738281 610.265625 1190.65625 610.265625 1190.65625 C 610.265625 1190.65625 550.679688 998.707031 546.082031 956.175781 C 541.488281 913.644531 523.515625 780.164062 518.917969 761.050781 C 514.324219 741.9375 362.398438 769.542969 362.398438 769.542969 " fill-opacity="1" fill-rule="nonzero"/><path fill="#b76349" d="M 376.96875 767.59375 C 376.96875 767.59375 456.683594 745.832031 513.449219 710.203125 C 570.214844 674.570312 621.921875 600.664062 621.921875 600.664062 L 656.390625 625.042969 C 656.390625 625.042969 623.070312 706.953125 547.234375 766.714844 C 471.398438 826.488281 399.832031 849.945312 399.832031 849.945312 C 399.832031 849.945312 358.382812 799.699219 376.96875 767.59375 " fill-opacity="1" fill-rule="nonzero"/><path fill="#b3e4c9" d="M 435.773438 745.496094 C 435.773438 745.496094 439.917969 760.203125 447.46875 782.324219 C 455.019531 804.449219 466.957031 819.484375 466.957031 819.484375 C 466.957031 819.484375 426.515625 847.839844 393.945312 857.035156 C 361.375 866.234375 333.171875 821.769531 347.273438 794 C 361.375 766.238281 376.96875 767.59375 435.773438 745.496094 " fill-opacity="1" fill-rule="nonzero"/><path fill="#6fcb9b" d="M 327.769531 956.175781 C 327.769531 956.175781 369.195312 973.992188 439.941406 971.699219 C 510.6875 969.390625 546.082031 956.175781 546.082031 956.175781 L 551.011719 982.226562 C 551.011719 982.226562 528.6875 998.132812 434.546875 998.132812 C 340.40625 998.132812 323.195312 982.175781 323.195312 982.175781 L 327.769531 956.175781 " fill-opacity="1" fill-rule="nonzero"/><path fill="#f04228" d="M 720.734375 1233.359375 L 1147.027344 1233.359375 L 1110.261719 1417.125 L 720.734375 1360.898438 L 720.734375 1233.359375 " fill-opacity="1" fill-rule="nonzero"/><path fill="#f8a022" d="M 938.480469 1233.359375 L 933.882812 1090.328125 L 1103.941406 1085.480469 L 1103.941406 1233.359375 L 938.480469 1233.359375 " fill-opacity="1" fill-rule="nonzero"/><path fill="#b0d43e" d="M 798.007812 1147.550781 L 1132.378906 1005.308594 L 1074.636719 904.453125 L 762.679688 1044.972656 L 798.007812 1147.550781 " fill-opacity="1" fill-rule="nonzero"/><path fill="#a5e0cf" d="M 819.445312 1019.394531 L 754.054688 858.269531 L 925.269531 783.761719 L 994.09375 940.734375 L 819.445312 1019.394531 " fill-opacity="1" fill-rule="nonzero"/><path fill="#f04228" d="M 690.285156 858.269531 L 1084.976562 749.410156 L 1031.550781 614.035156 L 656.390625 736.148438 L 690.285156 858.269531 " fill-opacity="1" fill-rule="nonzero"/><path fill="#a5e0cf" d="M 790.832031 1404.308594 C 790.832031 1381.136719 772.050781 1362.351562 748.886719 1362.351562 C 725.726562 1362.351562 706.949219 1381.136719 706.949219 1404.308594 C 706.949219 1427.472656 725.726562 1446.253906 748.886719 1446.253906 C 772.050781 1446.253906 790.832031 1427.472656 790.832031 1404.308594 " fill-opacity="1" fill-rule="nonzero"/></svg>