<svg xmlns="http://www.w3.org/2000/svg" xmlns:xlink="http://www.w3.org/1999/xlink" width="1587" zoomAndPan="magnify"
    viewBox="0 0 1190.25 1683.749945" height="2245" preserveAspectRatio="xMidYMid meet" version="1.0">
    <path fill="#000000"
        d="M 732.75 642.179688 C 701.671875 633.25 671.585938 620.390625 639.097656 617.183594 C 638.5625 617.109375 638.105469 616.992188 637.609375 616.878906 C 637.152344 616.992188 636.65625 617.109375 636.121094 617.183594 C 608.972656 619.816406 582.546875 625.351562 556.691406 633.480469 C 594.214844 649.199219 633.644531 659.429688 672.691406 670.609375 C 692.636719 659.808594 712.199219 649.660156 732.75 642.179688 Z M 531.523438 641.757812 C 526.871094 639.546875 526.109375 635.273438 527.59375 631.648438 C 527.480469 627.945312 529.195312 624.015625 533.660156 622.414062 C 555.089844 614.664062 580.523438 604.628906 603.480469 605.203125 C 625.0625 605.773438 646.53125 606.691406 668.078125 608.253906 C 688.707031 609.742188 707.964844 617.109375 727.945312 622.945312 C 744.839844 627.832031 779.847656 639.433594 752.277344 657.214844 C 745.601562 661.449219 731.570312 661.679688 723.789062 664.65625 C 708.382812 670.570312 693.742188 679.5 679.289062 687.359375 C 677.34375 688.429688 675.476562 688.695312 673.757812 688.429688 C 672.464844 688.695312 671.050781 688.695312 669.414062 688.238281 C 622.699219 674.84375 575.71875 662.519531 531.523438 641.757812 "
        fill-opacity="1" fill-rule="nonzero" />
    <path fill="#000000"
        d="M 44.792969 1021.378906 C 45.019531 1010.960938 38.539062 1003.941406 29.042969 1002.335938 C 27.363281 1010.769531 25.800781 1019.242188 24.3125 1027.675781 C 24.617188 1027.789062 24.847656 1027.867188 25.152344 1027.980469 C 33.734375 1032.371094 44.484375 1033.054688 44.792969 1021.378906 Z M 44.90625 939.257812 C 69.042969 947.996094 84.144531 893.007812 80.027344 867.25 C 64.355469 889.496094 53.21875 913.84375 44.90625 939.257812 Z M 657.058594 1103.804688 C 659.269531 1080.527344 651.71875 1047.136719 622.28125 1046.566406 C 593.296875 1046.03125 570.226562 1070.835938 566.261719 1098.578125 C 562.753906 1123.382812 576.253906 1177.300781 612.402344 1163.90625 C 636.734375 1154.902344 652.480469 1128.378906 657.058594 1103.804688 Z M 667.582031 1059.652344 C 667.773438 1059.578125 668 1059.578125 668.191406 1059.578125 C 664.53125 1046.71875 657.667969 1035.308594 644.742188 1027.636719 C 625.675781 1016.265625 604.433594 1013.175781 585.0625 1026.1875 C 554.59375 1046.679688 531.523438 1087.433594 532.019531 1124.679688 C 532.550781 1173.792969 574.382812 1212.410156 624.226562 1192.757812 C 653.398438 1181.234375 665.789062 1153.492188 669.71875 1124.257812 C 658.925781 1153.527344 633.222656 1186.996094 601.6875 1183.179688 C 562.03125 1178.410156 543.117188 1135.59375 548.300781 1099.226562 C 553.753906 1061.027344 584.871094 1024.585938 626.359375 1029.164062 C 646.457031 1031.378906 659.917969 1043.625 667.582031 1059.652344 Z M 692.519531 1073.429688 C 697.632812 1071.789062 702.777344 1070.109375 707.964844 1068.429688 C 702.246094 1028.4375 709.03125 978.714844 685.3125 944.675781 C 655.378906 901.859375 593.296875 892.550781 544.792969 894.839844 C 494.535156 897.242188 440.042969 908.234375 396.304688 934.449219 C 363.089844 954.253906 332.734375 986.195312 294.410156 996.078125 C 261.730469 1004.550781 229.738281 997.910156 197.859375 989.246094 C 170.554688 981.808594 139.589844 972.878906 117.585938 954.140625 C 98.40625 937.769531 90.511719 914.566406 104.738281 891.75 C 116.671875 872.589844 133.144531 857.976562 147.0625 840.421875 C 157.589844 827.066406 168.191406 813.785156 178.867188 800.660156 C 146.492188 811.078125 115.71875 825.121094 93.183594 850.535156 C 110.417969 882.703125 83.992188 974.480469 39.605469 956.8125 C 36.972656 966.085938 34.722656 975.511719 32.625 984.9375 C 50.738281 988.523438 64.660156 1004.015625 62.371094 1023.746094 C 61.304688 1033.171875 56.574219 1042.136719 47.765625 1046.488281 C 39.109375 1050.722656 29.730469 1049.234375 21.226562 1045.726562 C 20.613281 1049.273438 20.042969 1052.785156 19.433594 1056.296875 C 80.863281 1105.597656 163.003906 1143.414062 240.1875 1158.945312 C 318.28125 1174.667969 399.046875 1167.191406 477.753906 1159.632812 C 479.777344 1090.640625 503.570312 1013.824219 569.695312 984.898438 C 599.476562 971.847656 638.640625 969.902344 665.257812 989.820312 C 691.910156 1009.816406 692.40625 1042.902344 692.519531 1073.429688 Z M 826.0625 621.878906 C 826.710938 622.105469 827.398438 622.375 828.007812 622.601562 C 826.902344 609.820312 822.859375 597.609375 818.4375 585.511719 C 807.875 584.136719 797.347656 582.953125 786.824219 581.847656 C 788.921875 591.539062 791.4375 601.042969 792.964844 610.886719 C 804.023438 614.398438 815.082031 618.0625 826.0625 621.878906 Z M 960.214844 677.628906 C 959.683594 656.296875 956.402344 635.195312 950.644531 614.550781 C 950.226562 613.175781 950.1875 611.878906 950.378906 610.695312 C 913.730469 600.773438 876.09375 593.601562 838.265625 588.183594 C 842.726562 601.347656 846.121094 614.742188 846.234375 628.707031 C 873.996094 638.019531 902.445312 647.101562 928.296875 659.960938 C 939.242188 665.382812 949.769531 671.410156 960.214844 677.628906 Z M 1028.4375 1031.492188 C 1012.382812 1018.9375 1000.484375 999.703125 993.964844 978.714844 C 983.707031 981.3125 973.714844 984.476562 963.800781 987.988281 C 971.351562 1015.3125 999.835938 1028.859375 1028.4375 1031.492188 Z M 1014.976562 709.496094 C 1015.167969 709.496094 1015.394531 709.496094 1015.660156 709.496094 C 1015.394531 682.402344 1013.753906 655.6875 1006.128906 629.433594 C 1006.015625 629.089844 1006.015625 628.785156 1005.9375 628.441406 C 993.964844 624.015625 981.800781 619.855469 969.519531 616.152344 C 975.507812 639.738281 978.597656 664.007812 978.0625 688.429688 C 990.1875 695.71875 1002.316406 703.007812 1014.976562 709.496094 Z M 1056.273438 630.195312 C 1065.617188 618.558594 1077.628906 609.4375 1089.640625 600.46875 C 1040.675781 585.777344 994.957031 564.027344 943.894531 555.363281 C 889.859375 546.167969 833.691406 534.339844 778.855469 535.828125 C 778.207031 535.828125 777.597656 535.789062 777.0625 535.710938 C 758.988281 540.789062 742.285156 548.800781 726.230469 558.265625 C 837.847656 567.386719 954.039062 582.609375 1056.273438 630.195312 Z M 1108.058594 1012.105469 C 1138.679688 979.402344 1151.074219 929.070312 1135.285156 887.015625 C 1119.878906 845.804688 1077.207031 826.53125 1043.957031 863.203125 C 1018.027344 891.824219 1008.339844 924.300781 1007.882812 962.039062 C 1008.113281 962.574219 1008.339844 963.222656 1008.453125 963.871094 C 1017.835938 1005.503906 1068.703125 1054.121094 1108.058594 1012.105469 Z M 1153.015625 886.710938 C 1166.097656 798.75 1100.203125 726.207031 1010.78125 727.277344 C 1007.386719 727.277344 1005.0625 725.789062 1003.648438 723.652344 C 975.011719 708.578125 948.890625 688.429688 919.300781 675.378906 C 887.609375 661.414062 854.089844 650.382812 821.375 639.125 C 755.898438 616.648438 687.222656 596.347656 617.285156 598.449219 C 544.601562 600.621094 477.601562 624.128906 413.652344 657.597656 C 387.265625 671.410156 357.332031 681.21875 333.308594 699.191406 C 306.957031 718.957031 287.164062 746.738281 263.980469 770.054688 C 263.636719 773.222656 261.769531 776.238281 257.917969 777.496094 C 242.320312 782.6875 225.808594 787.074219 209.222656 791.652344 C 192.441406 811.917969 176.847656 833.324219 159.6875 853.015625 C 145.578125 869.15625 112.859375 893.886719 114.878906 917.542969 C 117.585938 948.1875 167.007812 961.847656 190.957031 968.71875 C 224.320312 978.335938 263.066406 990.238281 296.8125 976.503906 C 335.59375 960.664062 364.730469 928.535156 402.671875 910.980469 C 471.921875 878.964844 565.539062 860.875 638.867188 890.144531 C 671.050781 903.082031 700.035156 922.886719 711.054688 957.535156 C 721.921875 991.804688 719.75 1027.789062 725.011719 1063.050781 C 768.671875 1048.96875 812.90625 1034.164062 854.089844 1015.960938 C 898.859375 996.269531 942.445312 973.410156 990 961.390625 C 990.953125 911.933594 1011.734375 842.710938 1065.921875 827.675781 C 1111.796875 814.929688 1145.65625 845.574219 1153.015625 886.710938 Z M 1033.507812 710.675781 C 1126.667969 721.628906 1190.007812 806.652344 1168.078125 903.195312 C 1167.242188 906.707031 1165.03125 908.652344 1162.4375 909.300781 C 1162.285156 909.570312 1162.054688 909.722656 1161.902344 909.914062 C 1156.832031 957.996094 1147.601562 1026.074219 1092.84375 1042.902344 C 1084.109375 1045.609375 1075.757812 1046.601562 1067.941406 1046.296875 C 1024.203125 1057.480469 960.519531 1041.910156 946.90625 994.398438 C 914.722656 1007.335938 883.757812 1023.171875 851.574219 1036.300781 C 802.382812 1056.410156 750.484375 1073.507812 699.652344 1089.800781 C 699.269531 1091.9375 697.859375 1093.84375 695.113281 1095.105469 C 693.167969 1095.984375 691.53125 1096.667969 689.8125 1097.203125 C 689.777344 1100.449219 689.777344 1103.804688 689.660156 1107.125 C 689.585938 1108.613281 689.28125 1109.871094 688.707031 1110.980469 C 685.886719 1158.605469 664.53125 1207.753906 611.410156 1213.707031 C 598.292969 1215.195312 585.710938 1214.011719 574.15625 1210.617188 C 573.8125 1210.730469 573.46875 1210.84375 573.089844 1210.960938 C 540.140625 1217.523438 503.570312 1205.386719 485.914062 1176.691406 C 401.335938 1184.78125 309.894531 1196.230469 226.570312 1174.136719 C 148.132812 1153.300781 68.816406 1119.109375 5.398438 1067.78125 C 5.246094 1067.667969 5.132812 1067.476562 4.941406 1067.324219 C 2.273438 1065.417969 0.402344 1062.210938 1.128906 1058.164062 C 13.863281 983.296875 24.847656 899.800781 77.738281 840.996094 C 100.390625 815.808594 131.238281 805.046875 161.859375 793.140625 C 177.761719 787.035156 192.863281 777.191406 208.726562 771.65625 C 221.386719 767.269531 239.230469 769.480469 249.222656 759.636719 C 274.199219 735.136719 294.90625 703.234375 324.34375 683.773438 C 352.296875 665.265625 383.910156 652.484375 413.769531 637.410156 C 473.675781 607.1875 538.769531 582.953125 606.53125 580.933594 C 663.84375 579.214844 719.558594 589.328125 774.050781 605.164062 C 772.257812 596.691406 769.703125 588.375 768.253906 579.863281 C 747.203125 577.839844 726.230469 576.046875 705.523438 574.519531 C 698.8125 573.988281 696.066406 567.652344 697.210938 562.652344 C 696.296875 559.296875 697.210938 555.363281 701.023438 552.921875 C 724.554688 537.734375 749.109375 524.148438 776.492188 517.320312 C 778.929688 516.746094 780.988281 517.089844 782.707031 517.96875 C 837.617188 517.089844 894.816406 528.347656 948.546875 538.152344 C 1005.0625 548.382812 1055.207031 573.375 1110.269531 587.722656 C 1115.800781 589.136719 1117.402344 594.136719 1116.257812 598.449219 C 1116.449219 600.585938 1115.570312 602.796875 1113.246094 604.628906 C 1097.417969 617.109375 1078.390625 628.367188 1067.027344 645.460938 C 1064.128906 649.851562 1059.285156 650.347656 1055.550781 648.589844 C 1054.367188 648.589844 1053.109375 648.324219 1051.851562 647.710938 C 1043.460938 643.667969 1034.996094 639.964844 1026.339844 636.417969 C 1031.945312 660.800781 1033.316406 685.605469 1033.507812 710.675781 Z M 668.648438 1024.394531 C 663.617188 1010.65625 654.273438 999.78125 636.734375 995.660156 C 607.523438 988.867188 573.316406 996.5 550.742188 1016.953125 C 516.308594 1048.207031 501.015625 1131.777344 496.746094 1160.015625 C 497.203125 1160.703125 497.699219 1161.390625 498.042969 1162.304688 C 505.515625 1180.203125 523.859375 1190.847656 543 1194.015625 C 524.164062 1178.066406 512.570312 1153.832031 514.171875 1124.679688 C 516.878906 1073.390625 547.996094 1013.175781 601.574219 1000.65625 C 624.339844 995.355469 653.96875 1006.421875 668.648438 1024.394531 "
        fill-opacity="1" fill-rule="nonzero" />
    <path fill="#000000"
        d="M 1118.851562 937.121094 C 1119.957031 917.125 1110.691406 884.191406 1084.796875 885.375 C 1060.316406 886.519531 1043.347656 915.027344 1042.164062 937.539062 C 1041.097656 958.835938 1056.160156 1001.421875 1085.828125 989.285156 C 1105.886719 981.15625 1115.683594 957.347656 1118.851562 937.121094 Z M 1088.496094 867.785156 C 1122.511719 869.921875 1138.488281 908.082031 1136.660156 937.539062 C 1136.621094 938.1875 1136.46875 938.761719 1136.390625 939.371094 C 1136.316406 939.5625 1136.390625 939.714844 1136.316406 939.90625 C 1132.617188 967.269531 1110.804688 1012.679688 1076.292969 1008.519531 C 1039.191406 1004.015625 1021 967.382812 1024.890625 932.960938 C 1028.4375 901.175781 1053.453125 865.570312 1088.496094 867.785156 "
        fill-opacity="1" fill-rule="nonzero" />
    <path fill="#000000"
        d="M 1088.6875 930.328125 C 1098.03125 935.023438 1103.902344 940.25 1102.949219 942.464844 C 1101.996094 944.714844 1094.636719 943.1875 1085.941406 939.832031 C 1083.15625 949.828125 1079.457031 956.925781 1077.207031 956.390625 C 1074.769531 955.78125 1074.691406 947.042969 1076.789062 936.050781 C 1073.355469 934.5625 1070.304688 933.191406 1068.058594 932.046875 C 1064.511719 930.441406 1062.109375 929.03125 1062.335938 927.582031 C 1062.488281 926.285156 1064.929688 925.136719 1069.164062 925.023438 C 1072.214844 925.023438 1075.757812 925.632812 1079.574219 926.703125 C 1083.5 916.628906 1087.925781 909.796875 1090.058594 910.753906 C 1092.308594 911.707031 1091.660156 920.140625 1088.6875 930.328125 "
        fill-opacity="1" fill-rule="nonzero" />
    <path fill="#000000"
        d="M 1077.667969 765.171875 C 1081.519531 767.613281 1083.460938 769.292969 1083.15625 769.902344 C 1082.777344 770.550781 1080.222656 770.054688 1075.988281 768.679688 C 1071.832031 767.15625 1065.65625 765.589844 1058.179688 763.871094 C 1056.273438 763.644531 1054.253906 763.339844 1052.15625 762.996094 C 1051.164062 762.878906 1050.097656 762.691406 1048.988281 762.5 C 1047.921875 762.460938 1046.816406 762.460938 1045.671875 762.382812 C 1043.460938 762.269531 1041.171875 762.195312 1038.769531 762.078125 C 1036.40625 762.308594 1033.964844 762.5 1031.488281 762.726562 C 1021.609375 763.871094 1011.007812 767.039062 1001.246094 773.03125 C 991.445312 778.871094 983.933594 787.1875 978.367188 795.46875 C 972.53125 803.675781 969.328125 812.375 966.507812 819.585938 C 964.371094 826.914062 962.617188 833.019531 961.855469 837.558594 C 960.828125 841.910156 959.910156 844.277344 959.226562 844.277344 C 958.578125 844.199219 958.15625 841.71875 957.964844 837.179688 C 957.546875 832.714844 958.269531 826.074219 959.683594 817.71875 C 961.703125 809.703125 964.488281 799.933594 970.550781 790.46875 C 976.347656 781.007812 984.660156 771.238281 995.984375 764.484375 C 1007.15625 757.578125 1019.511719 754.292969 1030.6875 753.53125 C 1033.507812 753.417969 1036.214844 753.339844 1038.847656 753.265625 C 1041.515625 753.570312 1044.03125 753.796875 1046.511719 754.105469 C 1047.769531 754.21875 1048.953125 754.410156 1050.132812 754.523438 C 1051.277344 754.828125 1052.382812 755.058594 1053.527344 755.363281 C 1055.738281 755.972656 1057.875 756.507812 1059.894531 757.042969 C 1067.75 759.714844 1073.851562 762.460938 1077.667969 765.171875 "
        fill-opacity="1" fill-rule="nonzero" />
    <path fill="#000000"
        d="M 1034.347656 605.582031 C 1035.414062 607.109375 1035.796875 608.027344 1035.566406 608.253906 C 1035.261719 608.445312 1034.386719 608.027344 1032.898438 606.996094 C 1031.488281 605.890625 1029.351562 604.4375 1026.53125 602.644531 C 1020.886719 599.132812 1012.269531 594.859375 1000.789062 591.3125 C 989.351562 587.648438 975.355469 584.441406 959.492188 581.542969 C 943.703125 578.488281 926.277344 575.167969 907.9375 571.695312 C 898.859375 569.828125 889.859375 568.453125 881.203125 567.078125 C 872.546875 565.707031 864.234375 564.332031 856.265625 563.035156 C 840.289062 560.785156 825.910156 558.609375 813.824219 556.660156 C 789.722656 553.035156 774.890625 550.097656 774.890625 548.761719 C 775.042969 547.390625 790.21875 547.808594 814.660156 549.640625 C 826.828125 550.632812 841.429688 552.082031 857.523438 553.875 C 865.570312 554.984375 873.996094 556.128906 882.730469 557.386719 C 891.460938 558.609375 900.574219 559.867188 909.726562 561.851562 C 918.957031 563.683594 927.957031 565.476562 936.613281 567.195312 C 945.230469 568.988281 953.503906 570.78125 961.4375 572.5 C 977.300781 575.933594 991.636719 579.941406 1003.230469 584.632812 C 1014.824219 589.210938 1023.632812 594.824219 1028.855469 599.515625 C 1031.523438 601.957031 1033.394531 603.980469 1034.347656 605.582031 "
        fill-opacity="1" fill-rule="nonzero" />
    <path fill="#000000"
        d="M 660.679688 837.980469 C 659.613281 818.9375 657.25 799.398438 650.039062 781.65625 C 634.023438 800.886719 620.792969 822.449219 610.800781 845.765625 C 627.503906 843.550781 644.167969 840.996094 660.679688 837.980469 Z M 805.433594 800.699219 C 800.667969 767.269531 797.234375 728.574219 773.554688 702.816406 C 773.136719 702.394531 772.792969 701.9375 772.488281 701.441406 C 764.707031 703.425781 757.269531 705.792969 750.371094 708.539062 C 716.964844 721.78125 687.410156 741.96875 662.929688 767.191406 C 673.035156 788.144531 676.808594 811.496094 678.335938 834.585938 C 721.351562 825.960938 763.792969 814.625 805.433594 800.699219 Z M 822.515625 794.820312 C 834.375 790.585938 846.234375 786.195312 857.980469 781.542969 C 851.574219 752.042969 840.859375 723.765625 833.195312 694.535156 C 819.238281 694.304688 805.394531 695.335938 792.125 697.472656 C 812.984375 725.0625 817.558594 761.125 822.515625 794.820312 Z M 949.957031 740.289062 C 926.734375 713.425781 890.164062 699.609375 851.917969 695.71875 C 859.316406 722.164062 868.773438 748.035156 874.757812 774.824219 C 900.269531 764.292969 925.402344 752.730469 949.957031 740.289062 Z M 969.941406 736.625 C 971.808594 739.183594 972 741.738281 971.121094 743.839844 C 971.464844 746.851562 970.359375 749.945312 966.699219 751.851562 C 852.300781 810.960938 727.335938 849.808594 599.4375 865.113281 C 596.273438 865.53125 594.023438 864.386719 592.652344 862.554688 C 589.332031 860.875 587.199219 857.441406 588.835938 852.824219 C 616.558594 778.222656 676.164062 713.15625 753.230469 688.582031 C 822.441406 666.449219 922.808594 673.585938 969.941406 736.625 "
        fill-opacity="1" fill-rule="nonzero" />
    <path fill="#000000"
        d="M 965.058594 935.671875 C 965.058594 936.625 965.171875 937.351562 965.058594 938.496094 C 964.90625 939.675781 964.753906 940.785156 964.488281 941.929688 L 964.488281 942.003906 L 964.371094 942.234375 C 961.511719 948.835938 956.289062 952.539062 951.371094 955.78125 C 946.296875 959.140625 940.882812 961.621094 935.316406 963.871094 C 924.179688 968.488281 912.28125 972 900.15625 975.320312 C 889.480469 978.066406 879.753906 980.851562 869.613281 983.714844 C 859.621094 986.578125 849.933594 988.714844 840.746094 990.890625 C 822.328125 995.085938 805.96875 998.863281 792.429688 1002.871094 C 765.46875 1010.503906 749.910156 1019.355469 749.109375 1017.867188 C 748.804688 1017.257812 752.390625 1014.585938 759.101562 1010.3125 C 762.382812 1008.0625 766.957031 1006.039062 772.144531 1003.519531 C 777.367188 1000.847656 783.46875 998.636719 790.21875 996.078125 C 803.753906 991.15625 820.304688 986.578125 838.53125 981.921875 C 847.648438 979.480469 857.21875 977.152344 866.941406 974.25 C 876.4375 971.425781 887.152344 968.296875 897.488281 965.625 C 909.574219 962.34375 921.167969 959.023438 931.691406 954.828125 C 936.992188 952.765625 942.027344 950.515625 946.375 947.804688 C 950.605469 945.25 954.535156 942.121094 955.984375 938.875 C 955.984375 938.496094 956.058594 938.113281 956.175781 937.691406 C 956.289062 937.273438 956.175781 936.394531 956.25 935.746094 C 956.25 934.449219 956.136719 932.960938 955.984375 931.472656 C 955.753906 928.496094 955.375 925.519531 954.953125 922.582031 C 954.574219 919.683594 954.113281 916.820312 953.808594 913.84375 C 953.617188 912.46875 953.503906 910.867188 953.429688 909.265625 C 953.429688 907.46875 953.542969 906.402344 953.617188 904.988281 C 954.382812 894.304688 954.648438 885.03125 955.832031 877.285156 C 958.308594 861.945312 960.214844 853.207031 961.246094 853.207031 C 962.199219 853.359375 962.121094 862.363281 961.167969 877.589844 C 960.75 885.148438 961.246094 894.609375 961.132812 905.257812 C 961.054688 908.195312 961.054688 910.027344 961.589844 912.8125 C 962.121094 915.558594 962.617188 918.347656 963.152344 921.285156 C 963.6875 924.261719 964.21875 927.277344 964.640625 930.558594 C 964.792969 932.160156 965.058594 933.761719 965.058594 935.671875 "
        fill-opacity="1" fill-rule="nonzero" />
    <path fill="#000000"
        d="M 949.234375 785.546875 C 949.769531 803.75 946.070312 820.160156 942.484375 834.394531 C 938.632812 848.511719 935.199219 860.953125 932.339844 871.332031 C 926.851562 892.015625 926.046875 904.800781 924.523438 904.800781 C 923.644531 904.835938 922.273438 891.59375 926.203125 869.996094 C 928.070312 859.273438 931.195312 846.605469 934.285156 832.445312 C 936.800781 820.425781 939.28125 807.148438 939.546875 793.21875 C 931.042969 797.035156 922.234375 800.886719 913.199219 804.628906 C 903.246094 808.789062 893.75 813.023438 884.523438 817.070312 C 876.324219 820.65625 868.773438 824.507812 861.261719 828.097656 C 863.394531 840.765625 865.378906 852.597656 867.171875 863.203125 C 869.382812 874.804688 869.648438 885.03125 870.488281 893.542969 C 871.785156 910.5625 872.015625 920.519531 871.023438 920.671875 C 870.03125 920.671875 867.820312 910.941406 864.882812 894.265625 C 863.28125 885.949219 862.214844 875.566406 859.507812 864.273438 C 857.105469 852.902344 854.472656 840.15625 851.652344 826.417969 L 850.925781 822.90625 L 853.976562 821.34375 C 862.40625 817.144531 871.136719 812.296875 880.441406 808.140625 C 889.707031 803.941406 899.316406 799.589844 909.269531 795.429688 C 920.671875 790.585938 931.730469 785.816406 942.40625 781.3125 L 949.042969 778.449219 L 949.234375 785.546875 "
        fill-opacity="1" fill-rule="nonzero" />
    <path fill="#000000"
        d="M 858.476562 930.558594 C 858.820312 936.207031 858.707031 939.371094 858.132812 939.488281 C 857.5625 939.601562 856.570312 936.703125 855.199219 931.089844 C 854.550781 928.304688 853.597656 924.832031 853.023438 920.789062 C 852.453125 916.707031 851.878906 912.050781 851.269531 906.859375 C 850.699219 901.824219 850.085938 896.289062 849.4375 890.222656 C 848.90625 884.269531 847.304688 877.707031 846.234375 870.796875 C 844.863281 864.84375 842.230469 857.59375 839.410156 850.878906 C 837.886719 847.480469 836.246094 844.046875 834.339844 840.878906 C 832.621094 837.714844 829.914062 834.585938 828.390625 833.859375 L 827.96875 833.628906 C 826.140625 832.714844 825.226562 832.714844 822.328125 833.933594 C 819.582031 835.117188 815.996094 837.140625 811.800781 838.210938 L 811.382812 838.324219 C 806.617188 839.316406 801.734375 840.421875 796.816406 841.492188 C 776.71875 846.300781 757.917969 852.824219 740.605469 858.664062 C 723.371094 864.578125 707.429688 869.273438 693.855469 872.4375 C 680.089844 875.148438 668.765625 877.054688 661.097656 876.828125 C 653.398438 876.941406 649.085938 876.714844 649.050781 876.0625 C 649.050781 875.339844 653.207031 874.269531 660.757812 872.898438 C 668.535156 871.941406 679.058594 869.042969 692.0625 865.53125 C 705.179688 861.601562 720.511719 856.296875 737.59375 849.925781 C 754.640625 843.667969 773.667969 836.722656 794.488281 831.722656 C 799.523438 830.652344 804.402344 829.585938 809.359375 828.554688 L 809.78125 828.441406 C 812.375 827.675781 815.003906 826.304688 818.511719 824.816406 C 820.34375 823.976562 822.746094 823.328125 825.378906 823.136719 C 826.671875 823.25 828.007812 823.402344 829.34375 823.671875 C 830.410156 824.089844 831.480469 824.585938 832.546875 825.042969 C 838.265625 828.324219 840.289062 832.371094 842.613281 836.074219 C 844.75 839.851562 846.351562 843.628906 847.914062 847.292969 C 850.8125 854.921875 853.136719 861.714844 854.550781 869.460938 C 855.3125 876.484375 856.570312 882.820312 856.800781 889.191406 C 857.066406 895.449219 857.292969 901.210938 857.445312 906.476562 C 857.636719 911.628906 857.714844 916.285156 857.828125 920.332031 C 857.980469 924.375 858.4375 927.773438 858.476562 930.558594 "
        fill-opacity="1" fill-rule="nonzero" />
    <path fill="#000000"
        d="M 619.304688 923.421875 C 641.230469 928.191406 653.585938 935.328125 652.9375 936.511719 C 652.367188 937.808594 639.628906 933.230469 618.046875 930.441406 C 607.292969 929.03125 594.367188 927.773438 580.066406 927.695312 C 565.765625 927.695312 549.941406 928.609375 534.382812 932.65625 C 523.019531 935.554688 512.683594 940.25 505.289062 947.003906 C 497.851562 953.757812 494.34375 962.765625 493.65625 971.425781 L 492.703125 983.410156 L 486.03125 973.714844 C 476.800781 960.246094 467.191406 950.78125 459.757812 944.980469 C 452.359375 939.257812 447.25 936.472656 447.78125 935.554688 C 448.203125 934.90625 453.539062 935.976562 462.425781 940.898438 C 469.367188 944.828125 478.058594 951.699219 486.5625 961.199219 C 487.023438 959.140625 487.632812 957.003906 488.585938 954.902344 C 490.796875 949.5625 494.230469 944.371094 498.613281 940.019531 C 507.613281 931.472656 519.511719 926.09375 531.828125 922.964844 C 548.835938 918.535156 565.421875 917.964844 580.21875 918.5 C 595.089844 919.03125 608.363281 921.054688 619.304688 923.421875 "
        fill-opacity="1" fill-rule="nonzero" />
    <path fill="#000000"
        d="M 557.53125 673.699219 C 608.667969 686.941406 649.621094 699.761719 649.050781 702.472656 C 648.402344 705.144531 606.265625 696.632812 554.9375 683.46875 C 503.800781 669.808594 462.960938 656.527344 463.683594 653.855469 C 464.371094 651.148438 506.355469 660.078125 557.53125 673.699219 "
        fill-opacity="1" fill-rule="nonzero" />
    <path fill="#000000"
        d="M 614.195312 1104.035156 C 625.253906 1109.871094 632.308594 1116.132812 631.203125 1118 C 629.945312 1120.101562 621.136719 1117.3125 609.847656 1112.621094 C 602.945312 1125.519531 595.699219 1134.105469 593.488281 1132.882812 C 591.277344 1131.699219 594.863281 1121.359375 600.734375 1108.726562 C 587.65625 1103.003906 576.710938 1097.777344 577.664062 1095.21875 C 578.503906 1092.851562 590.589844 1093.84375 605.273438 1099.796875 C 612.289062 1087.207031 620.375 1078.847656 622.28125 1080.335938 C 624.339844 1081.902344 620.257812 1091.554688 614.195312 1104.035156 "
        fill-opacity="1" fill-rule="nonzero" />
    <path fill="#000000"
        d="M 540.867188 837.714844 C 560.769531 800.46875 578.199219 761.734375 601.800781 726.667969 C 540.980469 717.621094 485.265625 689.191406 424.597656 678.890625 C 374.222656 700.71875 326.367188 733.34375 293.953125 778.144531 C 332.886719 788.5625 371.78125 799.324219 411.097656 808.519531 C 454 818.441406 496.972656 832.789062 540.867188 837.714844 Z M 620.90625 714.113281 C 624.988281 716.25 627.503906 720.980469 623.996094 725.789062 C 596.121094 764.292969 577.207031 808.140625 554.667969 849.808594 C 554.480469 850.039062 554.289062 850.230469 554.175781 850.457031 C 553.335938 853.929688 550.589844 856.640625 545.9375 856.183594 C 501.933594 852.023438 459.566406 838.09375 416.703125 828.097656 C 370.179688 817.257812 324.15625 804.511719 277.9375 792.378906 C 277.402344 792.265625 277.023438 792.074219 276.566406 791.921875 C 271.644531 790.242188 268.023438 784.898438 271.570312 779.289062 C 305.738281 726.398438 359.3125 687.703125 416.589844 663.015625 C 417.808594 662.480469 419.066406 662.214844 420.328125 662.214844 C 422.003906 661.222656 424.0625 660.726562 426.390625 661.105469 C 490.71875 671.410156 549.292969 703.769531 614.308594 710.371094 C 617.285156 710.675781 619.457031 712.164062 620.90625 714.113281 "
        fill-opacity="1" fill-rule="nonzero" />
    <path fill="#000000"
        d="M 454.152344 859.273438 C 476.800781 865.265625 491.332031 865.457031 491.445312 867.136719 C 491.445312 867.785156 487.824219 868.355469 481.035156 868.738281 C 474.246094 868.964844 464.484375 868.316406 452.625 866.21875 C 440.84375 864.042969 426.921875 860.648438 411.859375 856.183594 C 404.386719 853.96875 396.492188 851.640625 388.332031 849.277344 C 380.058594 846.949219 371.746094 843.933594 363.089844 841.109375 C 345.929688 835.347656 329.570312 829.699219 314.773438 824.472656 C 299.976562 819.167969 286.824219 814.054688 275.765625 809.742188 C 253.648438 801.078125 240.1875 795.011719 240.644531 793.675781 C 241.140625 792.378906 255.363281 796.082031 278.089844 803.023438 C 289.378906 806.496094 302.800781 810.886719 317.75 815.695312 C 332.660156 820.464844 348.980469 825.769531 366.101562 831.53125 C 374.644531 834.316406 382.996094 837.445312 391.078125 839.851562 C 399.199219 842.253906 407.09375 844.925781 414.53125 847.292969 C 429.441406 852.253906 442.789062 856.296875 454.152344 859.273438 "
        fill-opacity="1" fill-rule="nonzero" />
    <path fill="#000000"
        d="M 460.976562 1004.589844 C 466.46875 969.289062 433.175781 963.871094 407.4375 977.226562 C 387.683594 987.453125 357.214844 1006.421875 347.53125 1027.789062 C 331.707031 1062.746094 396.113281 1054.160156 410.90625 1048.398438 C 431.84375 1040.304688 454.339844 1027.523438 460.976562 1004.589844 Z M 431.5 952.652344 C 465.820312 952.003906 482.332031 974.25 478.59375 1006.304688 C 478.59375 1007.257812 478.519531 1008.289062 478.25 1009.359375 C 477.984375 1010.542969 477.640625 1011.570312 477.105469 1012.375 C 465.171875 1046.488281 425.246094 1067.667969 391.078125 1071.789062 C 362.097656 1075.222656 320.035156 1063.394531 328.691406 1026.570312 C 333.269531 1007.222656 357.828125 988.828125 372.8125 977.800781 C 389.628906 965.359375 409.800781 953.109375 431.5 952.652344 "
        fill-opacity="1" fill-rule="nonzero" />
    <path fill="#000000"
        d="M 267.832031 1118.304688 C 285.449219 1136.164062 361.03125 1156.160156 350.960938 1110.523438 C 345.394531 1094.914062 316.910156 1092.546875 303.335938 1092.851562 C 295.480469 1093.042969 285.753906 1093.082031 278.660156 1097.089844 C 272.597656 1100.523438 260.472656 1110.828125 267.832031 1118.304688 Z M 368.769531 1109.035156 C 374.222656 1142.84375 346.234375 1159.863281 314.050781 1155.742188 C 293.839844 1153.148438 254.753906 1143.722656 248.804688 1120.175781 C 241.367188 1090.867188 275.992188 1075.527344 299.558594 1075.070312 C 322.78125 1074.574219 355.5 1078.964844 366.671875 1102.355469 C 367.398438 1103.269531 367.933594 1104.378906 368.238281 1105.75 C 368.617188 1106.933594 368.769531 1108.003906 368.769531 1109.035156 "
        fill-opacity="1" fill-rule="nonzero" />
    <path fill="#000000"
        d="M 364.539062 912.699219 C 364.84375 913.347656 361.21875 915.789062 354.433594 919.683594 C 347.722656 923.648438 338.035156 929.296875 325.640625 936.050781 C 319.386719 939.296875 312.5625 942.960938 304.898438 946.28125 C 297.347656 949.714844 288.425781 952.917969 279.730469 955.246094 C 261.007812 959.980469 240.1875 961.925781 218.183594 959.292969 C 212.730469 958.871094 207.351562 957.347656 202.050781 956.46875 C 196.980469 954.789062 191.375 953.492188 186.835938 951.507812 C 184.511719 950.515625 182.222656 949.5625 179.972656 948.605469 C 177.53125 947.652344 175.320312 946.46875 173.070312 945.363281 C 168.457031 943.339844 164.261719 940.667969 160.066406 938.1875 C 152.175781 932.695312 144.507812 925.367188 142.144531 915.75 C 139.820312 906.058594 143.023438 897.433594 146.300781 890.984375 C 153.472656 878.085938 161.515625 869.921875 166.855469 864.195312 C 172.386719 858.546875 175.742188 855.761719 176.273438 856.183594 C 176.808594 856.640625 174.40625 860.34375 169.90625 866.714844 C 165.484375 873.085938 158.351562 882.054688 152.707031 894.074219 C 150.113281 900.105469 148.246094 907.050781 150.152344 913.539062 C 151.984375 920.101562 157.96875 925.75 165.214844 930.441406 C 169.027344 932.578125 172.804688 934.90625 177.152344 936.738281 C 179.285156 937.691406 181.421875 938.761719 183.597656 939.601562 C 185.882812 940.515625 188.210938 941.472656 190.535156 942.347656 C 192.902344 943.417969 195.1875 944.066406 197.515625 944.675781 C 199.800781 945.363281 202.128906 946.050781 204.492188 946.738281 C 209.449219 947.539062 214.332031 948.949219 219.441406 949.371094 C 239.765625 951.851562 260.054688 950.210938 277.289062 946.316406 C 286.441406 944.140625 294.183594 941.625 301.734375 938.609375 C 309.246094 935.671875 316.109375 932.542969 322.476562 929.679688 C 335.097656 923.839844 345.433594 919.070312 352.714844 916.171875 C 360.078125 913.308594 364.308594 912.125 364.539062 912.699219 "
        fill-opacity="1" fill-rule="nonzero" />
    <path fill="#000000"
        d="M 229.050781 1085.414062 C 230.917969 1079.917969 232.636719 1074.574219 233.703125 1069.042969 C 209.679688 1062.476562 185.65625 1055.53125 162.28125 1046.792969 C 146.570312 1040.839844 105.195312 1013.328125 90.855469 1025.84375 C 68.167969 1062.097656 120.140625 1077.246094 147.179688 1086.0625 C 158.238281 1089.648438 168.875 1093.691406 179.515625 1098.273438 C 198.390625 1106.363281 220.8125 1110.597656 229.050781 1085.414062 Z M 246.019531 1053.855469 C 249.605469 1054.808594 252.921875 1058.625 252.578125 1062.476562 C 250.289062 1087.242188 241.519531 1117.542969 215.019531 1124.257812 C 191.414062 1130.210938 159.496094 1109.035156 137.492188 1101.667969 C 98.902344 1088.617188 44.601562 1063.433594 75.984375 1015.882812 C 76.480469 1015.082031 77.015625 1014.28125 77.777344 1013.519531 C 96.042969 995.773438 115.148438 1005.351562 135.167969 1015.769531 C 169.675781 1033.703125 208.609375 1043.855469 246.019531 1053.855469 "
        fill-opacity="1" fill-rule="nonzero" />
</svg>