<svg xmlns="http://www.w3.org/2000/svg" xmlns:xlink="http://www.w3.org/1999/xlink" width="1920" zoomAndPan="magnify" viewBox="0 0 1440 809.999993" height="1080" preserveAspectRatio="xMidYMid meet" version="1.0"><defs><clipPath id="e73002d9ec"><path d="M 58 351 L 1399.425781 351 L 1399.425781 517 L 58 517 Z M 58 351 " clip-rule="nonzero"/></clipPath><clipPath id="347128b0ec"><path d="M 73.5 436.351562 C 96.824219 424.648438 124.351562 414.375 138.601562 407.925781 C 148.5 403.5 154.949219 399.675781 163.351562 395.851562 C 171.824219 391.949219 178.949219 389.023438 189.074219 384.675781 C 203.476562 378.523438 227.25 368.101562 241.5 362.398438 C 251.175781 358.5 257.625 354.824219 266.101562 353.101562 C 274.574219 351.375 281.925781 350.851562 292.425781 351.898438 C 308.625 353.476562 334.351562 359.773438 353.25 366.824219 C 371.101562 373.5 389.476562 384.976562 402.976562 392.476562 C 412.574219 397.800781 418.726562 403.050781 427.125 406.800781 C 435.300781 410.476562 443.398438 412.800781 452.476562 414.976562 C 462.601562 417.375 474.824219 418.726562 485.175781 420.148438 C 494.476562 421.425781 502.875 422.699219 511.726562 423.300781 C 520.574219 423.898438 529.425781 425.175781 538.273438 423.75 C 547.574219 422.25 556.875 417.375 566.101562 413.851562 C 575.25 410.324219 584.023438 406.199219 593.398438 402.75 C 603.226562 399.148438 612.300781 397.050781 623.773438 392.699219 C 639.148438 386.851562 660.898438 375.300781 677.101562 369.976562 C 689.925781 365.773438 701.324219 363.449219 712.574219 361.5 C 722.550781 359.773438 731.550781 358.199219 741.226562 358.5 C 751.273438 358.800781 762 361.425781 771.75 363.523438 C 780.898438 365.476562 789.449219 367.648438 798 370.648438 C 806.699219 373.726562 814.875 377.625 823.5 381.824219 C 832.648438 386.324219 842.101562 392.324219 851.324219 397.125 C 860.175781 401.773438 869.023438 406.273438 877.800781 410.25 C 886.125 414.074219 892.050781 417 902.625 420.601562 C 920.023438 426.601562 955.273438 440.25 973.5 439.949219 C 985.125 439.726562 992.324219 432.824219 1001.773438 431.101562 C 1010.773438 429.449219 1019.925781 432.226562 1028.773438 429.675781 C 1038.449219 426.898438 1047.226562 418.875 1057.125 413.699219 C 1067.625 408.226562 1076.925781 402.074219 1089.976562 397.800781 C 1107.375 392.101562 1132.648438 389.625 1153.351562 386.175781 C 1173.148438 382.875 1195.273438 377.023438 1211.476562 377.25 C 1223.175781 377.398438 1232.023438 379.5 1241.699219 382.875 C 1251.601562 386.324219 1260.75 392.550781 1270.199219 397.875 C 1279.800781 403.351562 1289.175781 410.550781 1298.851562 415.273438 C 1307.851562 419.625 1317 421.425781 1326 425.550781 C 1335.449219 429.898438 1345.875 437.925781 1354.273438 441.074219 C 1360.351562 443.324219 1366.050781 443.175781 1370.925781 444.675781 C 1375.050781 445.949219 1378.574219 447.148438 1381.875 449.175781 C 1385.175781 451.199219 1388.25 453.976562 1390.726562 456.976562 C 1393.199219 459.976562 1395.300781 463.574219 1396.726562 467.175781 C 1398.148438 470.773438 1398.976562 474.824219 1399.125 478.726562 C 1399.273438 482.625 1398.824219 486.75 1397.699219 490.5 C 1396.574219 494.25 1394.851562 498 1392.601562 501.148438 C 1390.351562 504.375 1387.5 507.300781 1384.351562 509.625 C 1381.199219 511.949219 1377.523438 513.824219 1373.851562 515.023438 C 1370.175781 516.226562 1366.050781 516.824219 1362.148438 516.75 C 1358.25 516.675781 1354.199219 516 1350.523438 514.726562 C 1346.851562 513.449219 1343.25 511.425781 1340.175781 509.023438 C 1337.101562 506.625 1334.324219 503.550781 1332.148438 500.324219 C 1329.976562 497.101562 1328.25 493.273438 1327.273438 489.523438 C 1326.300781 485.773438 1325.925781 481.726562 1326.148438 477.824219 C 1326.375 473.925781 1327.351562 469.875 1328.851562 466.273438 C 1330.351562 462.675781 1332.523438 459.148438 1335.074219 456.226562 C 1337.625 453.300781 1340.851562 450.675781 1344.226562 448.726562 C 1347.601562 446.773438 1351.425781 445.199219 1355.25 444.449219 C 1359.074219 443.699219 1363.199219 443.550781 1367.023438 444 C 1370.851562 444.449219 1374.824219 445.648438 1378.351562 447.300781 C 1381.875 448.949219 1385.324219 451.351562 1388.101562 454.050781 C 1390.875 456.75 1393.273438 460.125 1395.074219 463.574219 C 1396.875 467.023438 1398.148438 471 1398.75 474.824219 C 1399.351562 478.648438 1399.273438 482.773438 1398.601562 486.601562 C 1397.925781 490.425781 1396.5 494.324219 1394.625 497.773438 C 1392.75 501.148438 1390.199219 504.449219 1387.351562 507.074219 C 1384.5 509.699219 1381.050781 512.023438 1377.523438 513.601562 C 1374 515.175781 1369.949219 516.226562 1366.050781 516.601562 C 1362.148438 516.976562 1359.074219 516.601562 1354.273438 515.773438 C 1346.476562 514.351562 1333.726562 510.75 1324.273438 506.925781 C 1315.125 503.175781 1307.175781 497.476562 1298.398438 493.273438 C 1289.625 489.074219 1280.25 486 1271.476562 481.648438 C 1262.550781 477.226562 1253.324219 472.425781 1245.375 466.800781 C 1237.726562 461.398438 1232.625 450.976562 1224.601562 448.574219 C 1216.574219 446.175781 1209 450.675781 1197.148438 452.550781 C 1175.324219 456.074219 1123.425781 459.898438 1104.300781 468.976562 C 1093.949219 473.851562 1091.476562 482.25 1083.601562 486.824219 C 1075.425781 491.625 1066.800781 493.648438 1056 496.800781 C 1041.300781 501.148438 1017.675781 506.476562 1002.976562 508.949219 C 992.699219 510.675781 985.351562 512.101562 976.574219 511.875 C 967.800781 511.648438 960.601562 509.699219 950.324219 507.675781 C 935.398438 504.75 911.773438 499.5 895.949219 495.074219 C 883.425781 491.550781 873.226562 488.324219 862.800781 484.199219 C 853.125 480.375 844.351562 476.476562 835.574219 471.449219 C 826.574219 466.273438 818.625 458.25 809.476562 453.449219 C 800.550781 448.800781 790.949219 446.25 781.351562 443.023438 C 771.523438 439.726562 761.25 435.523438 751.199219 434.101562 C 741.675781 432.75 732.148438 433.050781 722.625 434.324219 C 712.726562 435.675781 703.949219 438.300781 692.773438 442.125 C 677.476562 447.375 654.523438 459.675781 639.976562 464.925781 C 630.074219 468.523438 622.949219 469.5 614.476562 472.5 C 605.625 475.648438 597 480.148438 588 483.601562 C 578.851562 487.125 569.625 491.175781 560.023438 493.425781 C 550.425781 495.675781 540.148438 496.949219 530.324219 497.175781 C 520.648438 497.398438 511.125 495.824219 501.523438 494.699219 C 491.851562 493.574219 482.101562 492.074219 472.425781 490.574219 C 462.75 489.074219 452.851562 487.5 443.398438 485.625 C 434.324219 483.824219 425.476562 483 416.699219 479.773438 C 407.25 476.324219 399.449219 470.925781 388.875 465 C 374.398438 456.898438 352.875 441.898438 338.175781 435.148438 C 327.675781 430.351562 320.175781 427.726562 310.050781 425.476562 C 298.726562 422.925781 284.25 420.074219 273.074219 421.351562 C 263.398438 422.476562 258.523438 426.226562 246.75 430.574219 C 222.523438 439.5 160.351562 465.148438 136.199219 473.023438 C 124.726562 476.773438 118.199219 477.226562 110.398438 479.925781 C 103.648438 482.25 96.601562 486.675781 91.875 487.875 C 89.175781 488.550781 87.449219 488.625 85.273438 488.550781 C 83.101562 488.476562 80.851562 488.175781 78.75 487.574219 C 76.648438 486.976562 74.476562 486.148438 72.523438 485.101562 C 70.574219 484.050781 68.699219 482.773438 67.125 481.273438 C 65.476562 479.773438 64.050781 478.050781 62.851562 476.175781 C 61.648438 474.375 60.601562 472.351562 59.851562 470.25 C 59.101562 468.148438 58.648438 465.898438 58.425781 463.726562 C 58.199219 461.550781 58.273438 459.300781 58.574219 457.125 C 58.875 454.949219 59.476562 452.699219 60.300781 450.675781 C 61.125 448.648438 62.175781 446.699219 63.449219 444.898438 C 64.726562 443.101562 66.300781 441.449219 67.949219 440.023438 C 69.601562 438.601562 73.5 436.351562 73.5 436.351562 " clip-rule="nonzero"/></clipPath></defs><g clip-path="url(#e73002d9ec)"><g clip-path="url(#347128b0ec)"><path fill="#319feb" d="M 55.425781 348.898438 L 1402.425781 348.898438 L 1402.425781 519.898438 L 55.425781 519.898438 Z M 55.425781 348.898438 " fill-opacity="1" fill-rule="nonzero"/></g></g></svg>