<svg xmlns="http://www.w3.org/2000/svg" xmlns:xlink="http://www.w3.org/1999/xlink" width="433" zoomAndPan="magnify" viewBox="0 0 324.75 30.000001" height="40" preserveAspectRatio="xMidYMid meet" version="1.0"><defs><clipPath id="751a44e159"><path d="M 5.117188 0 L 319 0 L 319 29.03125 L 5.117188 29.03125 Z M 5.117188 0 " clipRule="nonzero"/></clipPath><clipPath id="832023c03e"><path d="M 6.496094 12.929688 C 23.640625 5.300781 40.417969 2.324219 47.246094 2.105469 C 50.660156 1.960938 54.871094 2.613281 54.871094 2.976562 C 54.871094 3.339844 47.464844 4.214844 47.464844 4.140625 C 47.464844 4.066406 52.183594 2.6875 54.65625 2.46875 C 57.125 2.25 59.667969 2.542969 62.210938 2.976562 C 64.824219 3.414062 67.511719 4.722656 70.199219 5.011719 C 72.742188 5.300781 74.921875 4.429688 77.898438 4.648438 C 82.039062 5.011719 88.285156 7.335938 92.789062 7.917969 C 96.492188 8.425781 100.054688 9.007812 103.105469 8.351562 C 105.792969 7.773438 107.824219 5.59375 110.292969 4.648438 C 112.691406 3.703125 115.304688 3.125 117.777344 2.613281 C 120.246094 2.105469 122.714844 1.671875 125.183594 1.742188 C 127.65625 1.816406 132.667969 2.90625 132.667969 3.269531 C 132.667969 3.632812 123.152344 4.285156 123.007812 3.777344 C 122.933594 3.339844 126.929688 1.453125 129.832031 0.800781 C 134.484375 -0.21875 142.472656 0.21875 148.5 0.582031 C 154.238281 0.945312 159.90625 1.671875 165.351562 2.832031 C 170.582031 3.921875 174.722656 6.320312 180.460938 7.261719 C 187.578125 8.425781 199.417969 9.660156 205.011719 8.425781 C 208.207031 7.699219 209.660156 5.664062 212.132812 4.648438 C 214.527344 3.703125 216.996094 3.125 219.46875 2.46875 C 221.9375 1.816406 224.480469 1.089844 226.949219 0.726562 C 229.417969 0.363281 231.816406 0.0742188 234.285156 0.21875 C 236.898438 0.4375 242.347656 2.035156 242.347656 1.960938 C 242.347656 1.886719 234.792969 0.4375 234.867188 0.0742188 C 234.9375 -0.289062 239.734375 -0.507812 242.273438 -0.289062 C 245.035156 -0.0742188 247.433594 1.015625 250.699219 1.523438 C 255.132812 2.25 262.25 1.742188 266.609375 3.050781 C 269.878906 3.996094 273.074219 6.027344 274.742188 7.261719 C 275.617188 7.917969 275.976562 8.207031 276.558594 9.007812 C 277.359375 10.097656 278.449219 11.914062 278.8125 13.511719 C 279.175781 15.109375 278.957031 17.214844 278.667969 18.59375 C 278.449219 19.539062 278.230469 20.121094 277.722656 20.917969 C 276.996094 22.082031 275.6875 23.753906 274.308594 24.625 C 272.929688 25.496094 271.183594 26.148438 269.515625 26.292969 C 267.914062 26.441406 265.15625 26.730469 264.5 25.566406 C 263.195312 23.171875 269.441406 8.789062 273.074219 6.972656 C 275.253906 5.882812 278.085938 8.789062 280.480469 8.425781 C 282.878906 8.0625 284.839844 5.300781 287.382812 4.792969 C 290.144531 4.214844 296.460938 5.15625 296.460938 5.519531 C 296.460938 5.8125 288.835938 7.117188 288.761719 6.753906 C 288.617188 6.246094 303.144531 0.4375 303.363281 0.800781 C 303.507812 1.089844 296.96875 4.9375 297.042969 5.011719 C 297.117188 5.085938 304.671875 0 304.960938 0.363281 C 305.25 0.800781 295.808594 10.167969 295.445312 9.878906 C 295.15625 9.660156 298.859375 2.46875 301.257812 1.089844 C 303.070312 0 305.613281 0.507812 307.574219 0.652344 C 309.320312 0.800781 311.0625 1.015625 312.515625 1.742188 C 313.96875 2.46875 315.566406 3.851562 316.4375 4.9375 C 317.089844 5.664062 317.382812 6.390625 317.746094 7.191406 C 318.035156 7.988281 318.324219 8.714844 318.398438 9.660156 C 318.542969 11.039062 318.324219 13.363281 317.960938 14.671875 C 317.671875 15.617188 317.453125 16.199219 316.871094 16.996094 C 316.074219 18.085938 314.621094 19.683594 313.167969 20.484375 C 311.714844 21.28125 308.445312 22.226562 308.300781 21.863281 C 308.082031 21.355469 317.453125 14.238281 317.960938 14.671875 C 318.179688 14.890625 317.019531 16.851562 316.363281 17.722656 C 315.710938 18.59375 314.839844 19.394531 313.894531 20.046875 C 312.949219 20.703125 311.859375 21.210938 310.769531 21.5 C 309.683594 21.789062 308.519531 21.9375 307.359375 21.863281 C 306.269531 21.789062 305.03125 21.574219 304.015625 21.136719 C 303 20.703125 301.980469 20.121094 301.109375 19.394531 C 300.238281 18.667969 299.441406 17.722656 298.859375 16.777344 C 298.277344 15.835938 297.769531 14.890625 297.550781 13.582031 C 297.261719 11.765625 297.625 8.570312 298.277344 6.828125 C 298.714844 5.59375 299.292969 4.867188 300.238281 3.996094 C 301.621094 2.761719 304.453125 1.234375 306.195312 0.800781 C 307.429688 0.507812 308.519531 0.652344 309.609375 0.800781 C 310.699219 0.945312 311.859375 1.378906 312.878906 1.886719 C 313.894531 2.398438 314.839844 2.976562 315.636719 3.996094 C 316.800781 5.449219 318.109375 8.351562 318.472656 10.097656 C 318.6875 11.332031 318.6875 12.277344 318.324219 13.511719 C 317.816406 15.253906 316.507812 18.015625 314.839844 19.394531 C 313.242188 20.773438 310.335938 21.644531 308.519531 21.863281 C 307.210938 22.007812 306.195312 21.789062 305.105469 21.5 C 304.015625 21.210938 302.925781 20.703125 301.980469 20.046875 C 301.039062 19.394531 300.238281 18.8125 299.511719 17.722656 C 298.496094 16.199219 296.824219 13.582031 297.332031 11.332031 C 298.058594 7.988281 304.523438 1.597656 307.574219 0.652344 C 309.320312 0.144531 311.207031 1.234375 312.515625 1.742188 C 313.457031 2.105469 313.96875 2.46875 314.695312 3.125 C 315.710938 4.066406 317.164062 5.957031 317.746094 7.191406 C 318.179688 8.0625 318.324219 8.714844 318.398438 9.660156 C 318.542969 11.039062 318.472656 13.148438 317.960938 14.671875 C 317.453125 16.199219 316.4375 17.796875 315.273438 18.957031 C 314.113281 20.121094 312.152344 21.066406 310.84375 21.5 C 309.898438 21.789062 308.519531 22.226562 308.300781 21.863281 C 307.792969 20.992188 315.347656 12.128906 315.273438 12.058594 C 315.203125 11.984375 311.0625 19.175781 308.230469 20.992188 C 305.832031 22.515625 300.382812 23.679688 299.949219 22.953125 C 299.511719 22.152344 306.632812 15.398438 306.847656 15.542969 C 307.066406 15.691406 303.945312 21.863281 301.039062 23.898438 C 297.480469 26.441406 290.214844 27.238281 286.003906 28.183594 C 283.023438 28.835938 281.207031 29.5625 278.230469 29.34375 C 274.164062 28.980469 265.375 27.964844 263.921875 24.695312 C 262.25 20.847656 270.167969 6.828125 272.492188 6.027344 C 273.289062 5.738281 274.015625 6.609375 274.742188 7.261719 C 275.832031 8.136719 277.214844 9.660156 277.941406 11.113281 C 278.667969 12.566406 279.101562 14.382812 279.027344 16.050781 C 278.957031 17.652344 278.519531 19.464844 277.722656 20.917969 C 276.921875 22.371094 275.398438 23.824219 274.308594 24.625 C 273.507812 25.203125 272.929688 25.421875 271.984375 25.714844 C 270.675781 26.078125 268.933594 26.441406 266.972656 26.222656 C 264.066406 25.929688 259.707031 23.605469 256.511719 23.027344 C 253.824219 22.589844 251.9375 23.097656 249.03125 22.664062 C 244.816406 22.007812 233.632812 18.957031 233.703125 18.738281 C 233.703125 18.59375 241.113281 19.394531 241.113281 19.902344 C 241.113281 20.554688 231.089844 21.066406 226.078125 22.445312 C 220.921875 23.824219 215.90625 27.09375 210.679688 28.253906 C 205.59375 29.417969 200.363281 29.707031 195.132812 29.5625 C 189.832031 29.417969 184.890625 28.402344 179.082031 27.3125 C 172.109375 26.003906 161.648438 22.953125 156.128906 22.082031 C 153.078125 21.574219 151.84375 21.5 148.863281 21.429688 C 144.289062 21.355469 137.171875 22.226562 131.503906 22.300781 C 126.128906 22.300781 119.957031 20.703125 115.886719 21.71875 C 112.980469 22.445312 111.53125 24.914062 108.914062 25.929688 C 106.082031 27.019531 102.449219 27.601562 99.472656 27.964844 C 96.855469 28.253906 94.53125 28.328125 91.917969 28.183594 C 89.085938 28.039062 85.742188 27.820312 83.054688 27.09375 C 80.585938 26.367188 78.550781 24.695312 76.15625 23.96875 C 73.6875 23.242188 71.070312 23.390625 68.238281 22.734375 C 64.898438 21.9375 61.699219 19.976562 57.632812 19.320312 C 52.402344 18.523438 43.976562 18.449219 39.402344 19.394531 C 36.421875 19.976562 35.261719 21.644531 32.429688 22.300781 C 28.507812 23.242188 21.242188 22.445312 17.828125 23.535156 C 15.722656 24.1875 14.632812 25.714844 13.105469 26.222656 C 11.871094 26.585938 10.710938 26.730469 9.546875 26.585938 C 8.386719 26.441406 7.152344 26.003906 6.207031 25.203125 C 5.042969 24.261719 3.738281 22.226562 3.300781 20.773438 C 2.9375 19.613281 3.011719 18.378906 3.375 17.214844 C 3.882812 15.761719 6.496094 12.929688 6.496094 12.929688 " clipRule="nonzero"/></clipPath></defs><g clip-path="url(#751a44e159)"><g clip-path="url(#832023c03e)"><path fill="#329feb" d="M 0.394531 -3.195312 L 321.449219 -3.195312 L 321.449219 32.394531 L 0.394531 32.394531 Z M 0.394531 -3.195312 " fillOpacity="1" fillRule="nonzero"/></g></g></svg>